solid PARTassembly
   facet normal -1.0000 0.0000 0.0000
      outer loop
         vertex -2.0000 4.3000 0.0000
         vertex -2.0000 4.1535 -1.1129
         vertex -2.0000 4.1535 1.1129
      endloop
   endfacet
   facet normal -1.0000 0.0000 0.0000
      outer loop
         vertex -2.0000 4.1535 1.1129
         vertex -2.0000 4.1535 -1.1129
         vertex -2.0000 3.7239 -2.1500
      endloop
   endfacet
   facet normal -1.0000 0.0000 0.0000
      outer loop
         vertex -2.0000 4.1535 1.1129
         vertex -2.0000 3.7239 -2.1500
         vertex -2.0000 3.7239 2.1500
      endloop
   endfacet
   facet normal -1.0000 0.0000 0.0000
      outer loop
         vertex -2.0000 3.7239 2.1500
         vertex -2.0000 3.7239 -2.1500
         vertex -2.0000 3.0406 -3.0406
      endloop
   endfacet
   facet normal -1.0000 0.0000 0.0000
      outer loop
         vertex -2.0000 3.7239 2.1500
         vertex -2.0000 3.0406 -3.0406
         vertex -2.0000 3.0406 3.0406
      endloop
   endfacet
   facet normal -1.0000 0.0000 0.0000
      outer loop
         vertex -2.0000 3.0406 3.0406
         vertex -2.0000 3.0406 -3.0406
         vertex -2.0000 2.1500 -3.7239
      endloop
   endfacet
   facet normal -1.0000 0.0000 0.0000
      outer loop
         vertex -2.0000 3.0406 3.0406
         vertex -2.0000 2.1500 -3.7239
         vertex -2.0000 2.1500 3.7239
      endloop
   endfacet
   facet normal -1.0000 0.0000 0.0000
      outer loop
         vertex -2.0000 2.1500 3.7239
         vertex -2.0000 2.1500 -3.7239
         vertex -2.0000 1.7321 0.0000
      endloop
   endfacet
   facet normal -1.0000 0.0000 0.0000
      outer loop
         vertex -2.0000 2.1500 3.7239
         vertex -2.0000 1.7321 0.0000
         vertex -2.0000 1.1129 4.1535
      endloop
   endfacet
   facet normal -1.0000 0.0000 0.0000
      outer loop
         vertex -2.0000 1.1129 4.1535
         vertex -2.0000 1.7321 0.0000
         vertex -2.0000 0.8660 1.5000
      endloop
   endfacet
   facet normal -1.0000 0.0000 0.0000
      outer loop
         vertex -2.0000 1.1129 4.1535
         vertex -2.0000 0.8660 1.5000
         vertex -2.0000 0.0000 4.3000
      endloop
   endfacet
   facet normal -1.0000 0.0000 0.0000
      outer loop
         vertex -2.0000 0.0000 4.3000
         vertex -2.0000 0.8660 1.5000
         vertex -2.0000 -0.8660 1.5000
      endloop
   endfacet
   facet normal -1.0000 0.0000 0.0000
      outer loop
         vertex -2.0000 0.0000 4.3000
         vertex -2.0000 -0.8660 1.5000
         vertex -2.0000 -1.1129 4.1535
      endloop
   endfacet
   facet normal -1.0000 0.0000 0.0000
      outer loop
         vertex -2.0000 -1.1129 4.1535
         vertex -2.0000 -0.8660 1.5000
         vertex -2.0000 -1.7321 -0.0000
      endloop
   endfacet
   facet normal -1.0000 0.0000 0.0000
      outer loop
         vertex -2.0000 -1.1129 4.1535
         vertex -2.0000 -1.7321 -0.0000
         vertex -2.0000 -2.1500 3.7239
      endloop
   endfacet
   facet normal -1.0000 0.0000 0.0000
      outer loop
         vertex -2.0000 -2.1500 3.7239
         vertex -2.0000 -1.7321 -0.0000
         vertex -2.0000 -2.1500 -3.7239
      endloop
   endfacet
   facet normal -1.0000 0.0000 0.0000
      outer loop
         vertex -2.0000 -2.1500 3.7239
         vertex -2.0000 -2.1500 -3.7239
         vertex -2.0000 -3.0406 -3.0406
      endloop
   endfacet
   facet normal -1.0000 0.0000 0.0000
      outer loop
         vertex -2.0000 -2.1500 -3.7239
         vertex -2.0000 -1.7321 -0.0000
         vertex -2.0000 -1.1129 -4.1535
      endloop
   endfacet
   facet normal -1.0000 0.0000 0.0000
      outer loop
         vertex -2.0000 -1.1129 -4.1535
         vertex -2.0000 -1.7321 -0.0000
         vertex -2.0000 -0.8660 -1.5000
      endloop
   endfacet
   facet normal -1.0000 0.0000 0.0000
      outer loop
         vertex -2.0000 -1.1129 -4.1535
         vertex -2.0000 -0.8660 -1.5000
         vertex -2.0000 -0.0000 -4.3000
      endloop
   endfacet
   facet normal -1.0000 0.0000 0.0000
      outer loop
         vertex -2.0000 -0.0000 -4.3000
         vertex -2.0000 -0.8660 -1.5000
         vertex -2.0000 0.8660 -1.5000
      endloop
   endfacet
   facet normal -1.0000 0.0000 0.0000
      outer loop
         vertex -2.0000 -0.0000 -4.3000
         vertex -2.0000 0.8660 -1.5000
         vertex -2.0000 1.1129 -4.1535
      endloop
   endfacet
   facet normal -1.0000 0.0000 0.0000
      outer loop
         vertex -2.0000 1.1129 -4.1535
         vertex -2.0000 0.8660 -1.5000
         vertex -2.0000 1.7321 0.0000
      endloop
   endfacet
   facet normal -1.0000 0.0000 0.0000
      outer loop
         vertex -2.0000 1.1129 -4.1535
         vertex -2.0000 1.7321 0.0000
         vertex -2.0000 2.1500 -3.7239
      endloop
   endfacet
   facet normal -1.0000 0.0000 0.0000
      outer loop
         vertex -2.0000 -4.3000 0.0000
         vertex -2.0000 -4.1535 1.1129
         vertex -2.0000 -4.1535 -1.1129
      endloop
   endfacet
   facet normal -1.0000 0.0000 0.0000
      outer loop
         vertex -2.0000 -4.1535 -1.1129
         vertex -2.0000 -4.1535 1.1129
         vertex -2.0000 -3.7239 2.1500
      endloop
   endfacet
   facet normal -1.0000 0.0000 0.0000
      outer loop
         vertex -2.0000 -4.1535 -1.1129
         vertex -2.0000 -3.7239 2.1500
         vertex -2.0000 -3.7239 -2.1500
      endloop
   endfacet
   facet normal -1.0000 0.0000 0.0000
      outer loop
         vertex -2.0000 -3.7239 -2.1500
         vertex -2.0000 -3.7239 2.1500
         vertex -2.0000 -3.0406 3.0406
      endloop
   endfacet
   facet normal -1.0000 0.0000 0.0000
      outer loop
         vertex -2.0000 -3.7239 -2.1500
         vertex -2.0000 -3.0406 3.0406
         vertex -2.0000 -3.0406 -3.0406
      endloop
   endfacet
   facet normal -1.0000 0.0000 0.0000
      outer loop
         vertex -2.0000 -3.0406 -3.0406
         vertex -2.0000 -3.0406 3.0406
         vertex -2.0000 -2.1500 3.7239
      endloop
   endfacet
   facet normal 1.0000 0.0000 0.0000
      outer loop
         vertex 30.0000 2.3052 -0.6177
         vertex 30.0000 2.3865 0.0000
         vertex 30.0000 2.3052 0.6177
      endloop
   endfacet
   facet normal 1.0000 0.0000 0.0000
      outer loop
         vertex 30.0000 2.3052 -0.6177
         vertex 30.0000 2.3052 0.6177
         vertex 30.0000 2.0668 1.1932
      endloop
   endfacet
   facet normal 1.0000 0.0000 0.0000
      outer loop
         vertex 30.0000 2.3052 -0.6177
         vertex 30.0000 2.0668 1.1932
         vertex 30.0000 1.6875 1.6875
      endloop
   endfacet
   facet normal 1.0000 0.0000 0.0000
      outer loop
         vertex 30.0000 2.3052 -0.6177
         vertex 30.0000 1.6875 1.6875
         vertex 30.0000 1.1932 2.0668
      endloop
   endfacet
   facet normal 1.0000 0.0000 0.0000
      outer loop
         vertex 30.0000 2.3052 -0.6177
         vertex 30.0000 1.1932 2.0668
         vertex 30.0000 0.6177 2.3052
      endloop
   endfacet
   facet normal 1.0000 0.0000 0.0000
      outer loop
         vertex 30.0000 2.3052 -0.6177
         vertex 30.0000 0.6177 2.3052
         vertex 30.0000 0.0000 2.3865
      endloop
   endfacet
   facet normal 1.0000 0.0000 0.0000
      outer loop
         vertex 30.0000 2.3052 -0.6177
         vertex 30.0000 0.0000 2.3865
         vertex 30.0000 -0.6177 2.3052
      endloop
   endfacet
   facet normal 1.0000 0.0000 0.0000
      outer loop
         vertex 30.0000 2.3052 -0.6177
         vertex 30.0000 -0.6177 2.3052
         vertex 30.0000 -1.1932 2.0668
      endloop
   endfacet
   facet normal 1.0000 0.0000 0.0000
      outer loop
         vertex 30.0000 2.3052 -0.6177
         vertex 30.0000 -1.1932 2.0668
         vertex 30.0000 -1.6875 1.6875
      endloop
   endfacet
   facet normal 1.0000 0.0000 0.0000
      outer loop
         vertex 30.0000 2.3052 -0.6177
         vertex 30.0000 -1.6875 1.6875
         vertex 30.0000 -2.0668 1.1932
      endloop
   endfacet
   facet normal 1.0000 0.0000 0.0000
      outer loop
         vertex 30.0000 2.3052 -0.6177
         vertex 30.0000 -2.0668 1.1932
         vertex 30.0000 -2.3052 0.6177
      endloop
   endfacet
   facet normal 1.0000 0.0000 0.0000
      outer loop
         vertex 30.0000 2.3052 -0.6177
         vertex 30.0000 -2.3052 0.6177
         vertex 30.0000 -2.3865 0.0000
      endloop
   endfacet
   facet normal 1.0000 0.0000 0.0000
      outer loop
         vertex 30.0000 2.3052 -0.6177
         vertex 30.0000 -2.3865 0.0000
         vertex 30.0000 -2.3052 -0.6177
      endloop
   endfacet
   facet normal 1.0000 0.0000 0.0000
      outer loop
         vertex 30.0000 2.3052 -0.6177
         vertex 30.0000 -2.3052 -0.6177
         vertex 30.0000 -2.0668 -1.1932
      endloop
   endfacet
   facet normal 1.0000 0.0000 0.0000
      outer loop
         vertex 30.0000 2.3052 -0.6177
         vertex 30.0000 -2.0668 -1.1932
         vertex 30.0000 -1.6875 -1.6875
      endloop
   endfacet
   facet normal 1.0000 0.0000 0.0000
      outer loop
         vertex 30.0000 2.3052 -0.6177
         vertex 30.0000 -1.6875 -1.6875
         vertex 30.0000 -1.1932 -2.0668
      endloop
   endfacet
   facet normal 1.0000 0.0000 0.0000
      outer loop
         vertex 30.0000 2.3052 -0.6177
         vertex 30.0000 -1.1932 -2.0668
         vertex 30.0000 -0.6177 -2.3052
      endloop
   endfacet
   facet normal 1.0000 0.0000 0.0000
      outer loop
         vertex 30.0000 2.3052 -0.6177
         vertex 30.0000 -0.6177 -2.3052
         vertex 30.0000 -0.0000 -2.3865
      endloop
   endfacet
   facet normal 1.0000 0.0000 0.0000
      outer loop
         vertex 30.0000 2.3052 -0.6177
         vertex 30.0000 -0.0000 -2.3865
         vertex 30.0000 0.6177 -2.3052
      endloop
   endfacet
   facet normal 1.0000 0.0000 0.0000
      outer loop
         vertex 30.0000 2.3052 -0.6177
         vertex 30.0000 0.6177 -2.3052
         vertex 30.0000 1.1932 -2.0668
      endloop
   endfacet
   facet normal 1.0000 0.0000 0.0000
      outer loop
         vertex 30.0000 2.3052 -0.6177
         vertex 30.0000 1.1932 -2.0668
         vertex 30.0000 1.6875 -1.6875
      endloop
   endfacet
   facet normal 1.0000 0.0000 0.0000
      outer loop
         vertex 30.0000 2.3052 -0.6177
         vertex 30.0000 1.6875 -1.6875
         vertex 30.0000 2.0668 -1.1932
      endloop
   endfacet
   facet normal 0.0000 0.0869 -0.9962
      outer loop
         vertex -0.5000 -0.0000 -4.5000
         vertex -1.8000 -0.0000 -4.5000
         vertex -1.8000 1.1647 -4.3467
      endloop
   endfacet
   facet normal 0.0000 0.1739 -0.9848
      outer loop
         vertex -0.5000 -0.0000 -4.5000
         vertex -1.8000 1.1647 -4.3467
         vertex -0.5000 1.1647 -4.3467
      endloop
   endfacet
   facet normal 0.0000 0.0869 -0.9962
      outer loop
         vertex 29.3865 -0.0000 -3.0000
         vertex 0.0000 -0.0000 -3.0000
         vertex 0.0000 0.7765 -2.8978
      endloop
   endfacet
   facet normal 0.0000 0.1739 -0.9848
      outer loop
         vertex 29.3865 -0.0000 -3.0000
         vertex 0.0000 0.7765 -2.8978
         vertex 29.3865 0.7765 -2.8978
      endloop
   endfacet
   facet normal 0.7098 0.1225 -0.6937
      outer loop
         vertex 29.3865 0.7765 -2.8978
         vertex 30.0000 0.6177 -2.3052
         vertex 30.0000 -0.0000 -2.3865
      endloop
   endfacet
   facet normal 0.7098 0.0612 -0.7017
      outer loop
         vertex 29.3865 0.7765 -2.8978
         vertex 30.0000 -0.0000 -2.3865
         vertex 29.3865 -0.0000 -3.0000
      endloop
   endfacet
   facet normal -1.0000 0.0000 0.0000
      outer loop
         vertex -0.5000 1.7321 0.0000
         vertex -0.5000 0.8660 -1.5000
         vertex -0.5000 -0.8660 -1.5000
      endloop
   endfacet
   facet normal -1.0000 0.0000 0.0000
      outer loop
         vertex -0.5000 1.7321 0.0000
         vertex -0.5000 -0.8660 -1.5000
         vertex -0.5000 -1.7321 -0.0000
      endloop
   endfacet
   facet normal -1.0000 0.0000 0.0000
      outer loop
         vertex -0.5000 1.7321 0.0000
         vertex -0.5000 -1.7321 -0.0000
         vertex -0.5000 -0.8660 1.5000
      endloop
   endfacet
   facet normal -1.0000 0.0000 0.0000
      outer loop
         vertex -0.5000 1.7321 0.0000
         vertex -0.5000 -0.8660 1.5000
         vertex -0.5000 0.8660 1.5000
      endloop
   endfacet
   facet normal 0.7098 0.0612 -0.7017
      outer loop
         vertex 0.0000 -0.0000 -4.0000
         vertex -0.5000 -0.0000 -4.5000
         vertex -0.5000 1.1647 -4.3467
      endloop
   endfacet
   facet normal 0.7098 0.1225 -0.6937
      outer loop
         vertex 0.0000 -0.0000 -4.0000
         vertex -0.5000 1.1647 -4.3467
         vertex 0.0000 1.0353 -3.8637
      endloop
   endfacet
   facet normal -0.7098 0.0612 -0.7017
      outer loop
         vertex -1.8000 -0.0000 -4.5000
         vertex -2.0000 -0.0000 -4.3000
         vertex -2.0000 1.1129 -4.1535
      endloop
   endfacet
   facet normal -0.7098 0.1225 -0.6937
      outer loop
         vertex -1.8000 -0.0000 -4.5000
         vertex -2.0000 1.1129 -4.1535
         vertex -1.8000 1.1647 -4.3467
      endloop
   endfacet
   facet normal 1.0000 0.0000 0.0000
      outer loop
         vertex 0.0000 4.0000 -0.0000
         vertex -0.0000 3.8637 1.0353
         vertex 0.0000 3.8637 -1.0353
      endloop
   endfacet
   facet normal 1.0000 0.0000 0.0000
      outer loop
         vertex 0.0000 3.8637 -1.0353
         vertex -0.0000 3.8637 1.0353
         vertex 0.0000 3.4641 2.0000
      endloop
   endfacet
   facet normal 1.0000 0.0000 0.0000
      outer loop
         vertex 0.0000 3.8637 -1.0353
         vertex 0.0000 3.4641 2.0000
         vertex 0.0000 3.4641 -2.0000
      endloop
   endfacet
   facet normal 1.0000 0.0000 0.0000
      outer loop
         vertex 0.0000 3.4641 -2.0000
         vertex 0.0000 3.4641 2.0000
         vertex 0.0000 3.0000 0.0000
      endloop
   endfacet
   facet normal 1.0000 0.0000 0.0000
      outer loop
         vertex 0.0000 3.4641 -2.0000
         vertex 0.0000 3.0000 0.0000
         vertex 0.0000 2.8978 -0.7765
      endloop
   endfacet
   facet normal 1.0000 0.0000 0.0000
      outer loop
         vertex 0.0000 2.1213 2.1213
         vertex 0.0000 2.5981 1.5000
         vertex 0.0000 2.8284 2.8284
      endloop
   endfacet
   facet normal 1.0000 0.0000 0.0000
      outer loop
         vertex 0.0000 2.8284 2.8284
         vertex 0.0000 2.5981 1.5000
         vertex 0.0000 2.8978 0.7765
      endloop
   endfacet
   facet normal 1.0000 0.0000 0.0000
      outer loop
         vertex 0.0000 2.8284 2.8284
         vertex 0.0000 2.8978 0.7765
         vertex 0.0000 3.4641 2.0000
      endloop
   endfacet
   facet normal 1.0000 0.0000 0.0000
      outer loop
         vertex 0.0000 3.4641 2.0000
         vertex 0.0000 2.8978 0.7765
         vertex 0.0000 3.0000 0.0000
      endloop
   endfacet
   facet normal 1.0000 0.0000 0.0000
      outer loop
         vertex 0.0000 -0.7765 2.8978
         vertex 0.0000 0.0000 3.0000
         vertex -0.0000 0.0000 4.0000
      endloop
   endfacet
   facet normal 1.0000 0.0000 0.0000
      outer loop
         vertex -0.0000 0.0000 4.0000
         vertex 0.0000 0.0000 3.0000
         vertex 0.0000 0.7765 2.8978
      endloop
   endfacet
   facet normal 1.0000 0.0000 0.0000
      outer loop
         vertex -0.0000 0.0000 4.0000
         vertex 0.0000 0.7765 2.8978
         vertex 0.0000 1.0353 3.8637
      endloop
   endfacet
   facet normal 1.0000 0.0000 0.0000
      outer loop
         vertex 0.0000 1.0353 3.8637
         vertex 0.0000 0.7765 2.8978
         vertex 0.0000 1.5000 2.5981
      endloop
   endfacet
   facet normal 1.0000 0.0000 0.0000
      outer loop
         vertex 0.0000 1.0353 3.8637
         vertex 0.0000 1.5000 2.5981
         vertex -0.0000 2.0000 3.4641
      endloop
   endfacet
   facet normal 1.0000 0.0000 0.0000
      outer loop
         vertex -0.0000 2.0000 3.4641
         vertex 0.0000 1.5000 2.5981
         vertex 0.0000 2.1213 2.1213
      endloop
   endfacet
   facet normal 1.0000 0.0000 0.0000
      outer loop
         vertex -0.0000 2.0000 3.4641
         vertex 0.0000 2.1213 2.1213
         vertex 0.0000 2.8284 2.8284
      endloop
   endfacet
   facet normal 1.0000 0.0000 0.0000
      outer loop
         vertex 0.0000 -2.5981 1.5000
         vertex 0.0000 -2.1213 2.1213
         vertex 0.0000 -2.0000 3.4641
      endloop
   endfacet
   facet normal 1.0000 0.0000 0.0000
      outer loop
         vertex 0.0000 -2.0000 3.4641
         vertex 0.0000 -2.1213 2.1213
         vertex 0.0000 -1.5000 2.5981
      endloop
   endfacet
   facet normal 1.0000 0.0000 0.0000
      outer loop
         vertex 0.0000 -2.0000 3.4641
         vertex 0.0000 -1.5000 2.5981
         vertex 0.0000 -1.0353 3.8637
      endloop
   endfacet
   facet normal 1.0000 0.0000 0.0000
      outer loop
         vertex 0.0000 -1.0353 3.8637
         vertex 0.0000 -1.5000 2.5981
         vertex 0.0000 -0.7765 2.8978
      endloop
   endfacet
   facet normal 1.0000 0.0000 0.0000
      outer loop
         vertex 0.0000 -1.0353 3.8637
         vertex 0.0000 -0.7765 2.8978
         vertex -0.0000 0.0000 4.0000
      endloop
   endfacet
   facet normal 1.0000 0.0000 0.0000
      outer loop
         vertex 0.0000 -2.8284 2.8284
         vertex 0.0000 -3.4641 2.0000
         vertex 0.0000 -3.0000 0.0000
      endloop
   endfacet
   facet normal 1.0000 0.0000 0.0000
      outer loop
         vertex 0.0000 -2.8284 2.8284
         vertex 0.0000 -3.0000 0.0000
         vertex 0.0000 -2.8978 0.7765
      endloop
   endfacet
   facet normal 1.0000 0.0000 0.0000
      outer loop
         vertex 0.0000 -2.8284 2.8284
         vertex 0.0000 -2.8978 0.7765
         vertex 0.0000 -2.5981 1.5000
      endloop
   endfacet
   facet normal 1.0000 0.0000 0.0000
      outer loop
         vertex 0.0000 -2.8284 2.8284
         vertex 0.0000 -2.5981 1.5000
         vertex 0.0000 -2.0000 3.4641
      endloop
   endfacet
   facet normal 1.0000 0.0000 0.0000
      outer loop
         vertex -0.0000 2.8284 -2.8284
         vertex 0.0000 3.4641 -2.0000
         vertex 0.0000 2.8978 -0.7765
      endloop
   endfacet
   facet normal 1.0000 0.0000 0.0000
      outer loop
         vertex -0.0000 2.8284 -2.8284
         vertex 0.0000 2.8978 -0.7765
         vertex 0.0000 2.5981 -1.5000
      endloop
   endfacet
   facet normal 1.0000 0.0000 0.0000
      outer loop
         vertex -0.0000 2.8284 -2.8284
         vertex 0.0000 2.5981 -1.5000
         vertex 0.0000 2.1213 -2.1213
      endloop
   endfacet
   facet normal 1.0000 0.0000 0.0000
      outer loop
         vertex -0.0000 2.8284 -2.8284
         vertex 0.0000 2.1213 -2.1213
         vertex -0.0000 2.0000 -3.4641
      endloop
   endfacet
   facet normal 1.0000 0.0000 0.0000
      outer loop
         vertex 0.0000 1.5000 -2.5981
         vertex 0.0000 0.7765 -2.8978
         vertex 0.0000 1.0353 -3.8637
      endloop
   endfacet
   facet normal 1.0000 0.0000 0.0000
      outer loop
         vertex 0.0000 1.5000 -2.5981
         vertex 0.0000 1.0353 -3.8637
         vertex -0.0000 2.0000 -3.4641
      endloop
   endfacet
   facet normal 1.0000 0.0000 0.0000
      outer loop
         vertex 0.0000 1.5000 -2.5981
         vertex -0.0000 2.0000 -3.4641
         vertex 0.0000 2.1213 -2.1213
      endloop
   endfacet
   facet normal 1.0000 0.0000 0.0000
      outer loop
         vertex 0.0000 -2.1213 -2.1213
         vertex -0.0000 -2.0000 -3.4641
         vertex 0.0000 -1.5000 -2.5981
      endloop
   endfacet
   facet normal 1.0000 0.0000 0.0000
      outer loop
         vertex 0.0000 -1.5000 -2.5981
         vertex -0.0000 -2.0000 -3.4641
         vertex 0.0000 -1.0353 -3.8637
      endloop
   endfacet
   facet normal 1.0000 0.0000 0.0000
      outer loop
         vertex 0.0000 -1.5000 -2.5981
         vertex 0.0000 -1.0353 -3.8637
         vertex 0.0000 -0.7765 -2.8978
      endloop
   endfacet
   facet normal 1.0000 0.0000 0.0000
      outer loop
         vertex 0.0000 -0.7765 -2.8978
         vertex 0.0000 -1.0353 -3.8637
         vertex 0.0000 -0.0000 -4.0000
      endloop
   endfacet
   facet normal 1.0000 0.0000 0.0000
      outer loop
         vertex 0.0000 -0.7765 -2.8978
         vertex 0.0000 -0.0000 -4.0000
         vertex 0.0000 -0.0000 -3.0000
      endloop
   endfacet
   facet normal 1.0000 0.0000 0.0000
      outer loop
         vertex 0.0000 -0.0000 -3.0000
         vertex 0.0000 -0.0000 -4.0000
         vertex 0.0000 1.0353 -3.8637
      endloop
   endfacet
   facet normal 1.0000 0.0000 0.0000
      outer loop
         vertex 0.0000 -0.0000 -3.0000
         vertex 0.0000 1.0353 -3.8637
         vertex 0.0000 0.7765 -2.8978
      endloop
   endfacet
   facet normal 1.0000 0.0000 0.0000
      outer loop
         vertex 0.0000 -2.5981 -1.5000
         vertex 0.0000 -2.8978 -0.7765
         vertex 0.0000 -2.8284 -2.8284
      endloop
   endfacet
   facet normal 1.0000 0.0000 0.0000
      outer loop
         vertex 0.0000 -2.5981 -1.5000
         vertex 0.0000 -2.8284 -2.8284
         vertex -0.0000 -2.0000 -3.4641
      endloop
   endfacet
   facet normal 1.0000 0.0000 0.0000
      outer loop
         vertex 0.0000 -2.5981 -1.5000
         vertex -0.0000 -2.0000 -3.4641
         vertex 0.0000 -2.1213 -2.1213
      endloop
   endfacet
   facet normal 1.0000 0.0000 0.0000
      outer loop
         vertex 0.0000 -4.0000 0.0000
         vertex 0.0000 -3.8637 -1.0353
         vertex -0.0000 -3.8637 1.0353
      endloop
   endfacet
   facet normal 1.0000 0.0000 0.0000
      outer loop
         vertex -0.0000 -3.8637 1.0353
         vertex 0.0000 -3.8637 -1.0353
         vertex -0.0000 -3.4641 -2.0000
      endloop
   endfacet
   facet normal 1.0000 0.0000 0.0000
      outer loop
         vertex -0.0000 -3.8637 1.0353
         vertex -0.0000 -3.4641 -2.0000
         vertex 0.0000 -3.4641 2.0000
      endloop
   endfacet
   facet normal 1.0000 0.0000 0.0000
      outer loop
         vertex 0.0000 -3.4641 2.0000
         vertex -0.0000 -3.4641 -2.0000
         vertex 0.0000 -2.8284 -2.8284
      endloop
   endfacet
   facet normal 1.0000 0.0000 0.0000
      outer loop
         vertex 0.0000 -3.4641 2.0000
         vertex 0.0000 -2.8284 -2.8284
         vertex 0.0000 -3.0000 0.0000
      endloop
   endfacet
   facet normal 1.0000 0.0000 0.0000
      outer loop
         vertex 0.0000 -3.0000 0.0000
         vertex 0.0000 -2.8284 -2.8284
         vertex 0.0000 -2.8978 -0.7765
      endloop
   endfacet
   facet normal 0.0000 0.3418 -0.9398
      outer loop
         vertex -0.5000 1.1647 -4.3467
         vertex -1.8000 1.1647 -4.3467
         vertex -1.8000 2.2500 -3.8971
      endloop
   endfacet
   facet normal 0.0000 0.4228 -0.9062
      outer loop
         vertex -0.5000 1.1647 -4.3467
         vertex -1.8000 2.2500 -3.8971
         vertex -0.5000 2.2500 -3.8971
      endloop
   endfacet
   facet normal 0.0000 0.3418 -0.9398
      outer loop
         vertex 29.3865 0.7765 -2.8978
         vertex 0.0000 0.7765 -2.8978
         vertex 0.0000 1.5000 -2.5981
      endloop
   endfacet
   facet normal 0.0000 0.4228 -0.9062
      outer loop
         vertex 29.3865 0.7765 -2.8978
         vertex 0.0000 1.5000 -2.5981
         vertex 29.3865 1.5000 -2.5981
      endloop
   endfacet
   facet normal 0.7098 0.2408 -0.6620
      outer loop
         vertex 30.0000 1.1932 -2.0668
         vertex 30.0000 0.6177 -2.3052
         vertex 29.3865 0.7765 -2.8978
      endloop
   endfacet
   facet normal 0.7098 0.2978 -0.6383
      outer loop
         vertex 30.0000 1.1932 -2.0668
         vertex 29.3865 0.7765 -2.8978
         vertex 29.3865 1.5000 -2.5981
      endloop
   endfacet
   facet normal 0.7098 0.2408 -0.6620
      outer loop
         vertex 0.0000 1.0353 -3.8637
         vertex -0.5000 1.1647 -4.3467
         vertex -0.5000 2.2500 -3.8971
      endloop
   endfacet
   facet normal 0.7098 0.2978 -0.6383
      outer loop
         vertex 0.0000 1.0353 -3.8637
         vertex -0.5000 2.2500 -3.8971
         vertex -0.0000 2.0000 -3.4641
      endloop
   endfacet
   facet normal -0.7098 0.2978 -0.6383
      outer loop
         vertex -2.0000 1.1129 -4.1535
         vertex -2.0000 2.1500 -3.7239
         vertex -1.8000 2.2500 -3.8971
      endloop
   endfacet
   facet normal -0.7098 0.2408 -0.6620
      outer loop
         vertex -2.0000 1.1129 -4.1535
         vertex -1.8000 2.2500 -3.8971
         vertex -1.8000 1.1647 -4.3467
      endloop
   endfacet
   facet normal 0.0000 0.5734 -0.8193
      outer loop
         vertex -0.5000 2.2500 -3.8971
         vertex -1.8000 2.2500 -3.8971
         vertex -1.8000 3.1820 -3.1820
      endloop
   endfacet
   facet normal 0.0000 0.6430 -0.7659
      outer loop
         vertex -0.5000 2.2500 -3.8971
         vertex -1.8000 3.1820 -3.1820
         vertex -0.5000 3.1820 -3.1820
      endloop
   endfacet
   facet normal 0.0000 0.5734 -0.8193
      outer loop
         vertex 29.3865 1.5000 -2.5981
         vertex 0.0000 1.5000 -2.5981
         vertex 0.0000 2.1213 -2.1213
      endloop
   endfacet
   facet normal 0.0000 0.6430 -0.7659
      outer loop
         vertex 29.3865 1.5000 -2.5981
         vertex 0.0000 2.1213 -2.1213
         vertex 29.3865 2.1213 -2.1213
      endloop
   endfacet
   facet normal 0.7098 0.4039 -0.5771
      outer loop
         vertex 30.0000 1.6875 -1.6875
         vertex 30.0000 1.1932 -2.0668
         vertex 29.3865 1.5000 -2.5981
      endloop
   endfacet
   facet normal 0.7098 0.4529 -0.5395
      outer loop
         vertex 30.0000 1.6875 -1.6875
         vertex 29.3865 1.5000 -2.5981
         vertex 29.3865 2.1213 -2.1213
      endloop
   endfacet
   facet normal 0.0000 -0.8660 0.5000
      outer loop
         vertex -0.5000 0.8660 -1.5000
         vertex -0.5000 1.7321 0.0000
         vertex -2.0000 1.7321 0.0000
      endloop
   endfacet
   facet normal 0.0000 -0.8660 0.5000
      outer loop
         vertex -0.5000 0.8660 -1.5000
         vertex -2.0000 1.7321 0.0000
         vertex -2.0000 0.8660 -1.5000
      endloop
   endfacet
   facet normal 0.7098 0.4039 -0.5771
      outer loop
         vertex -0.0000 2.0000 -3.4641
         vertex -0.5000 2.2500 -3.8971
         vertex -0.5000 3.1820 -3.1820
      endloop
   endfacet
   facet normal 0.7098 0.4529 -0.5395
      outer loop
         vertex -0.0000 2.0000 -3.4641
         vertex -0.5000 3.1820 -3.1820
         vertex -0.0000 2.8284 -2.8284
      endloop
   endfacet
   facet normal -0.7098 0.4039 -0.5771
      outer loop
         vertex -1.8000 3.1820 -3.1820
         vertex -1.8000 2.2500 -3.8971
         vertex -2.0000 2.1500 -3.7239
      endloop
   endfacet
   facet normal -0.7098 0.4529 -0.5395
      outer loop
         vertex -1.8000 3.1820 -3.1820
         vertex -2.0000 2.1500 -3.7239
         vertex -2.0000 3.0406 -3.0406
      endloop
   endfacet
   facet normal 0.0000 0.7659 -0.6430
      outer loop
         vertex -0.5000 3.1820 -3.1820
         vertex -1.8000 3.1820 -3.1820
         vertex -1.8000 3.8971 -2.2500
      endloop
   endfacet
   facet normal 0.0000 0.8193 -0.5734
      outer loop
         vertex -0.5000 3.1820 -3.1820
         vertex -1.8000 3.8971 -2.2500
         vertex -0.5000 3.8971 -2.2500
      endloop
   endfacet
   facet normal 0.0000 0.7659 -0.6430
      outer loop
         vertex 29.3865 2.1213 -2.1213
         vertex 0.0000 2.1213 -2.1213
         vertex 0.0000 2.5981 -1.5000
      endloop
   endfacet
   facet normal 0.0000 0.8193 -0.5734
      outer loop
         vertex 29.3865 2.1213 -2.1213
         vertex 0.0000 2.5981 -1.5000
         vertex 29.3865 2.5981 -1.5000
      endloop
   endfacet
   facet normal 0.7098 0.5395 -0.4529
      outer loop
         vertex 30.0000 2.0668 -1.1932
         vertex 30.0000 1.6875 -1.6875
         vertex 29.3865 2.1213 -2.1213
      endloop
   endfacet
   facet normal 0.7098 0.5771 -0.4039
      outer loop
         vertex 30.0000 2.0668 -1.1932
         vertex 29.3865 2.1213 -2.1213
         vertex 29.3865 2.5981 -1.5000
      endloop
   endfacet
   facet normal 0.7098 0.5395 -0.4529
      outer loop
         vertex -0.0000 2.8284 -2.8284
         vertex -0.5000 3.1820 -3.1820
         vertex -0.5000 3.8971 -2.2500
      endloop
   endfacet
   facet normal 0.7098 0.5771 -0.4039
      outer loop
         vertex -0.0000 2.8284 -2.8284
         vertex -0.5000 3.8971 -2.2500
         vertex 0.0000 3.4641 -2.0000
      endloop
   endfacet
   facet normal -0.7098 0.5395 -0.4529
      outer loop
         vertex -1.8000 3.8971 -2.2500
         vertex -1.8000 3.1820 -3.1820
         vertex -2.0000 3.0406 -3.0406
      endloop
   endfacet
   facet normal -0.7098 0.5771 -0.4039
      outer loop
         vertex -1.8000 3.8971 -2.2500
         vertex -2.0000 3.0406 -3.0406
         vertex -2.0000 3.7239 -2.1500
      endloop
   endfacet
   facet normal 0.0000 0.9062 -0.4228
      outer loop
         vertex -0.5000 3.8971 -2.2500
         vertex -1.8000 3.8971 -2.2500
         vertex -1.8000 4.3467 -1.1647
      endloop
   endfacet
   facet normal 0.0000 0.9398 -0.3418
      outer loop
         vertex -0.5000 3.8971 -2.2500
         vertex -1.8000 4.3467 -1.1647
         vertex -0.5000 4.3467 -1.1647
      endloop
   endfacet
   facet normal 0.0000 0.9062 -0.4228
      outer loop
         vertex 29.3865 2.5981 -1.5000
         vertex 0.0000 2.5981 -1.5000
         vertex 0.0000 2.8978 -0.7765
      endloop
   endfacet
   facet normal 0.0000 0.9398 -0.3418
      outer loop
         vertex 29.3865 2.5981 -1.5000
         vertex 0.0000 2.8978 -0.7765
         vertex 29.3865 2.8978 -0.7765
      endloop
   endfacet
   facet normal 0.7098 0.6383 -0.2978
      outer loop
         vertex 30.0000 2.3052 -0.6177
         vertex 30.0000 2.0668 -1.1932
         vertex 29.3865 2.5981 -1.5000
      endloop
   endfacet
   facet normal 0.7098 0.6620 -0.2408
      outer loop
         vertex 30.0000 2.3052 -0.6177
         vertex 29.3865 2.5981 -1.5000
         vertex 29.3865 2.8978 -0.7765
      endloop
   endfacet
   facet normal 0.7098 0.6383 -0.2978
      outer loop
         vertex 0.0000 3.8637 -1.0353
         vertex 0.0000 3.4641 -2.0000
         vertex -0.5000 3.8971 -2.2500
      endloop
   endfacet
   facet normal 0.7098 0.6620 -0.2408
      outer loop
         vertex 0.0000 3.8637 -1.0353
         vertex -0.5000 3.8971 -2.2500
         vertex -0.5000 4.3467 -1.1647
      endloop
   endfacet
   facet normal -0.7098 0.6383 -0.2978
      outer loop
         vertex -1.8000 4.3467 -1.1647
         vertex -1.8000 3.8971 -2.2500
         vertex -2.0000 3.7239 -2.1500
      endloop
   endfacet
   facet normal -0.7098 0.6620 -0.2408
      outer loop
         vertex -1.8000 4.3467 -1.1647
         vertex -2.0000 3.7239 -2.1500
         vertex -2.0000 4.1535 -1.1129
      endloop
   endfacet
   facet normal 0.0000 0.9848 -0.1739
      outer loop
         vertex -0.5000 4.3467 -1.1647
         vertex -1.8000 4.3467 -1.1647
         vertex -1.8000 4.5000 0.0000
      endloop
   endfacet
   facet normal 0.0000 0.9962 -0.0869
      outer loop
         vertex -0.5000 4.3467 -1.1647
         vertex -1.8000 4.5000 0.0000
         vertex -0.5000 4.5000 0.0000
      endloop
   endfacet
   facet normal 0.0000 0.9848 -0.1739
      outer loop
         vertex 29.3865 2.8978 -0.7765
         vertex 0.0000 2.8978 -0.7765
         vertex 0.0000 3.0000 0.0000
      endloop
   endfacet
   facet normal 0.0000 0.9962 -0.0869
      outer loop
         vertex 29.3865 2.8978 -0.7765
         vertex 0.0000 3.0000 0.0000
         vertex 29.3865 3.0000 0.0000
      endloop
   endfacet
   facet normal 0.7098 0.6937 -0.1225
      outer loop
         vertex 30.0000 2.3052 -0.6177
         vertex 29.3865 2.8978 -0.7765
         vertex 29.3865 3.0000 0.0000
      endloop
   endfacet
   facet normal 0.7098 0.7017 -0.0612
      outer loop
         vertex 30.0000 2.3052 -0.6177
         vertex 29.3865 3.0000 0.0000
         vertex 30.0000 2.3865 0.0000
      endloop
   endfacet
   facet normal 0.7098 0.6937 -0.1225
      outer loop
         vertex 0.0000 3.8637 -1.0353
         vertex -0.5000 4.3467 -1.1647
         vertex -0.5000 4.5000 0.0000
      endloop
   endfacet
   facet normal 0.7098 0.7017 -0.0612
      outer loop
         vertex 0.0000 3.8637 -1.0353
         vertex -0.5000 4.5000 0.0000
         vertex 0.0000 4.0000 -0.0000
      endloop
   endfacet
   facet normal -0.7098 0.6937 -0.1225
      outer loop
         vertex -1.8000 4.5000 0.0000
         vertex -1.8000 4.3467 -1.1647
         vertex -2.0000 4.1535 -1.1129
      endloop
   endfacet
   facet normal -0.7098 0.7017 -0.0612
      outer loop
         vertex -1.8000 4.5000 0.0000
         vertex -2.0000 4.1535 -1.1129
         vertex -2.0000 4.3000 0.0000
      endloop
   endfacet
   facet normal 0.0000 0.9962 0.0869
      outer loop
         vertex -0.5000 4.5000 0.0000
         vertex -1.8000 4.5000 0.0000
         vertex -1.8000 4.3467 1.1647
      endloop
   endfacet
   facet normal 0.0000 0.9848 0.1739
      outer loop
         vertex -0.5000 4.5000 0.0000
         vertex -1.8000 4.3467 1.1647
         vertex -0.5000 4.3467 1.1647
      endloop
   endfacet
   facet normal 0.0000 0.9962 0.0869
      outer loop
         vertex 29.3865 2.8978 0.7765
         vertex 29.3865 3.0000 0.0000
         vertex 0.0000 3.0000 0.0000
      endloop
   endfacet
   facet normal 0.0000 0.9848 0.1739
      outer loop
         vertex 29.3865 2.8978 0.7765
         vertex 0.0000 3.0000 0.0000
         vertex 0.0000 2.8978 0.7765
      endloop
   endfacet
   facet normal 0.7098 0.7017 0.0612
      outer loop
         vertex 30.0000 2.3052 0.6177
         vertex 30.0000 2.3865 0.0000
         vertex 29.3865 3.0000 0.0000
      endloop
   endfacet
   facet normal 0.7098 0.6937 0.1225
      outer loop
         vertex 30.0000 2.3052 0.6177
         vertex 29.3865 3.0000 0.0000
         vertex 29.3865 2.8978 0.7765
      endloop
   endfacet
   facet normal 0.0000 -0.8660 -0.5000
      outer loop
         vertex -0.5000 1.7321 0.0000
         vertex -0.5000 0.8660 1.5000
         vertex -2.0000 0.8660 1.5000
      endloop
   endfacet
   facet normal 0.0000 -0.8660 -0.5000
      outer loop
         vertex -0.5000 1.7321 0.0000
         vertex -2.0000 0.8660 1.5000
         vertex -2.0000 1.7321 0.0000
      endloop
   endfacet
   facet normal 0.7098 0.7017 0.0612
      outer loop
         vertex 0.0000 4.0000 -0.0000
         vertex -0.5000 4.5000 0.0000
         vertex -0.5000 4.3467 1.1647
      endloop
   endfacet
   facet normal 0.7098 0.6937 0.1225
      outer loop
         vertex 0.0000 4.0000 -0.0000
         vertex -0.5000 4.3467 1.1647
         vertex -0.0000 3.8637 1.0353
      endloop
   endfacet
   facet normal -0.7098 0.7017 0.0612
      outer loop
         vertex -1.8000 4.3467 1.1647
         vertex -1.8000 4.5000 0.0000
         vertex -2.0000 4.3000 0.0000
      endloop
   endfacet
   facet normal -0.7098 0.6937 0.1225
      outer loop
         vertex -1.8000 4.3467 1.1647
         vertex -2.0000 4.3000 0.0000
         vertex -2.0000 4.1535 1.1129
      endloop
   endfacet
   facet normal 0.0000 0.9398 0.3418
      outer loop
         vertex -0.5000 4.3467 1.1647
         vertex -1.8000 4.3467 1.1647
         vertex -1.8000 3.8971 2.2500
      endloop
   endfacet
   facet normal 0.0000 0.9062 0.4228
      outer loop
         vertex -0.5000 4.3467 1.1647
         vertex -1.8000 3.8971 2.2500
         vertex -0.5000 3.8971 2.2500
      endloop
   endfacet
   facet normal 0.0000 0.9398 0.3418
      outer loop
         vertex 29.3865 2.5981 1.5000
         vertex 29.3865 2.8978 0.7765
         vertex 0.0000 2.8978 0.7765
      endloop
   endfacet
   facet normal 0.0000 0.9062 0.4228
      outer loop
         vertex 29.3865 2.5981 1.5000
         vertex 0.0000 2.8978 0.7765
         vertex 0.0000 2.5981 1.5000
      endloop
   endfacet
   facet normal 0.7098 0.6620 0.2408
      outer loop
         vertex 30.0000 2.0668 1.1932
         vertex 30.0000 2.3052 0.6177
         vertex 29.3865 2.8978 0.7765
      endloop
   endfacet
   facet normal 0.7098 0.6383 0.2978
      outer loop
         vertex 30.0000 2.0668 1.1932
         vertex 29.3865 2.8978 0.7765
         vertex 29.3865 2.5981 1.5000
      endloop
   endfacet
   facet normal 0.7098 0.6620 0.2408
      outer loop
         vertex 0.0000 3.4641 2.0000
         vertex -0.0000 3.8637 1.0353
         vertex -0.5000 4.3467 1.1647
      endloop
   endfacet
   facet normal 0.7098 0.6383 0.2978
      outer loop
         vertex 0.0000 3.4641 2.0000
         vertex -0.5000 4.3467 1.1647
         vertex -0.5000 3.8971 2.2500
      endloop
   endfacet
   facet normal -0.7098 0.6383 0.2978
      outer loop
         vertex -2.0000 4.1535 1.1129
         vertex -2.0000 3.7239 2.1500
         vertex -1.8000 3.8971 2.2500
      endloop
   endfacet
   facet normal -0.7098 0.6620 0.2408
      outer loop
         vertex -2.0000 4.1535 1.1129
         vertex -1.8000 3.8971 2.2500
         vertex -1.8000 4.3467 1.1647
      endloop
   endfacet
   facet normal 0.0000 0.8193 0.5734
      outer loop
         vertex -0.5000 3.8971 2.2500
         vertex -1.8000 3.8971 2.2500
         vertex -1.8000 3.1820 3.1820
      endloop
   endfacet
   facet normal 0.0000 0.7659 0.6430
      outer loop
         vertex -0.5000 3.8971 2.2500
         vertex -1.8000 3.1820 3.1820
         vertex -0.5000 3.1820 3.1820
      endloop
   endfacet
   facet normal 0.0000 0.8193 0.5734
      outer loop
         vertex 29.3865 2.1213 2.1213
         vertex 29.3865 2.5981 1.5000
         vertex 0.0000 2.5981 1.5000
      endloop
   endfacet
   facet normal 0.0000 0.7659 0.6430
      outer loop
         vertex 29.3865 2.1213 2.1213
         vertex 0.0000 2.5981 1.5000
         vertex 0.0000 2.1213 2.1213
      endloop
   endfacet
   facet normal 0.7098 0.5771 0.4039
      outer loop
         vertex 30.0000 1.6875 1.6875
         vertex 30.0000 2.0668 1.1932
         vertex 29.3865 2.5981 1.5000
      endloop
   endfacet
   facet normal 0.7098 0.5395 0.4529
      outer loop
         vertex 30.0000 1.6875 1.6875
         vertex 29.3865 2.5981 1.5000
         vertex 29.3865 2.1213 2.1213
      endloop
   endfacet
   facet normal 0.7098 0.5771 0.4039
      outer loop
         vertex 0.0000 3.4641 2.0000
         vertex -0.5000 3.8971 2.2500
         vertex -0.5000 3.1820 3.1820
      endloop
   endfacet
   facet normal 0.7098 0.5395 0.4529
      outer loop
         vertex 0.0000 3.4641 2.0000
         vertex -0.5000 3.1820 3.1820
         vertex 0.0000 2.8284 2.8284
      endloop
   endfacet
   facet normal -0.7098 0.5771 0.4039
      outer loop
         vertex -1.8000 3.1820 3.1820
         vertex -1.8000 3.8971 2.2500
         vertex -2.0000 3.7239 2.1500
      endloop
   endfacet
   facet normal -0.7098 0.5395 0.4529
      outer loop
         vertex -1.8000 3.1820 3.1820
         vertex -2.0000 3.7239 2.1500
         vertex -2.0000 3.0406 3.0406
      endloop
   endfacet
   facet normal 0.0000 0.6430 0.7659
      outer loop
         vertex -0.5000 3.1820 3.1820
         vertex -1.8000 3.1820 3.1820
         vertex -1.8000 2.2500 3.8971
      endloop
   endfacet
   facet normal 0.0000 0.5734 0.8193
      outer loop
         vertex -0.5000 3.1820 3.1820
         vertex -1.8000 2.2500 3.8971
         vertex -0.5000 2.2500 3.8971
      endloop
   endfacet
   facet normal 0.0000 0.6430 0.7659
      outer loop
         vertex 29.3865 1.5000 2.5981
         vertex 29.3865 2.1213 2.1213
         vertex 0.0000 2.1213 2.1213
      endloop
   endfacet
   facet normal 0.0000 0.5734 0.8193
      outer loop
         vertex 29.3865 1.5000 2.5981
         vertex 0.0000 2.1213 2.1213
         vertex 0.0000 1.5000 2.5981
      endloop
   endfacet
   facet normal 0.7098 0.4529 0.5395
      outer loop
         vertex 30.0000 1.1932 2.0668
         vertex 30.0000 1.6875 1.6875
         vertex 29.3865 2.1213 2.1213
      endloop
   endfacet
   facet normal 0.7098 0.4039 0.5771
      outer loop
         vertex 30.0000 1.1932 2.0668
         vertex 29.3865 2.1213 2.1213
         vertex 29.3865 1.5000 2.5981
      endloop
   endfacet
   facet normal 0.7098 0.4529 0.5395
      outer loop
         vertex 0.0000 2.8284 2.8284
         vertex -0.5000 3.1820 3.1820
         vertex -0.5000 2.2500 3.8971
      endloop
   endfacet
   facet normal 0.7098 0.4039 0.5771
      outer loop
         vertex 0.0000 2.8284 2.8284
         vertex -0.5000 2.2500 3.8971
         vertex -0.0000 2.0000 3.4641
      endloop
   endfacet
   facet normal -0.7098 0.4529 0.5395
      outer loop
         vertex -1.8000 2.2500 3.8971
         vertex -1.8000 3.1820 3.1820
         vertex -2.0000 3.0406 3.0406
      endloop
   endfacet
   facet normal -0.7098 0.4039 0.5771
      outer loop
         vertex -1.8000 2.2500 3.8971
         vertex -2.0000 3.0406 3.0406
         vertex -2.0000 2.1500 3.7239
      endloop
   endfacet
   facet normal 0.0000 0.4228 0.9062
      outer loop
         vertex -0.5000 2.2500 3.8971
         vertex -1.8000 2.2500 3.8971
         vertex -1.8000 1.1647 4.3467
      endloop
   endfacet
   facet normal 0.0000 0.3418 0.9398
      outer loop
         vertex -0.5000 2.2500 3.8971
         vertex -1.8000 1.1647 4.3467
         vertex -0.5000 1.1647 4.3467
      endloop
   endfacet
   facet normal 0.0000 0.4228 0.9062
      outer loop
         vertex 29.3865 0.7765 2.8978
         vertex 29.3865 1.5000 2.5981
         vertex 0.0000 1.5000 2.5981
      endloop
   endfacet
   facet normal 0.0000 0.3418 0.9398
      outer loop
         vertex 29.3865 0.7765 2.8978
         vertex 0.0000 1.5000 2.5981
         vertex 0.0000 0.7765 2.8978
      endloop
   endfacet
   facet normal 0.7098 0.2978 0.6383
      outer loop
         vertex 30.0000 0.6177 2.3052
         vertex 30.0000 1.1932 2.0668
         vertex 29.3865 1.5000 2.5981
      endloop
   endfacet
   facet normal 0.7098 0.2408 0.6620
      outer loop
         vertex 30.0000 0.6177 2.3052
         vertex 29.3865 1.5000 2.5981
         vertex 29.3865 0.7765 2.8978
      endloop
   endfacet
   facet normal 0.0000 0.0000 -1.0000
      outer loop
         vertex -0.5000 0.8660 1.5000
         vertex -0.5000 -0.8660 1.5000
         vertex -2.0000 -0.8660 1.5000
      endloop
   endfacet
   facet normal 0.0000 0.0000 -1.0000
      outer loop
         vertex -0.5000 0.8660 1.5000
         vertex -2.0000 -0.8660 1.5000
         vertex -2.0000 0.8660 1.5000
      endloop
   endfacet
   facet normal 0.7098 0.2978 0.6383
      outer loop
         vertex 0.0000 1.0353 3.8637
         vertex -0.0000 2.0000 3.4641
         vertex -0.5000 2.2500 3.8971
      endloop
   endfacet
   facet normal 0.7098 0.2408 0.6620
      outer loop
         vertex 0.0000 1.0353 3.8637
         vertex -0.5000 2.2500 3.8971
         vertex -0.5000 1.1647 4.3467
      endloop
   endfacet
   facet normal -0.7098 0.2978 0.6383
      outer loop
         vertex -1.8000 1.1647 4.3467
         vertex -1.8000 2.2500 3.8971
         vertex -2.0000 2.1500 3.7239
      endloop
   endfacet
   facet normal -0.7098 0.2408 0.6620
      outer loop
         vertex -1.8000 1.1647 4.3467
         vertex -2.0000 2.1500 3.7239
         vertex -2.0000 1.1129 4.1535
      endloop
   endfacet
   facet normal 0.0000 0.1739 0.9848
      outer loop
         vertex -0.5000 1.1647 4.3467
         vertex -1.8000 1.1647 4.3467
         vertex -1.8000 0.0000 4.5000
      endloop
   endfacet
   facet normal 0.0000 0.0869 0.9962
      outer loop
         vertex -0.5000 1.1647 4.3467
         vertex -1.8000 0.0000 4.5000
         vertex -0.5000 0.0000 4.5000
      endloop
   endfacet
   facet normal 0.0000 0.1739 0.9848
      outer loop
         vertex 29.3865 0.0000 3.0000
         vertex 29.3865 0.7765 2.8978
         vertex 0.0000 0.7765 2.8978
      endloop
   endfacet
   facet normal 0.0000 0.0869 0.9962
      outer loop
         vertex 29.3865 0.0000 3.0000
         vertex 0.0000 0.7765 2.8978
         vertex 0.0000 0.0000 3.0000
      endloop
   endfacet
   facet normal 0.7098 0.1225 0.6937
      outer loop
         vertex 30.0000 0.0000 2.3865
         vertex 30.0000 0.6177 2.3052
         vertex 29.3865 0.7765 2.8978
      endloop
   endfacet
   facet normal 0.7098 0.0612 0.7017
      outer loop
         vertex 30.0000 0.0000 2.3865
         vertex 29.3865 0.7765 2.8978
         vertex 29.3865 0.0000 3.0000
      endloop
   endfacet
   facet normal 0.7098 0.1225 0.6937
      outer loop
         vertex 0.0000 1.0353 3.8637
         vertex -0.5000 1.1647 4.3467
         vertex -0.5000 0.0000 4.5000
      endloop
   endfacet
   facet normal 0.7098 0.0612 0.7017
      outer loop
         vertex 0.0000 1.0353 3.8637
         vertex -0.5000 0.0000 4.5000
         vertex -0.0000 0.0000 4.0000
      endloop
   endfacet
   facet normal -0.7098 0.1225 0.6937
      outer loop
         vertex -1.8000 0.0000 4.5000
         vertex -1.8000 1.1647 4.3467
         vertex -2.0000 1.1129 4.1535
      endloop
   endfacet
   facet normal -0.7098 0.0612 0.7017
      outer loop
         vertex -1.8000 0.0000 4.5000
         vertex -2.0000 1.1129 4.1535
         vertex -2.0000 0.0000 4.3000
      endloop
   endfacet
   facet normal 0.0000 -0.0869 0.9962
      outer loop
         vertex -0.5000 0.0000 4.5000
         vertex -1.8000 0.0000 4.5000
         vertex -1.8000 -1.1647 4.3467
      endloop
   endfacet
   facet normal 0.0000 -0.1739 0.9848
      outer loop
         vertex -0.5000 0.0000 4.5000
         vertex -1.8000 -1.1647 4.3467
         vertex -0.5000 -1.1647 4.3467
      endloop
   endfacet
   facet normal 0.0000 -0.0869 0.9962
      outer loop
         vertex 29.3865 -0.7765 2.8978
         vertex 29.3865 0.0000 3.0000
         vertex 0.0000 0.0000 3.0000
      endloop
   endfacet
   facet normal 0.0000 -0.1739 0.9848
      outer loop
         vertex 29.3865 -0.7765 2.8978
         vertex 0.0000 0.0000 3.0000
         vertex 0.0000 -0.7765 2.8978
      endloop
   endfacet
   facet normal 0.7098 -0.0612 0.7017
      outer loop
         vertex 30.0000 -0.6177 2.3052
         vertex 30.0000 0.0000 2.3865
         vertex 29.3865 0.0000 3.0000
      endloop
   endfacet
   facet normal 0.7098 -0.1225 0.6937
      outer loop
         vertex 30.0000 -0.6177 2.3052
         vertex 29.3865 0.0000 3.0000
         vertex 29.3865 -0.7765 2.8978
      endloop
   endfacet
   facet normal 0.7098 -0.0612 0.7017
      outer loop
         vertex -0.0000 0.0000 4.0000
         vertex -0.5000 0.0000 4.5000
         vertex -0.5000 -1.1647 4.3467
      endloop
   endfacet
   facet normal 0.7098 -0.1225 0.6937
      outer loop
         vertex -0.0000 0.0000 4.0000
         vertex -0.5000 -1.1647 4.3467
         vertex 0.0000 -1.0353 3.8637
      endloop
   endfacet
   facet normal -0.7098 -0.0612 0.7017
      outer loop
         vertex -1.8000 -1.1647 4.3467
         vertex -1.8000 0.0000 4.5000
         vertex -2.0000 0.0000 4.3000
      endloop
   endfacet
   facet normal -0.7098 -0.1225 0.6937
      outer loop
         vertex -1.8000 -1.1647 4.3467
         vertex -2.0000 0.0000 4.3000
         vertex -2.0000 -1.1129 4.1535
      endloop
   endfacet
   facet normal 0.0000 -0.3418 0.9398
      outer loop
         vertex -0.5000 -1.1647 4.3467
         vertex -1.8000 -1.1647 4.3467
         vertex -1.8000 -2.2500 3.8971
      endloop
   endfacet
   facet normal 0.0000 -0.4228 0.9062
      outer loop
         vertex -0.5000 -1.1647 4.3467
         vertex -1.8000 -2.2500 3.8971
         vertex -0.5000 -2.2500 3.8971
      endloop
   endfacet
   facet normal 0.0000 -0.3418 0.9398
      outer loop
         vertex 29.3865 -1.5000 2.5981
         vertex 29.3865 -0.7765 2.8978
         vertex 0.0000 -0.7765 2.8978
      endloop
   endfacet
   facet normal 0.0000 -0.4228 0.9062
      outer loop
         vertex 29.3865 -1.5000 2.5981
         vertex 0.0000 -0.7765 2.8978
         vertex 0.0000 -1.5000 2.5981
      endloop
   endfacet
   facet normal 0.7098 -0.2408 0.6620
      outer loop
         vertex 30.0000 -1.1932 2.0668
         vertex 30.0000 -0.6177 2.3052
         vertex 29.3865 -0.7765 2.8978
      endloop
   endfacet
   facet normal 0.7098 -0.2978 0.6383
      outer loop
         vertex 30.0000 -1.1932 2.0668
         vertex 29.3865 -0.7765 2.8978
         vertex 29.3865 -1.5000 2.5981
      endloop
   endfacet
   facet normal 0.7098 -0.2408 0.6620
      outer loop
         vertex 0.0000 -1.0353 3.8637
         vertex -0.5000 -1.1647 4.3467
         vertex -0.5000 -2.2500 3.8971
      endloop
   endfacet
   facet normal 0.7098 -0.2978 0.6383
      outer loop
         vertex 0.0000 -1.0353 3.8637
         vertex -0.5000 -2.2500 3.8971
         vertex 0.0000 -2.0000 3.4641
      endloop
   endfacet
   facet normal -0.7098 -0.2408 0.6620
      outer loop
         vertex -1.8000 -2.2500 3.8971
         vertex -1.8000 -1.1647 4.3467
         vertex -2.0000 -1.1129 4.1535
      endloop
   endfacet
   facet normal -0.7098 -0.2978 0.6383
      outer loop
         vertex -1.8000 -2.2500 3.8971
         vertex -2.0000 -1.1129 4.1535
         vertex -2.0000 -2.1500 3.7239
      endloop
   endfacet
   facet normal 0.0000 -0.5734 0.8193
      outer loop
         vertex -0.5000 -2.2500 3.8971
         vertex -1.8000 -2.2500 3.8971
         vertex -1.8000 -3.1820 3.1820
      endloop
   endfacet
   facet normal 0.0000 -0.6430 0.7659
      outer loop
         vertex -0.5000 -2.2500 3.8971
         vertex -1.8000 -3.1820 3.1820
         vertex -0.5000 -3.1820 3.1820
      endloop
   endfacet
   facet normal 0.0000 -0.5734 0.8193
      outer loop
         vertex 29.3865 -2.1213 2.1213
         vertex 29.3865 -1.5000 2.5981
         vertex 0.0000 -1.5000 2.5981
      endloop
   endfacet
   facet normal 0.0000 -0.6430 0.7659
      outer loop
         vertex 29.3865 -2.1213 2.1213
         vertex 0.0000 -1.5000 2.5981
         vertex 0.0000 -2.1213 2.1213
      endloop
   endfacet
   facet normal 0.7098 -0.4039 0.5771
      outer loop
         vertex 30.0000 -1.6875 1.6875
         vertex 30.0000 -1.1932 2.0668
         vertex 29.3865 -1.5000 2.5981
      endloop
   endfacet
   facet normal 0.7098 -0.4529 0.5395
      outer loop
         vertex 30.0000 -1.6875 1.6875
         vertex 29.3865 -1.5000 2.5981
         vertex 29.3865 -2.1213 2.1213
      endloop
   endfacet
   facet normal 0.0000 0.8660 -0.5000
      outer loop
         vertex -0.5000 -0.8660 1.5000
         vertex -0.5000 -1.7321 -0.0000
         vertex -2.0000 -1.7321 -0.0000
      endloop
   endfacet
   facet normal 0.0000 0.8660 -0.5000
      outer loop
         vertex -0.5000 -0.8660 1.5000
         vertex -2.0000 -1.7321 -0.0000
         vertex -2.0000 -0.8660 1.5000
      endloop
   endfacet
   facet normal 0.7098 -0.4039 0.5771
      outer loop
         vertex 0.0000 -2.0000 3.4641
         vertex -0.5000 -2.2500 3.8971
         vertex -0.5000 -3.1820 3.1820
      endloop
   endfacet
   facet normal 0.7098 -0.4529 0.5395
      outer loop
         vertex 0.0000 -2.0000 3.4641
         vertex -0.5000 -3.1820 3.1820
         vertex 0.0000 -2.8284 2.8284
      endloop
   endfacet
   facet normal -0.7098 -0.4039 0.5771
      outer loop
         vertex -1.8000 -3.1820 3.1820
         vertex -1.8000 -2.2500 3.8971
         vertex -2.0000 -2.1500 3.7239
      endloop
   endfacet
   facet normal -0.7098 -0.4529 0.5395
      outer loop
         vertex -1.8000 -3.1820 3.1820
         vertex -2.0000 -2.1500 3.7239
         vertex -2.0000 -3.0406 3.0406
      endloop
   endfacet
   facet normal 0.0000 -0.7659 0.6430
      outer loop
         vertex -0.5000 -3.1820 3.1820
         vertex -1.8000 -3.1820 3.1820
         vertex -1.8000 -3.8971 2.2500
      endloop
   endfacet
   facet normal 0.0000 -0.8193 0.5734
      outer loop
         vertex -0.5000 -3.1820 3.1820
         vertex -1.8000 -3.8971 2.2500
         vertex -0.5000 -3.8971 2.2500
      endloop
   endfacet
   facet normal 0.0000 -0.7659 0.6430
      outer loop
         vertex 29.3865 -2.5981 1.5000
         vertex 29.3865 -2.1213 2.1213
         vertex 0.0000 -2.1213 2.1213
      endloop
   endfacet
   facet normal 0.0000 -0.8193 0.5734
      outer loop
         vertex 29.3865 -2.5981 1.5000
         vertex 0.0000 -2.1213 2.1213
         vertex 0.0000 -2.5981 1.5000
      endloop
   endfacet
   facet normal 0.7098 -0.5395 0.4529
      outer loop
         vertex 30.0000 -2.0668 1.1932
         vertex 30.0000 -1.6875 1.6875
         vertex 29.3865 -2.1213 2.1213
      endloop
   endfacet
   facet normal 0.7098 -0.5771 0.4039
      outer loop
         vertex 30.0000 -2.0668 1.1932
         vertex 29.3865 -2.1213 2.1213
         vertex 29.3865 -2.5981 1.5000
      endloop
   endfacet
   facet normal 0.7098 -0.5395 0.4529
      outer loop
         vertex 0.0000 -2.8284 2.8284
         vertex -0.5000 -3.1820 3.1820
         vertex -0.5000 -3.8971 2.2500
      endloop
   endfacet
   facet normal 0.7098 -0.5771 0.4039
      outer loop
         vertex 0.0000 -2.8284 2.8284
         vertex -0.5000 -3.8971 2.2500
         vertex 0.0000 -3.4641 2.0000
      endloop
   endfacet
   facet normal -0.7098 -0.5395 0.4529
      outer loop
         vertex -1.8000 -3.8971 2.2500
         vertex -1.8000 -3.1820 3.1820
         vertex -2.0000 -3.0406 3.0406
      endloop
   endfacet
   facet normal -0.7098 -0.5771 0.4039
      outer loop
         vertex -1.8000 -3.8971 2.2500
         vertex -2.0000 -3.0406 3.0406
         vertex -2.0000 -3.7239 2.1500
      endloop
   endfacet
   facet normal 0.0000 -0.9062 0.4228
      outer loop
         vertex -0.5000 -3.8971 2.2500
         vertex -1.8000 -3.8971 2.2500
         vertex -1.8000 -4.3467 1.1647
      endloop
   endfacet
   facet normal 0.0000 -0.9398 0.3418
      outer loop
         vertex -0.5000 -3.8971 2.2500
         vertex -1.8000 -4.3467 1.1647
         vertex -0.5000 -4.3467 1.1647
      endloop
   endfacet
   facet normal 0.0000 -0.9062 0.4228
      outer loop
         vertex 29.3865 -2.8978 0.7765
         vertex 29.3865 -2.5981 1.5000
         vertex 0.0000 -2.5981 1.5000
      endloop
   endfacet
   facet normal 0.0000 -0.9398 0.3418
      outer loop
         vertex 29.3865 -2.8978 0.7765
         vertex 0.0000 -2.5981 1.5000
         vertex 0.0000 -2.8978 0.7765
      endloop
   endfacet
   facet normal 0.7098 -0.6383 0.2978
      outer loop
         vertex 30.0000 -2.3052 0.6177
         vertex 30.0000 -2.0668 1.1932
         vertex 29.3865 -2.5981 1.5000
      endloop
   endfacet
   facet normal 0.7098 -0.6620 0.2408
      outer loop
         vertex 30.0000 -2.3052 0.6177
         vertex 29.3865 -2.5981 1.5000
         vertex 29.3865 -2.8978 0.7765
      endloop
   endfacet
   facet normal 0.7098 -0.6383 0.2978
      outer loop
         vertex -0.0000 -3.8637 1.0353
         vertex 0.0000 -3.4641 2.0000
         vertex -0.5000 -3.8971 2.2500
      endloop
   endfacet
   facet normal 0.7098 -0.6620 0.2408
      outer loop
         vertex -0.0000 -3.8637 1.0353
         vertex -0.5000 -3.8971 2.2500
         vertex -0.5000 -4.3467 1.1647
      endloop
   endfacet
   facet normal -0.7098 -0.6620 0.2408
      outer loop
         vertex -2.0000 -3.7239 2.1500
         vertex -2.0000 -4.1535 1.1129
         vertex -1.8000 -4.3467 1.1647
      endloop
   endfacet
   facet normal -0.7098 -0.6383 0.2978
      outer loop
         vertex -2.0000 -3.7239 2.1500
         vertex -1.8000 -4.3467 1.1647
         vertex -1.8000 -3.8971 2.2500
      endloop
   endfacet
   facet normal 0.0000 -0.9848 0.1739
      outer loop
         vertex -0.5000 -4.3467 1.1647
         vertex -1.8000 -4.3467 1.1647
         vertex -1.8000 -4.5000 0.0000
      endloop
   endfacet
   facet normal 0.0000 -0.9962 0.0869
      outer loop
         vertex -0.5000 -4.3467 1.1647
         vertex -1.8000 -4.5000 0.0000
         vertex -0.5000 -4.5000 0.0000
      endloop
   endfacet
   facet normal 0.0000 -0.9848 0.1739
      outer loop
         vertex 29.3865 -3.0000 0.0000
         vertex 29.3865 -2.8978 0.7765
         vertex 0.0000 -2.8978 0.7765
      endloop
   endfacet
   facet normal 0.0000 -0.9962 0.0869
      outer loop
         vertex 29.3865 -3.0000 0.0000
         vertex 0.0000 -2.8978 0.7765
         vertex 0.0000 -3.0000 0.0000
      endloop
   endfacet
   facet normal 0.7098 -0.6937 0.1225
      outer loop
         vertex 30.0000 -2.3865 0.0000
         vertex 30.0000 -2.3052 0.6177
         vertex 29.3865 -2.8978 0.7765
      endloop
   endfacet
   facet normal 0.7098 -0.7017 0.0612
      outer loop
         vertex 30.0000 -2.3865 0.0000
         vertex 29.3865 -2.8978 0.7765
         vertex 29.3865 -3.0000 0.0000
      endloop
   endfacet
   facet normal 0.7098 -0.6937 0.1225
      outer loop
         vertex -0.0000 -3.8637 1.0353
         vertex -0.5000 -4.3467 1.1647
         vertex -0.5000 -4.5000 0.0000
      endloop
   endfacet
   facet normal 0.7098 -0.7017 0.0612
      outer loop
         vertex -0.0000 -3.8637 1.0353
         vertex -0.5000 -4.5000 0.0000
         vertex 0.0000 -4.0000 0.0000
      endloop
   endfacet
   facet normal -0.7098 -0.6937 0.1225
      outer loop
         vertex -1.8000 -4.5000 0.0000
         vertex -1.8000 -4.3467 1.1647
         vertex -2.0000 -4.1535 1.1129
      endloop
   endfacet
   facet normal -0.7098 -0.7017 0.0612
      outer loop
         vertex -1.8000 -4.5000 0.0000
         vertex -2.0000 -4.1535 1.1129
         vertex -2.0000 -4.3000 0.0000
      endloop
   endfacet
   facet normal 0.0000 -0.9962 -0.0869
      outer loop
         vertex -0.5000 -4.5000 0.0000
         vertex -1.8000 -4.5000 0.0000
         vertex -1.8000 -4.3467 -1.1647
      endloop
   endfacet
   facet normal 0.0000 -0.9848 -0.1739
      outer loop
         vertex -0.5000 -4.5000 0.0000
         vertex -1.8000 -4.3467 -1.1647
         vertex -0.5000 -4.3467 -1.1647
      endloop
   endfacet
   facet normal 0.0000 -0.9848 -0.1739
      outer loop
         vertex 0.0000 -3.0000 0.0000
         vertex 0.0000 -2.8978 -0.7765
         vertex 29.3865 -2.8978 -0.7765
      endloop
   endfacet
   facet normal 0.0000 -0.9962 -0.0869
      outer loop
         vertex 0.0000 -3.0000 0.0000
         vertex 29.3865 -2.8978 -0.7765
         vertex 29.3865 -3.0000 0.0000
      endloop
   endfacet
   facet normal 0.7098 -0.7017 -0.0612
      outer loop
         vertex 30.0000 -2.3052 -0.6177
         vertex 30.0000 -2.3865 0.0000
         vertex 29.3865 -3.0000 0.0000
      endloop
   endfacet
   facet normal 0.7098 -0.6937 -0.1225
      outer loop
         vertex 30.0000 -2.3052 -0.6177
         vertex 29.3865 -3.0000 0.0000
         vertex 29.3865 -2.8978 -0.7765
      endloop
   endfacet
   facet normal 0.0000 0.8660 0.5000
      outer loop
         vertex -2.0000 -0.8660 -1.5000
         vertex -2.0000 -1.7321 -0.0000
         vertex -0.5000 -1.7321 -0.0000
      endloop
   endfacet
   facet normal 0.0000 0.8660 0.5000
      outer loop
         vertex -2.0000 -0.8660 -1.5000
         vertex -0.5000 -1.7321 -0.0000
         vertex -0.5000 -0.8660 -1.5000
      endloop
   endfacet
   facet normal 0.7098 -0.7017 -0.0612
      outer loop
         vertex 0.0000 -3.8637 -1.0353
         vertex 0.0000 -4.0000 0.0000
         vertex -0.5000 -4.5000 0.0000
      endloop
   endfacet
   facet normal 0.7098 -0.6937 -0.1225
      outer loop
         vertex 0.0000 -3.8637 -1.0353
         vertex -0.5000 -4.5000 0.0000
         vertex -0.5000 -4.3467 -1.1647
      endloop
   endfacet
   facet normal -0.7098 -0.7017 -0.0612
      outer loop
         vertex -1.8000 -4.3467 -1.1647
         vertex -1.8000 -4.5000 0.0000
         vertex -2.0000 -4.3000 0.0000
      endloop
   endfacet
   facet normal -0.7098 -0.6937 -0.1225
      outer loop
         vertex -1.8000 -4.3467 -1.1647
         vertex -2.0000 -4.3000 0.0000
         vertex -2.0000 -4.1535 -1.1129
      endloop
   endfacet
   facet normal 0.0000 -0.9398 -0.3418
      outer loop
         vertex -0.5000 -4.3467 -1.1647
         vertex -1.8000 -4.3467 -1.1647
         vertex -1.8000 -3.8971 -2.2500
      endloop
   endfacet
   facet normal 0.0000 -0.9062 -0.4228
      outer loop
         vertex -0.5000 -4.3467 -1.1647
         vertex -1.8000 -3.8971 -2.2500
         vertex -0.5000 -3.8971 -2.2500
      endloop
   endfacet
   facet normal 0.0000 -0.9062 -0.4228
      outer loop
         vertex 0.0000 -2.8978 -0.7765
         vertex 0.0000 -2.5981 -1.5000
         vertex 29.3865 -2.5981 -1.5000
      endloop
   endfacet
   facet normal 0.0000 -0.9398 -0.3418
      outer loop
         vertex 0.0000 -2.8978 -0.7765
         vertex 29.3865 -2.5981 -1.5000
         vertex 29.3865 -2.8978 -0.7765
      endloop
   endfacet
   facet normal 0.7098 -0.6620 -0.2408
      outer loop
         vertex 30.0000 -2.0668 -1.1932
         vertex 30.0000 -2.3052 -0.6177
         vertex 29.3865 -2.8978 -0.7765
      endloop
   endfacet
   facet normal 0.7098 -0.6383 -0.2978
      outer loop
         vertex 30.0000 -2.0668 -1.1932
         vertex 29.3865 -2.8978 -0.7765
         vertex 29.3865 -2.5981 -1.5000
      endloop
   endfacet
   facet normal 0.7098 -0.6620 -0.2408
      outer loop
         vertex 0.0000 -3.8637 -1.0353
         vertex -0.5000 -4.3467 -1.1647
         vertex -0.5000 -3.8971 -2.2500
      endloop
   endfacet
   facet normal 0.7098 -0.6383 -0.2978
      outer loop
         vertex 0.0000 -3.8637 -1.0353
         vertex -0.5000 -3.8971 -2.2500
         vertex -0.0000 -3.4641 -2.0000
      endloop
   endfacet
   facet normal -0.7098 -0.6383 -0.2978
      outer loop
         vertex -2.0000 -4.1535 -1.1129
         vertex -2.0000 -3.7239 -2.1500
         vertex -1.8000 -3.8971 -2.2500
      endloop
   endfacet
   facet normal -0.7098 -0.6620 -0.2408
      outer loop
         vertex -2.0000 -4.1535 -1.1129
         vertex -1.8000 -3.8971 -2.2500
         vertex -1.8000 -4.3467 -1.1647
      endloop
   endfacet
   facet normal 0.0000 -0.8193 -0.5734
      outer loop
         vertex -0.5000 -3.8971 -2.2500
         vertex -1.8000 -3.8971 -2.2500
         vertex -1.8000 -3.1820 -3.1820
      endloop
   endfacet
   facet normal 0.0000 -0.7659 -0.6430
      outer loop
         vertex -0.5000 -3.8971 -2.2500
         vertex -1.8000 -3.1820 -3.1820
         vertex -0.5000 -3.1820 -3.1820
      endloop
   endfacet
   facet normal 0.0000 -0.8193 -0.5734
      outer loop
         vertex 29.3865 -2.5981 -1.5000
         vertex 0.0000 -2.5981 -1.5000
         vertex 0.0000 -2.1213 -2.1213
      endloop
   endfacet
   facet normal 0.0000 -0.7659 -0.6430
      outer loop
         vertex 29.3865 -2.5981 -1.5000
         vertex 0.0000 -2.1213 -2.1213
         vertex 29.3865 -2.1213 -2.1213
      endloop
   endfacet
   facet normal 0.7098 -0.5771 -0.4039
      outer loop
         vertex 30.0000 -1.6875 -1.6875
         vertex 30.0000 -2.0668 -1.1932
         vertex 29.3865 -2.5981 -1.5000
      endloop
   endfacet
   facet normal 0.7098 -0.5395 -0.4529
      outer loop
         vertex 30.0000 -1.6875 -1.6875
         vertex 29.3865 -2.5981 -1.5000
         vertex 29.3865 -2.1213 -2.1213
      endloop
   endfacet
   facet normal 0.7098 -0.5771 -0.4039
      outer loop
         vertex -0.0000 -3.4641 -2.0000
         vertex -0.5000 -3.8971 -2.2500
         vertex -0.5000 -3.1820 -3.1820
      endloop
   endfacet
   facet normal 0.7098 -0.5395 -0.4529
      outer loop
         vertex -0.0000 -3.4641 -2.0000
         vertex -0.5000 -3.1820 -3.1820
         vertex 0.0000 -2.8284 -2.8284
      endloop
   endfacet
   facet normal -0.7098 -0.5771 -0.4039
      outer loop
         vertex -1.8000 -3.1820 -3.1820
         vertex -1.8000 -3.8971 -2.2500
         vertex -2.0000 -3.7239 -2.1500
      endloop
   endfacet
   facet normal -0.7098 -0.5395 -0.4529
      outer loop
         vertex -1.8000 -3.1820 -3.1820
         vertex -2.0000 -3.7239 -2.1500
         vertex -2.0000 -3.0406 -3.0406
      endloop
   endfacet
   facet normal 0.0000 -0.6430 -0.7659
      outer loop
         vertex -0.5000 -3.1820 -3.1820
         vertex -1.8000 -3.1820 -3.1820
         vertex -1.8000 -2.2500 -3.8971
      endloop
   endfacet
   facet normal 0.0000 -0.5734 -0.8193
      outer loop
         vertex -0.5000 -3.1820 -3.1820
         vertex -1.8000 -2.2500 -3.8971
         vertex -0.5000 -2.2500 -3.8971
      endloop
   endfacet
   facet normal 0.0000 -0.6430 -0.7659
      outer loop
         vertex 29.3865 -2.1213 -2.1213
         vertex 0.0000 -2.1213 -2.1213
         vertex 0.0000 -1.5000 -2.5981
      endloop
   endfacet
   facet normal 0.0000 -0.5734 -0.8193
      outer loop
         vertex 29.3865 -2.1213 -2.1213
         vertex 0.0000 -1.5000 -2.5981
         vertex 29.3865 -1.5000 -2.5981
      endloop
   endfacet
   facet normal 0.7098 -0.4529 -0.5395
      outer loop
         vertex 30.0000 -1.1932 -2.0668
         vertex 30.0000 -1.6875 -1.6875
         vertex 29.3865 -2.1213 -2.1213
      endloop
   endfacet
   facet normal 0.7098 -0.4039 -0.5771
      outer loop
         vertex 30.0000 -1.1932 -2.0668
         vertex 29.3865 -2.1213 -2.1213
         vertex 29.3865 -1.5000 -2.5981
      endloop
   endfacet
   facet normal 0.7098 -0.4529 -0.5395
      outer loop
         vertex 0.0000 -2.8284 -2.8284
         vertex -0.5000 -3.1820 -3.1820
         vertex -0.5000 -2.2500 -3.8971
      endloop
   endfacet
   facet normal 0.7098 -0.4039 -0.5771
      outer loop
         vertex 0.0000 -2.8284 -2.8284
         vertex -0.5000 -2.2500 -3.8971
         vertex -0.0000 -2.0000 -3.4641
      endloop
   endfacet
   facet normal -0.7098 -0.4529 -0.5395
      outer loop
         vertex -1.8000 -2.2500 -3.8971
         vertex -1.8000 -3.1820 -3.1820
         vertex -2.0000 -3.0406 -3.0406
      endloop
   endfacet
   facet normal -0.7098 -0.4039 -0.5771
      outer loop
         vertex -1.8000 -2.2500 -3.8971
         vertex -2.0000 -3.0406 -3.0406
         vertex -2.0000 -2.1500 -3.7239
      endloop
   endfacet
   facet normal 0.0000 -0.4228 -0.9062
      outer loop
         vertex -0.5000 -2.2500 -3.8971
         vertex -1.8000 -2.2500 -3.8971
         vertex -1.8000 -1.1647 -4.3467
      endloop
   endfacet
   facet normal 0.0000 -0.3418 -0.9398
      outer loop
         vertex -0.5000 -2.2500 -3.8971
         vertex -1.8000 -1.1647 -4.3467
         vertex -0.5000 -1.1647 -4.3467
      endloop
   endfacet
   facet normal 0.0000 -0.4228 -0.9062
      outer loop
         vertex 29.3865 -1.5000 -2.5981
         vertex 0.0000 -1.5000 -2.5981
         vertex 0.0000 -0.7765 -2.8978
      endloop
   endfacet
   facet normal 0.0000 -0.3418 -0.9398
      outer loop
         vertex 29.3865 -1.5000 -2.5981
         vertex 0.0000 -0.7765 -2.8978
         vertex 29.3865 -0.7765 -2.8978
      endloop
   endfacet
   facet normal 0.7098 -0.2978 -0.6383
      outer loop
         vertex 30.0000 -0.6177 -2.3052
         vertex 30.0000 -1.1932 -2.0668
         vertex 29.3865 -1.5000 -2.5981
      endloop
   endfacet
   facet normal 0.7098 -0.2408 -0.6620
      outer loop
         vertex 30.0000 -0.6177 -2.3052
         vertex 29.3865 -1.5000 -2.5981
         vertex 29.3865 -0.7765 -2.8978
      endloop
   endfacet
   facet normal 0.0000 0.0000 1.0000
      outer loop
         vertex -2.0000 0.8660 -1.5000
         vertex -2.0000 -0.8660 -1.5000
         vertex -0.5000 -0.8660 -1.5000
      endloop
   endfacet
   facet normal 0.0000 0.0000 1.0000
      outer loop
         vertex -2.0000 0.8660 -1.5000
         vertex -0.5000 -0.8660 -1.5000
         vertex -0.5000 0.8660 -1.5000
      endloop
   endfacet
   facet normal 0.7098 -0.2978 -0.6383
      outer loop
         vertex 0.0000 -1.0353 -3.8637
         vertex -0.0000 -2.0000 -3.4641
         vertex -0.5000 -2.2500 -3.8971
      endloop
   endfacet
   facet normal 0.7098 -0.2408 -0.6620
      outer loop
         vertex 0.0000 -1.0353 -3.8637
         vertex -0.5000 -2.2500 -3.8971
         vertex -0.5000 -1.1647 -4.3467
      endloop
   endfacet
   facet normal -0.7098 -0.2978 -0.6383
      outer loop
         vertex -1.8000 -1.1647 -4.3467
         vertex -1.8000 -2.2500 -3.8971
         vertex -2.0000 -2.1500 -3.7239
      endloop
   endfacet
   facet normal -0.7098 -0.2408 -0.6620
      outer loop
         vertex -1.8000 -1.1647 -4.3467
         vertex -2.0000 -2.1500 -3.7239
         vertex -2.0000 -1.1129 -4.1535
      endloop
   endfacet
   facet normal 0.0000 -0.1739 -0.9848
      outer loop
         vertex -0.5000 -1.1647 -4.3467
         vertex -1.8000 -1.1647 -4.3467
         vertex -1.8000 -0.0000 -4.5000
      endloop
   endfacet
   facet normal 0.0000 -0.0869 -0.9962
      outer loop
         vertex -0.5000 -1.1647 -4.3467
         vertex -1.8000 -0.0000 -4.5000
         vertex -0.5000 -0.0000 -4.5000
      endloop
   endfacet
   facet normal 0.0000 -0.1739 -0.9848
      outer loop
         vertex 29.3865 -0.7765 -2.8978
         vertex 0.0000 -0.7765 -2.8978
         vertex 0.0000 -0.0000 -3.0000
      endloop
   endfacet
   facet normal 0.0000 -0.0869 -0.9962
      outer loop
         vertex 29.3865 -0.7765 -2.8978
         vertex 0.0000 -0.0000 -3.0000
         vertex 29.3865 -0.0000 -3.0000
      endloop
   endfacet
   facet normal 0.7098 -0.1225 -0.6937
      outer loop
         vertex 30.0000 -0.0000 -2.3865
         vertex 30.0000 -0.6177 -2.3052
         vertex 29.3865 -0.7765 -2.8978
      endloop
   endfacet
   facet normal 0.7098 -0.0612 -0.7017
      outer loop
         vertex 30.0000 -0.0000 -2.3865
         vertex 29.3865 -0.7765 -2.8978
         vertex 29.3865 -0.0000 -3.0000
      endloop
   endfacet
   facet normal 0.7098 -0.1225 -0.6937
      outer loop
         vertex 0.0000 -1.0353 -3.8637
         vertex -0.5000 -1.1647 -4.3467
         vertex -0.5000 -0.0000 -4.5000
      endloop
   endfacet
   facet normal 0.7098 -0.0612 -0.7017
      outer loop
         vertex 0.0000 -1.0353 -3.8637
         vertex -0.5000 -0.0000 -4.5000
         vertex 0.0000 -0.0000 -4.0000
      endloop
   endfacet
   facet normal -0.7098 -0.1225 -0.6937
      outer loop
         vertex -1.8000 -0.0000 -4.5000
         vertex -1.8000 -1.1647 -4.3467
         vertex -2.0000 -1.1129 -4.1535
      endloop
   endfacet
   facet normal -0.7098 -0.0612 -0.7017
      outer loop
         vertex -1.8000 -0.0000 -4.5000
         vertex -2.0000 -1.1129 -4.1535
         vertex -2.0000 -0.0000 -4.3000
      endloop
   endfacet
endsolid
