solid PARTassembly
   facet normal -1.0000 0.0000 0.0000
      outer loop
         vertex 0.0000 8.0000 0.0000
         vertex 0.0000 7.7274 -2.0706
         vertex 0.0000 7.7274 2.0706
      endloop
   endfacet
   facet normal -1.0000 0.0000 0.0000
      outer loop
         vertex 0.0000 7.7274 2.0706
         vertex 0.0000 7.7274 -2.0706
         vertex 0.0000 6.9282 -4.0000
      endloop
   endfacet
   facet normal -1.0000 0.0000 0.0000
      outer loop
         vertex 0.0000 7.7274 2.0706
         vertex 0.0000 6.9282 -4.0000
         vertex 0.0000 6.9282 4.0000
      endloop
   endfacet
   facet normal -1.0000 0.0000 0.0000
      outer loop
         vertex 0.0000 6.9282 4.0000
         vertex 0.0000 6.9282 -4.0000
         vertex 0.0000 5.6569 -5.6569
      endloop
   endfacet
   facet normal -1.0000 0.0000 0.0000
      outer loop
         vertex 0.0000 6.9282 4.0000
         vertex 0.0000 5.6569 -5.6569
         vertex 0.0000 5.6569 5.6569
      endloop
   endfacet
   facet normal -1.0000 0.0000 0.0000
      outer loop
         vertex 0.0000 5.6569 5.6569
         vertex 0.0000 5.6569 -5.6569
         vertex 0.0000 5.0000 0.0000
      endloop
   endfacet
   facet normal -1.0000 0.0000 0.0000
      outer loop
         vertex 0.0000 5.6569 5.6569
         vertex 0.0000 5.0000 0.0000
         vertex 0.0000 4.8296 1.2941
      endloop
   endfacet
   facet normal -1.0000 0.0000 0.0000
      outer loop
         vertex 0.0000 2.5000 -4.3301
         vertex 0.0000 3.5355 -3.5355
         vertex 0.0000 4.0000 -6.9282
      endloop
   endfacet
   facet normal -1.0000 0.0000 0.0000
      outer loop
         vertex 0.0000 4.0000 -6.9282
         vertex 0.0000 3.5355 -3.5355
         vertex 0.0000 4.3301 -2.5000
      endloop
   endfacet
   facet normal -1.0000 0.0000 0.0000
      outer loop
         vertex 0.0000 4.0000 -6.9282
         vertex 0.0000 4.3301 -2.5000
         vertex 0.0000 5.6569 -5.6569
      endloop
   endfacet
   facet normal -1.0000 0.0000 0.0000
      outer loop
         vertex 0.0000 5.6569 -5.6569
         vertex 0.0000 4.3301 -2.5000
         vertex 0.0000 4.8296 -1.2941
      endloop
   endfacet
   facet normal -1.0000 0.0000 0.0000
      outer loop
         vertex 0.0000 5.6569 -5.6569
         vertex 0.0000 4.8296 -1.2941
         vertex 0.0000 5.0000 0.0000
      endloop
   endfacet
   facet normal -1.0000 0.0000 0.0000
      outer loop
         vertex 0.0000 2.0706 -7.7274
         vertex 0.0000 -0.0000 -8.0000
         vertex 0.0000 -0.0000 -5.0000
      endloop
   endfacet
   facet normal -1.0000 0.0000 0.0000
      outer loop
         vertex 0.0000 2.0706 -7.7274
         vertex 0.0000 -0.0000 -5.0000
         vertex 0.0000 1.2941 -4.8296
      endloop
   endfacet
   facet normal -1.0000 0.0000 0.0000
      outer loop
         vertex 0.0000 2.0706 -7.7274
         vertex 0.0000 1.2941 -4.8296
         vertex 0.0000 2.5000 -4.3301
      endloop
   endfacet
   facet normal -1.0000 0.0000 0.0000
      outer loop
         vertex 0.0000 2.0706 -7.7274
         vertex 0.0000 2.5000 -4.3301
         vertex 0.0000 4.0000 -6.9282
      endloop
   endfacet
   facet normal -1.0000 0.0000 0.0000
      outer loop
         vertex 0.0000 -3.5355 -3.5355
         vertex 0.0000 -2.5000 -4.3301
         vertex 0.0000 -2.0706 -7.7274
      endloop
   endfacet
   facet normal -1.0000 0.0000 0.0000
      outer loop
         vertex 0.0000 -2.0706 -7.7274
         vertex 0.0000 -2.5000 -4.3301
         vertex 0.0000 -1.2941 -4.8296
      endloop
   endfacet
   facet normal -1.0000 0.0000 0.0000
      outer loop
         vertex 0.0000 -2.0706 -7.7274
         vertex 0.0000 -1.2941 -4.8296
         vertex 0.0000 -0.0000 -8.0000
      endloop
   endfacet
   facet normal -1.0000 0.0000 0.0000
      outer loop
         vertex 0.0000 -0.0000 -8.0000
         vertex 0.0000 -1.2941 -4.8296
         vertex 0.0000 -0.0000 -5.0000
      endloop
   endfacet
   facet normal -1.0000 0.0000 0.0000
      outer loop
         vertex 0.0000 -4.0000 -6.9282
         vertex 0.0000 -5.6569 -5.6569
         vertex 0.0000 -4.8296 -1.2941
      endloop
   endfacet
   facet normal -1.0000 0.0000 0.0000
      outer loop
         vertex 0.0000 -4.0000 -6.9282
         vertex 0.0000 -4.8296 -1.2941
         vertex 0.0000 -4.3301 -2.5000
      endloop
   endfacet
   facet normal -1.0000 0.0000 0.0000
      outer loop
         vertex 0.0000 -4.0000 -6.9282
         vertex 0.0000 -4.3301 -2.5000
         vertex 0.0000 -3.5355 -3.5355
      endloop
   endfacet
   facet normal -1.0000 0.0000 0.0000
      outer loop
         vertex 0.0000 -4.0000 -6.9282
         vertex 0.0000 -3.5355 -3.5355
         vertex 0.0000 -2.0706 -7.7274
      endloop
   endfacet
   facet normal -1.0000 0.0000 0.0000
      outer loop
         vertex 0.0000 -8.0000 0.0000
         vertex 0.0000 -7.7274 2.0706
         vertex 0.0000 -7.7274 -2.0706
      endloop
   endfacet
   facet normal -1.0000 0.0000 0.0000
      outer loop
         vertex 0.0000 -7.7274 -2.0706
         vertex 0.0000 -7.7274 2.0706
         vertex 0.0000 -6.9282 4.0000
      endloop
   endfacet
   facet normal -1.0000 0.0000 0.0000
      outer loop
         vertex 0.0000 -7.7274 -2.0706
         vertex 0.0000 -6.9282 4.0000
         vertex 0.0000 -6.9282 -4.0000
      endloop
   endfacet
   facet normal -1.0000 0.0000 0.0000
      outer loop
         vertex 0.0000 -6.9282 -4.0000
         vertex 0.0000 -6.9282 4.0000
         vertex 0.0000 -5.6569 5.6569
      endloop
   endfacet
   facet normal -1.0000 0.0000 0.0000
      outer loop
         vertex 0.0000 -6.9282 -4.0000
         vertex 0.0000 -5.6569 5.6569
         vertex 0.0000 -5.6569 -5.6569
      endloop
   endfacet
   facet normal -1.0000 0.0000 0.0000
      outer loop
         vertex 0.0000 -5.6569 -5.6569
         vertex 0.0000 -5.6569 5.6569
         vertex 0.0000 -5.0000 0.0000
      endloop
   endfacet
   facet normal -1.0000 0.0000 0.0000
      outer loop
         vertex 0.0000 -5.6569 -5.6569
         vertex 0.0000 -5.0000 0.0000
         vertex 0.0000 -4.8296 -1.2941
      endloop
   endfacet
   facet normal -1.0000 0.0000 0.0000
      outer loop
         vertex 0.0000 4.3301 2.5000
         vertex 0.0000 3.5355 3.5355
         vertex 0.0000 4.0000 6.9282
      endloop
   endfacet
   facet normal -1.0000 0.0000 0.0000
      outer loop
         vertex 0.0000 4.3301 2.5000
         vertex 0.0000 4.0000 6.9282
         vertex 0.0000 5.6569 5.6569
      endloop
   endfacet
   facet normal -1.0000 0.0000 0.0000
      outer loop
         vertex 0.0000 4.3301 2.5000
         vertex 0.0000 5.6569 5.6569
         vertex 0.0000 4.8296 1.2941
      endloop
   endfacet
   facet normal -1.0000 0.0000 0.0000
      outer loop
         vertex 0.0000 0.0000 5.0000
         vertex 0.0000 0.0000 8.0000
         vertex 0.0000 1.2941 4.8296
      endloop
   endfacet
   facet normal -1.0000 0.0000 0.0000
      outer loop
         vertex 0.0000 1.2941 4.8296
         vertex 0.0000 0.0000 8.0000
         vertex 0.0000 2.0706 7.7274
      endloop
   endfacet
   facet normal -1.0000 0.0000 0.0000
      outer loop
         vertex 0.0000 1.2941 4.8296
         vertex 0.0000 2.0706 7.7274
         vertex 0.0000 2.5000 4.3301
      endloop
   endfacet
   facet normal -1.0000 0.0000 0.0000
      outer loop
         vertex 0.0000 2.5000 4.3301
         vertex 0.0000 2.0706 7.7274
         vertex 0.0000 4.0000 6.9282
      endloop
   endfacet
   facet normal -1.0000 0.0000 0.0000
      outer loop
         vertex 0.0000 2.5000 4.3301
         vertex 0.0000 4.0000 6.9282
         vertex 0.0000 3.5355 3.5355
      endloop
   endfacet
   facet normal -1.0000 0.0000 0.0000
      outer loop
         vertex 0.0000 -1.2941 4.8296
         vertex 0.0000 -2.5000 4.3301
         vertex 0.0000 -2.0706 7.7274
      endloop
   endfacet
   facet normal -1.0000 0.0000 0.0000
      outer loop
         vertex 0.0000 -1.2941 4.8296
         vertex 0.0000 -2.0706 7.7274
         vertex 0.0000 0.0000 8.0000
      endloop
   endfacet
   facet normal -1.0000 0.0000 0.0000
      outer loop
         vertex 0.0000 -1.2941 4.8296
         vertex 0.0000 0.0000 8.0000
         vertex 0.0000 0.0000 5.0000
      endloop
   endfacet
   facet normal -1.0000 0.0000 0.0000
      outer loop
         vertex 0.0000 -3.5355 3.5355
         vertex 0.0000 -4.3301 2.5000
         vertex 0.0000 -4.0000 6.9282
      endloop
   endfacet
   facet normal -1.0000 0.0000 0.0000
      outer loop
         vertex 0.0000 -3.5355 3.5355
         vertex 0.0000 -4.0000 6.9282
         vertex 0.0000 -2.0706 7.7274
      endloop
   endfacet
   facet normal -1.0000 0.0000 0.0000
      outer loop
         vertex 0.0000 -3.5355 3.5355
         vertex 0.0000 -2.0706 7.7274
         vertex 0.0000 -2.5000 4.3301
      endloop
   endfacet
   facet normal -1.0000 0.0000 0.0000
      outer loop
         vertex 0.0000 -4.8296 1.2941
         vertex 0.0000 -5.0000 0.0000
         vertex 0.0000 -5.6569 5.6569
      endloop
   endfacet
   facet normal -1.0000 0.0000 0.0000
      outer loop
         vertex 0.0000 -4.8296 1.2941
         vertex 0.0000 -5.6569 5.6569
         vertex 0.0000 -4.0000 6.9282
      endloop
   endfacet
   facet normal -1.0000 0.0000 0.0000
      outer loop
         vertex 0.0000 -4.8296 1.2941
         vertex 0.0000 -4.0000 6.9282
         vertex 0.0000 -4.3301 2.5000
      endloop
   endfacet
   facet normal 1.0000 0.0000 0.0000
      outer loop
         vertex 4.0000 8.0000 0.0000
         vertex 4.0000 7.7274 2.0706
         vertex 4.0000 7.7274 -2.0706
      endloop
   endfacet
   facet normal 1.0000 0.0000 0.0000
      outer loop
         vertex 4.0000 7.7274 -2.0706
         vertex 4.0000 7.7274 2.0706
         vertex 4.0000 6.9282 4.0000
      endloop
   endfacet
   facet normal 1.0000 0.0000 0.0000
      outer loop
         vertex 4.0000 7.7274 -2.0706
         vertex 4.0000 6.9282 4.0000
         vertex 4.0000 6.9282 -4.0000
      endloop
   endfacet
   facet normal 1.0000 0.0000 0.0000
      outer loop
         vertex 4.0000 6.9282 -4.0000
         vertex 4.0000 6.9282 4.0000
         vertex 4.0000 5.6569 5.6569
      endloop
   endfacet
   facet normal 1.0000 0.0000 0.0000
      outer loop
         vertex 4.0000 6.9282 -4.0000
         vertex 4.0000 5.6569 5.6569
         vertex 4.0000 5.6569 -5.6569
      endloop
   endfacet
   facet normal 1.0000 0.0000 0.0000
      outer loop
         vertex 4.0000 5.6569 -5.6569
         vertex 4.0000 5.6569 5.6569
         vertex 4.0000 5.0000 0.0000
      endloop
   endfacet
   facet normal 1.0000 0.0000 0.0000
      outer loop
         vertex 4.0000 5.6569 -5.6569
         vertex 4.0000 5.0000 0.0000
         vertex 4.0000 4.8296 -1.2941
      endloop
   endfacet
   facet normal 1.0000 0.0000 0.0000
      outer loop
         vertex 4.0000 2.5000 4.3301
         vertex 4.0000 3.5355 3.5355
         vertex 4.0000 4.0000 6.9282
      endloop
   endfacet
   facet normal 1.0000 0.0000 0.0000
      outer loop
         vertex 4.0000 4.0000 6.9282
         vertex 4.0000 3.5355 3.5355
         vertex 4.0000 4.3301 2.5000
      endloop
   endfacet
   facet normal 1.0000 0.0000 0.0000
      outer loop
         vertex 4.0000 4.0000 6.9282
         vertex 4.0000 4.3301 2.5000
         vertex 4.0000 5.6569 5.6569
      endloop
   endfacet
   facet normal 1.0000 0.0000 0.0000
      outer loop
         vertex 4.0000 5.6569 5.6569
         vertex 4.0000 4.3301 2.5000
         vertex 4.0000 4.8296 1.2941
      endloop
   endfacet
   facet normal 1.0000 0.0000 0.0000
      outer loop
         vertex 4.0000 5.6569 5.6569
         vertex 4.0000 4.8296 1.2941
         vertex 4.0000 5.0000 0.0000
      endloop
   endfacet
   facet normal 1.0000 0.0000 0.0000
      outer loop
         vertex 4.0000 -1.2941 4.8296
         vertex 4.0000 0.0000 5.0000
         vertex 4.0000 0.0000 8.0000
      endloop
   endfacet
   facet normal 1.0000 0.0000 0.0000
      outer loop
         vertex 4.0000 0.0000 8.0000
         vertex 4.0000 0.0000 5.0000
         vertex 4.0000 1.2941 4.8296
      endloop
   endfacet
   facet normal 1.0000 0.0000 0.0000
      outer loop
         vertex 4.0000 0.0000 8.0000
         vertex 4.0000 1.2941 4.8296
         vertex 4.0000 2.0706 7.7274
      endloop
   endfacet
   facet normal 1.0000 0.0000 0.0000
      outer loop
         vertex 4.0000 2.0706 7.7274
         vertex 4.0000 1.2941 4.8296
         vertex 4.0000 2.5000 4.3301
      endloop
   endfacet
   facet normal 1.0000 0.0000 0.0000
      outer loop
         vertex 4.0000 2.0706 7.7274
         vertex 4.0000 2.5000 4.3301
         vertex 4.0000 4.0000 6.9282
      endloop
   endfacet
   facet normal 1.0000 0.0000 0.0000
      outer loop
         vertex 4.0000 -2.0706 7.7274
         vertex 4.0000 -4.0000 6.9282
         vertex 4.0000 -3.5355 3.5355
      endloop
   endfacet
   facet normal 1.0000 0.0000 0.0000
      outer loop
         vertex 4.0000 -2.0706 7.7274
         vertex 4.0000 -3.5355 3.5355
         vertex 4.0000 -2.5000 4.3301
      endloop
   endfacet
   facet normal 1.0000 0.0000 0.0000
      outer loop
         vertex 4.0000 -2.0706 7.7274
         vertex 4.0000 -2.5000 4.3301
         vertex 4.0000 -1.2941 4.8296
      endloop
   endfacet
   facet normal 1.0000 0.0000 0.0000
      outer loop
         vertex 4.0000 -2.0706 7.7274
         vertex 4.0000 -1.2941 4.8296
         vertex 4.0000 0.0000 8.0000
      endloop
   endfacet
   facet normal 1.0000 0.0000 0.0000
      outer loop
         vertex 4.0000 -3.5355 -3.5355
         vertex 4.0000 -4.3301 -2.5000
         vertex 4.0000 -4.0000 -6.9282
      endloop
   endfacet
   facet normal 1.0000 0.0000 0.0000
      outer loop
         vertex 4.0000 -4.0000 -6.9282
         vertex 4.0000 -4.3301 -2.5000
         vertex 4.0000 -4.8296 -1.2941
      endloop
   endfacet
   facet normal 1.0000 0.0000 0.0000
      outer loop
         vertex 4.0000 -4.0000 -6.9282
         vertex 4.0000 -4.8296 -1.2941
         vertex 4.0000 -5.6569 -5.6569
      endloop
   endfacet
   facet normal 1.0000 0.0000 0.0000
      outer loop
         vertex 4.0000 -5.6569 -5.6569
         vertex 4.0000 -4.8296 -1.2941
         vertex 4.0000 -5.0000 0.0000
      endloop
   endfacet
   facet normal 1.0000 0.0000 0.0000
      outer loop
         vertex 4.0000 -5.6569 -5.6569
         vertex 4.0000 -5.0000 0.0000
         vertex 4.0000 -5.6569 5.6569
      endloop
   endfacet
   facet normal 1.0000 0.0000 0.0000
      outer loop
         vertex 4.0000 -5.6569 5.6569
         vertex 4.0000 -5.0000 0.0000
         vertex 4.0000 -4.8296 1.2941
      endloop
   endfacet
   facet normal 1.0000 0.0000 0.0000
      outer loop
         vertex 4.0000 -5.6569 5.6569
         vertex 4.0000 -4.8296 1.2941
         vertex 4.0000 -4.0000 6.9282
      endloop
   endfacet
   facet normal 1.0000 0.0000 0.0000
      outer loop
         vertex 4.0000 -4.0000 6.9282
         vertex 4.0000 -4.8296 1.2941
         vertex 4.0000 -4.3301 2.5000
      endloop
   endfacet
   facet normal 1.0000 0.0000 0.0000
      outer loop
         vertex 4.0000 -4.0000 6.9282
         vertex 4.0000 -4.3301 2.5000
         vertex 4.0000 -3.5355 3.5355
      endloop
   endfacet
   facet normal 1.0000 0.0000 0.0000
      outer loop
         vertex 4.0000 4.3301 -2.5000
         vertex 4.0000 3.5355 -3.5355
         vertex 4.0000 4.0000 -6.9282
      endloop
   endfacet
   facet normal 1.0000 0.0000 0.0000
      outer loop
         vertex 4.0000 4.3301 -2.5000
         vertex 4.0000 4.0000 -6.9282
         vertex 4.0000 5.6569 -5.6569
      endloop
   endfacet
   facet normal 1.0000 0.0000 0.0000
      outer loop
         vertex 4.0000 4.3301 -2.5000
         vertex 4.0000 5.6569 -5.6569
         vertex 4.0000 4.8296 -1.2941
      endloop
   endfacet
   facet normal 1.0000 0.0000 0.0000
      outer loop
         vertex 4.0000 2.5000 -4.3301
         vertex 4.0000 1.2941 -4.8296
         vertex 4.0000 2.0706 -7.7274
      endloop
   endfacet
   facet normal 1.0000 0.0000 0.0000
      outer loop
         vertex 4.0000 2.5000 -4.3301
         vertex 4.0000 2.0706 -7.7274
         vertex 4.0000 4.0000 -6.9282
      endloop
   endfacet
   facet normal 1.0000 0.0000 0.0000
      outer loop
         vertex 4.0000 2.5000 -4.3301
         vertex 4.0000 4.0000 -6.9282
         vertex 4.0000 3.5355 -3.5355
      endloop
   endfacet
   facet normal 1.0000 0.0000 0.0000
      outer loop
         vertex 4.0000 -2.5000 -4.3301
         vertex 4.0000 -2.0706 -7.7274
         vertex 4.0000 -1.2941 -4.8296
      endloop
   endfacet
   facet normal 1.0000 0.0000 0.0000
      outer loop
         vertex 4.0000 -1.2941 -4.8296
         vertex 4.0000 -2.0706 -7.7274
         vertex 4.0000 -0.0000 -8.0000
      endloop
   endfacet
   facet normal 1.0000 0.0000 0.0000
      outer loop
         vertex 4.0000 -1.2941 -4.8296
         vertex 4.0000 -0.0000 -8.0000
         vertex 4.0000 -0.0000 -5.0000
      endloop
   endfacet
   facet normal 1.0000 0.0000 0.0000
      outer loop
         vertex 4.0000 -0.0000 -5.0000
         vertex 4.0000 -0.0000 -8.0000
         vertex 4.0000 2.0706 -7.7274
      endloop
   endfacet
   facet normal 1.0000 0.0000 0.0000
      outer loop
         vertex 4.0000 -0.0000 -5.0000
         vertex 4.0000 2.0706 -7.7274
         vertex 4.0000 1.2941 -4.8296
      endloop
   endfacet
   facet normal 1.0000 0.0000 0.0000
      outer loop
         vertex 4.0000 -3.5355 -3.5355
         vertex 4.0000 -4.0000 -6.9282
         vertex 4.0000 -2.0706 -7.7274
      endloop
   endfacet
   facet normal 1.0000 0.0000 0.0000
      outer loop
         vertex 4.0000 -3.5355 -3.5355
         vertex 4.0000 -2.0706 -7.7274
         vertex 4.0000 -2.5000 -4.3301
      endloop
   endfacet
   facet normal 1.0000 0.0000 0.0000
      outer loop
         vertex 4.0000 -8.0000 0.0000
         vertex 4.0000 -7.7274 -2.0706
         vertex 4.0000 -7.7274 2.0706
      endloop
   endfacet
   facet normal 1.0000 0.0000 0.0000
      outer loop
         vertex 4.0000 -7.7274 2.0706
         vertex 4.0000 -7.7274 -2.0706
         vertex 4.0000 -6.9282 -4.0000
      endloop
   endfacet
   facet normal 1.0000 0.0000 0.0000
      outer loop
         vertex 4.0000 -7.7274 2.0706
         vertex 4.0000 -6.9282 -4.0000
         vertex 4.0000 -6.9282 4.0000
      endloop
   endfacet
   facet normal 1.0000 0.0000 0.0000
      outer loop
         vertex 4.0000 -6.9282 4.0000
         vertex 4.0000 -6.9282 -4.0000
         vertex 4.0000 -5.6569 -5.6569
      endloop
   endfacet
   facet normal 1.0000 0.0000 0.0000
      outer loop
         vertex 4.0000 -6.9282 4.0000
         vertex 4.0000 -5.6569 -5.6569
         vertex 4.0000 -5.6569 5.6569
      endloop
   endfacet
   facet normal -0.7098 0.0612 -0.7017
      outer loop
         vertex 0.5000 -0.0000 -8.5000
         vertex 0.0000 -0.0000 -8.0000
         vertex 0.0000 2.0706 -7.7274
      endloop
   endfacet
   facet normal -0.7098 0.1225 -0.6937
      outer loop
         vertex 0.5000 -0.0000 -8.5000
         vertex 0.0000 2.0706 -7.7274
         vertex 0.5000 2.2000 -8.2104
      endloop
   endfacet
   facet normal 0.0000 0.0869 -0.9962
      outer loop
         vertex 3.5000 -0.0000 -8.5000
         vertex 0.5000 -0.0000 -8.5000
         vertex 0.5000 2.2000 -8.2104
      endloop
   endfacet
   facet normal 0.0000 0.1739 -0.9848
      outer loop
         vertex 3.5000 -0.0000 -8.5000
         vertex 0.5000 2.2000 -8.2104
         vertex 3.5000 2.2000 -8.2104
      endloop
   endfacet
   facet normal 0.7098 0.0612 -0.7017
      outer loop
         vertex 4.0000 -0.0000 -8.0000
         vertex 3.5000 -0.0000 -8.5000
         vertex 3.5000 2.2000 -8.2104
      endloop
   endfacet
   facet normal 0.7098 0.1225 -0.6937
      outer loop
         vertex 4.0000 -0.0000 -8.0000
         vertex 3.5000 2.2000 -8.2104
         vertex 4.0000 2.0706 -7.7274
      endloop
   endfacet
   facet normal 0.0000 -0.0869 0.9962
      outer loop
         vertex 0.0000 -0.0000 -5.0000
         vertex 4.0000 -0.0000 -5.0000
         vertex 4.0000 1.2941 -4.8296
      endloop
   endfacet
   facet normal 0.0000 -0.1739 0.9848
      outer loop
         vertex 0.0000 -0.0000 -5.0000
         vertex 4.0000 1.2941 -4.8296
         vertex 0.0000 1.2941 -4.8296
      endloop
   endfacet
   facet normal -0.7098 0.2408 -0.6620
      outer loop
         vertex 0.5000 2.2000 -8.2104
         vertex 0.0000 2.0706 -7.7274
         vertex 0.0000 4.0000 -6.9282
      endloop
   endfacet
   facet normal -0.7098 0.2978 -0.6383
      outer loop
         vertex 0.5000 2.2000 -8.2104
         vertex 0.0000 4.0000 -6.9282
         vertex 0.5000 4.2500 -7.3612
      endloop
   endfacet
   facet normal 0.0000 0.3418 -0.9398
      outer loop
         vertex 3.5000 2.2000 -8.2104
         vertex 0.5000 2.2000 -8.2104
         vertex 0.5000 4.2500 -7.3612
      endloop
   endfacet
   facet normal 0.0000 0.4228 -0.9062
      outer loop
         vertex 3.5000 2.2000 -8.2104
         vertex 0.5000 4.2500 -7.3612
         vertex 3.5000 4.2500 -7.3612
      endloop
   endfacet
   facet normal 0.7098 0.2408 -0.6620
      outer loop
         vertex 4.0000 4.0000 -6.9282
         vertex 4.0000 2.0706 -7.7274
         vertex 3.5000 2.2000 -8.2104
      endloop
   endfacet
   facet normal 0.7098 0.2978 -0.6383
      outer loop
         vertex 4.0000 4.0000 -6.9282
         vertex 3.5000 2.2000 -8.2104
         vertex 3.5000 4.2500 -7.3612
      endloop
   endfacet
   facet normal 0.0000 -0.4228 0.9062
      outer loop
         vertex 4.0000 2.5000 -4.3301
         vertex 0.0000 2.5000 -4.3301
         vertex 0.0000 1.2941 -4.8296
      endloop
   endfacet
   facet normal 0.0000 -0.3418 0.9398
      outer loop
         vertex 4.0000 2.5000 -4.3301
         vertex 0.0000 1.2941 -4.8296
         vertex 4.0000 1.2941 -4.8296
      endloop
   endfacet
   facet normal -0.7098 0.4039 -0.5771
      outer loop
         vertex 0.5000 4.2500 -7.3612
         vertex 0.0000 4.0000 -6.9282
         vertex 0.0000 5.6569 -5.6569
      endloop
   endfacet
   facet normal -0.7098 0.4529 -0.5395
      outer loop
         vertex 0.5000 4.2500 -7.3612
         vertex 0.0000 5.6569 -5.6569
         vertex 0.5000 6.0104 -6.0104
      endloop
   endfacet
   facet normal 0.0000 0.5734 -0.8193
      outer loop
         vertex 3.5000 4.2500 -7.3612
         vertex 0.5000 4.2500 -7.3612
         vertex 0.5000 6.0104 -6.0104
      endloop
   endfacet
   facet normal 0.0000 0.6430 -0.7659
      outer loop
         vertex 3.5000 4.2500 -7.3612
         vertex 0.5000 6.0104 -6.0104
         vertex 3.5000 6.0104 -6.0104
      endloop
   endfacet
   facet normal 0.7098 0.4039 -0.5771
      outer loop
         vertex 4.0000 4.0000 -6.9282
         vertex 3.5000 4.2500 -7.3612
         vertex 3.5000 6.0104 -6.0104
      endloop
   endfacet
   facet normal 0.7098 0.4529 -0.5395
      outer loop
         vertex 4.0000 4.0000 -6.9282
         vertex 3.5000 6.0104 -6.0104
         vertex 4.0000 5.6569 -5.6569
      endloop
   endfacet
   facet normal 0.0000 -0.5734 0.8193
      outer loop
         vertex 0.0000 2.5000 -4.3301
         vertex 4.0000 2.5000 -4.3301
         vertex 4.0000 3.5355 -3.5355
      endloop
   endfacet
   facet normal 0.0000 -0.6430 0.7659
      outer loop
         vertex 0.0000 2.5000 -4.3301
         vertex 4.0000 3.5355 -3.5355
         vertex 0.0000 3.5355 -3.5355
      endloop
   endfacet
   facet normal -0.7098 0.5771 -0.4039
      outer loop
         vertex 0.0000 5.6569 -5.6569
         vertex 0.0000 6.9282 -4.0000
         vertex 0.5000 7.3612 -4.2500
      endloop
   endfacet
   facet normal -0.7098 0.5395 -0.4529
      outer loop
         vertex 0.0000 5.6569 -5.6569
         vertex 0.5000 7.3612 -4.2500
         vertex 0.5000 6.0104 -6.0104
      endloop
   endfacet
   facet normal 0.0000 0.7659 -0.6430
      outer loop
         vertex 3.5000 6.0104 -6.0104
         vertex 0.5000 6.0104 -6.0104
         vertex 0.5000 7.3612 -4.2500
      endloop
   endfacet
   facet normal 0.0000 0.8193 -0.5734
      outer loop
         vertex 3.5000 6.0104 -6.0104
         vertex 0.5000 7.3612 -4.2500
         vertex 3.5000 7.3612 -4.2500
      endloop
   endfacet
   facet normal 0.7098 0.5395 -0.4529
      outer loop
         vertex 4.0000 5.6569 -5.6569
         vertex 3.5000 6.0104 -6.0104
         vertex 3.5000 7.3612 -4.2500
      endloop
   endfacet
   facet normal 0.7098 0.5771 -0.4039
      outer loop
         vertex 4.0000 5.6569 -5.6569
         vertex 3.5000 7.3612 -4.2500
         vertex 4.0000 6.9282 -4.0000
      endloop
   endfacet
   facet normal 0.0000 -0.7659 0.6430
      outer loop
         vertex 0.0000 3.5355 -3.5355
         vertex 4.0000 3.5355 -3.5355
         vertex 4.0000 4.3301 -2.5000
      endloop
   endfacet
   facet normal 0.0000 -0.8193 0.5734
      outer loop
         vertex 0.0000 3.5355 -3.5355
         vertex 4.0000 4.3301 -2.5000
         vertex 0.0000 4.3301 -2.5000
      endloop
   endfacet
   facet normal -0.7098 0.6620 -0.2408
      outer loop
         vertex 0.0000 6.9282 -4.0000
         vertex 0.0000 7.7274 -2.0706
         vertex 0.5000 8.2104 -2.2000
      endloop
   endfacet
   facet normal -0.7098 0.6383 -0.2978
      outer loop
         vertex 0.0000 6.9282 -4.0000
         vertex 0.5000 8.2104 -2.2000
         vertex 0.5000 7.3612 -4.2500
      endloop
   endfacet
   facet normal 0.0000 0.9062 -0.4228
      outer loop
         vertex 3.5000 7.3612 -4.2500
         vertex 0.5000 7.3612 -4.2500
         vertex 0.5000 8.2104 -2.2000
      endloop
   endfacet
   facet normal 0.0000 0.9398 -0.3418
      outer loop
         vertex 3.5000 7.3612 -4.2500
         vertex 0.5000 8.2104 -2.2000
         vertex 3.5000 8.2104 -2.2000
      endloop
   endfacet
   facet normal 0.7098 0.6383 -0.2978
      outer loop
         vertex 4.0000 6.9282 -4.0000
         vertex 3.5000 7.3612 -4.2500
         vertex 3.5000 8.2104 -2.2000
      endloop
   endfacet
   facet normal 0.7098 0.6620 -0.2408
      outer loop
         vertex 4.0000 6.9282 -4.0000
         vertex 3.5000 8.2104 -2.2000
         vertex 4.0000 7.7274 -2.0706
      endloop
   endfacet
   facet normal 0.0000 -0.9062 0.4228
      outer loop
         vertex 0.0000 4.3301 -2.5000
         vertex 4.0000 4.3301 -2.5000
         vertex 4.0000 4.8296 -1.2941
      endloop
   endfacet
   facet normal 0.0000 -0.9398 0.3418
      outer loop
         vertex 0.0000 4.3301 -2.5000
         vertex 4.0000 4.8296 -1.2941
         vertex 0.0000 4.8296 -1.2941
      endloop
   endfacet
   facet normal -0.7098 0.6937 -0.1225
      outer loop
         vertex 0.5000 8.2104 -2.2000
         vertex 0.0000 7.7274 -2.0706
         vertex 0.0000 8.0000 0.0000
      endloop
   endfacet
   facet normal -0.7098 0.7017 -0.0612
      outer loop
         vertex 0.5000 8.2104 -2.2000
         vertex 0.0000 8.0000 0.0000
         vertex 0.5000 8.5000 -0.0000
      endloop
   endfacet
   facet normal 0.0000 0.9848 -0.1739
      outer loop
         vertex 3.5000 8.2104 -2.2000
         vertex 0.5000 8.2104 -2.2000
         vertex 0.5000 8.5000 -0.0000
      endloop
   endfacet
   facet normal 0.0000 0.9962 -0.0869
      outer loop
         vertex 3.5000 8.2104 -2.2000
         vertex 0.5000 8.5000 -0.0000
         vertex 3.5000 8.5000 0.0000
      endloop
   endfacet
   facet normal 0.7098 0.6937 -0.1225
      outer loop
         vertex 4.0000 7.7274 -2.0706
         vertex 3.5000 8.2104 -2.2000
         vertex 3.5000 8.5000 0.0000
      endloop
   endfacet
   facet normal 0.7098 0.7017 -0.0612
      outer loop
         vertex 4.0000 7.7274 -2.0706
         vertex 3.5000 8.5000 0.0000
         vertex 4.0000 8.0000 0.0000
      endloop
   endfacet
   facet normal 0.0000 -0.9848 0.1739
      outer loop
         vertex 0.0000 4.8296 -1.2941
         vertex 4.0000 4.8296 -1.2941
         vertex 4.0000 5.0000 0.0000
      endloop
   endfacet
   facet normal 0.0000 -0.9962 0.0869
      outer loop
         vertex 0.0000 4.8296 -1.2941
         vertex 4.0000 5.0000 0.0000
         vertex 0.0000 5.0000 0.0000
      endloop
   endfacet
   facet normal -0.7098 0.7017 0.0612
      outer loop
         vertex 0.5000 8.5000 -0.0000
         vertex 0.0000 8.0000 0.0000
         vertex 0.0000 7.7274 2.0706
      endloop
   endfacet
   facet normal -0.7098 0.6937 0.1225
      outer loop
         vertex 0.5000 8.5000 -0.0000
         vertex 0.0000 7.7274 2.0706
         vertex 0.5000 8.2104 2.2000
      endloop
   endfacet
   facet normal 0.0000 0.9962 0.0869
      outer loop
         vertex 3.5000 8.5000 0.0000
         vertex 0.5000 8.5000 -0.0000
         vertex 0.5000 8.2104 2.2000
      endloop
   endfacet
   facet normal 0.0000 0.9848 0.1739
      outer loop
         vertex 3.5000 8.5000 0.0000
         vertex 0.5000 8.2104 2.2000
         vertex 3.5000 8.2104 2.2000
      endloop
   endfacet
   facet normal 0.7098 0.7017 0.0612
      outer loop
         vertex 4.0000 8.0000 0.0000
         vertex 3.5000 8.5000 0.0000
         vertex 3.5000 8.2104 2.2000
      endloop
   endfacet
   facet normal 0.7098 0.6937 0.1225
      outer loop
         vertex 4.0000 8.0000 0.0000
         vertex 3.5000 8.2104 2.2000
         vertex 4.0000 7.7274 2.0706
      endloop
   endfacet
   facet normal 0.0000 -0.9962 -0.0869
      outer loop
         vertex 0.0000 4.8296 1.2941
         vertex 0.0000 5.0000 0.0000
         vertex 4.0000 5.0000 0.0000
      endloop
   endfacet
   facet normal 0.0000 -0.9848 -0.1739
      outer loop
         vertex 0.0000 4.8296 1.2941
         vertex 4.0000 5.0000 0.0000
         vertex 4.0000 4.8296 1.2941
      endloop
   endfacet
   facet normal -0.7098 0.6620 0.2408
      outer loop
         vertex 0.5000 7.3612 4.2500
         vertex 0.5000 8.2104 2.2000
         vertex 0.0000 7.7274 2.0706
      endloop
   endfacet
   facet normal -0.7098 0.6383 0.2978
      outer loop
         vertex 0.5000 7.3612 4.2500
         vertex 0.0000 7.7274 2.0706
         vertex 0.0000 6.9282 4.0000
      endloop
   endfacet
   facet normal 0.0000 0.9398 0.3418
      outer loop
         vertex 3.5000 8.2104 2.2000
         vertex 0.5000 8.2104 2.2000
         vertex 0.5000 7.3612 4.2500
      endloop
   endfacet
   facet normal 0.0000 0.9062 0.4228
      outer loop
         vertex 3.5000 8.2104 2.2000
         vertex 0.5000 7.3612 4.2500
         vertex 3.5000 7.3612 4.2500
      endloop
   endfacet
   facet normal 0.7098 0.6620 0.2408
      outer loop
         vertex 4.0000 6.9282 4.0000
         vertex 4.0000 7.7274 2.0706
         vertex 3.5000 8.2104 2.2000
      endloop
   endfacet
   facet normal 0.7098 0.6383 0.2978
      outer loop
         vertex 4.0000 6.9282 4.0000
         vertex 3.5000 8.2104 2.2000
         vertex 3.5000 7.3612 4.2500
      endloop
   endfacet
   facet normal 0.0000 -0.9398 -0.3418
      outer loop
         vertex 0.0000 4.3301 2.5000
         vertex 0.0000 4.8296 1.2941
         vertex 4.0000 4.8296 1.2941
      endloop
   endfacet
   facet normal 0.0000 -0.9062 -0.4228
      outer loop
         vertex 0.0000 4.3301 2.5000
         vertex 4.0000 4.8296 1.2941
         vertex 4.0000 4.3301 2.5000
      endloop
   endfacet
   facet normal -0.7098 0.5395 0.4529
      outer loop
         vertex 0.0000 6.9282 4.0000
         vertex 0.0000 5.6569 5.6569
         vertex 0.5000 6.0104 6.0104
      endloop
   endfacet
   facet normal -0.7098 0.5771 0.4039
      outer loop
         vertex 0.0000 6.9282 4.0000
         vertex 0.5000 6.0104 6.0104
         vertex 0.5000 7.3612 4.2500
      endloop
   endfacet
   facet normal 0.0000 0.8193 0.5734
      outer loop
         vertex 3.5000 7.3612 4.2500
         vertex 0.5000 7.3612 4.2500
         vertex 0.5000 6.0104 6.0104
      endloop
   endfacet
   facet normal 0.0000 0.7659 0.6430
      outer loop
         vertex 3.5000 7.3612 4.2500
         vertex 0.5000 6.0104 6.0104
         vertex 3.5000 6.0104 6.0104
      endloop
   endfacet
   facet normal 0.7098 0.5771 0.4039
      outer loop
         vertex 4.0000 6.9282 4.0000
         vertex 3.5000 7.3612 4.2500
         vertex 3.5000 6.0104 6.0104
      endloop
   endfacet
   facet normal 0.7098 0.5395 0.4529
      outer loop
         vertex 4.0000 6.9282 4.0000
         vertex 3.5000 6.0104 6.0104
         vertex 4.0000 5.6569 5.6569
      endloop
   endfacet
   facet normal 0.0000 -0.8193 -0.5734
      outer loop
         vertex 0.0000 3.5355 3.5355
         vertex 0.0000 4.3301 2.5000
         vertex 4.0000 4.3301 2.5000
      endloop
   endfacet
   facet normal 0.0000 -0.7659 -0.6430
      outer loop
         vertex 0.0000 3.5355 3.5355
         vertex 4.0000 4.3301 2.5000
         vertex 4.0000 3.5355 3.5355
      endloop
   endfacet
   facet normal -0.7098 0.4039 0.5771
      outer loop
         vertex 0.0000 4.0000 6.9282
         vertex 0.5000 4.2500 7.3612
         vertex 0.5000 6.0104 6.0104
      endloop
   endfacet
   facet normal -0.7098 0.4529 0.5395
      outer loop
         vertex 0.0000 4.0000 6.9282
         vertex 0.5000 6.0104 6.0104
         vertex 0.0000 5.6569 5.6569
      endloop
   endfacet
   facet normal 0.0000 0.6430 0.7659
      outer loop
         vertex 3.5000 6.0104 6.0104
         vertex 0.5000 6.0104 6.0104
         vertex 0.5000 4.2500 7.3612
      endloop
   endfacet
   facet normal 0.0000 0.5734 0.8193
      outer loop
         vertex 3.5000 6.0104 6.0104
         vertex 0.5000 4.2500 7.3612
         vertex 3.5000 4.2500 7.3612
      endloop
   endfacet
   facet normal 0.7098 0.4529 0.5395
      outer loop
         vertex 4.0000 5.6569 5.6569
         vertex 3.5000 6.0104 6.0104
         vertex 3.5000 4.2500 7.3612
      endloop
   endfacet
   facet normal 0.7098 0.4039 0.5771
      outer loop
         vertex 4.0000 5.6569 5.6569
         vertex 3.5000 4.2500 7.3612
         vertex 4.0000 4.0000 6.9282
      endloop
   endfacet
   facet normal 0.0000 -0.6430 -0.7659
      outer loop
         vertex 0.0000 2.5000 4.3301
         vertex 0.0000 3.5355 3.5355
         vertex 4.0000 3.5355 3.5355
      endloop
   endfacet
   facet normal 0.0000 -0.5734 -0.8193
      outer loop
         vertex 0.0000 2.5000 4.3301
         vertex 4.0000 3.5355 3.5355
         vertex 4.0000 2.5000 4.3301
      endloop
   endfacet
   facet normal -0.7098 0.2408 0.6620
      outer loop
         vertex 0.0000 4.0000 6.9282
         vertex 0.0000 2.0706 7.7274
         vertex 0.5000 2.2000 8.2104
      endloop
   endfacet
   facet normal -0.7098 0.2978 0.6383
      outer loop
         vertex 0.0000 4.0000 6.9282
         vertex 0.5000 2.2000 8.2104
         vertex 0.5000 4.2500 7.3612
      endloop
   endfacet
   facet normal 0.0000 0.4228 0.9062
      outer loop
         vertex 3.5000 4.2500 7.3612
         vertex 0.5000 4.2500 7.3612
         vertex 0.5000 2.2000 8.2104
      endloop
   endfacet
   facet normal 0.0000 0.3418 0.9398
      outer loop
         vertex 3.5000 4.2500 7.3612
         vertex 0.5000 2.2000 8.2104
         vertex 3.5000 2.2000 8.2104
      endloop
   endfacet
   facet normal 0.7098 0.2978 0.6383
      outer loop
         vertex 4.0000 4.0000 6.9282
         vertex 3.5000 4.2500 7.3612
         vertex 3.5000 2.2000 8.2104
      endloop
   endfacet
   facet normal 0.7098 0.2408 0.6620
      outer loop
         vertex 4.0000 4.0000 6.9282
         vertex 3.5000 2.2000 8.2104
         vertex 4.0000 2.0706 7.7274
      endloop
   endfacet
   facet normal 0.0000 -0.4228 -0.9062
      outer loop
         vertex 0.0000 1.2941 4.8296
         vertex 0.0000 2.5000 4.3301
         vertex 4.0000 2.5000 4.3301
      endloop
   endfacet
   facet normal 0.0000 -0.3418 -0.9398
      outer loop
         vertex 0.0000 1.2941 4.8296
         vertex 4.0000 2.5000 4.3301
         vertex 4.0000 1.2941 4.8296
      endloop
   endfacet
   facet normal -0.7098 0.1225 0.6937
      outer loop
         vertex 0.5000 0.0000 8.5000
         vertex 0.5000 2.2000 8.2104
         vertex 0.0000 2.0706 7.7274
      endloop
   endfacet
   facet normal -0.7098 0.0612 0.7017
      outer loop
         vertex 0.5000 0.0000 8.5000
         vertex 0.0000 2.0706 7.7274
         vertex 0.0000 0.0000 8.0000
      endloop
   endfacet
   facet normal 0.0000 0.1739 0.9848
      outer loop
         vertex 3.5000 2.2000 8.2104
         vertex 0.5000 2.2000 8.2104
         vertex 0.5000 0.0000 8.5000
      endloop
   endfacet
   facet normal 0.0000 0.0869 0.9962
      outer loop
         vertex 3.5000 2.2000 8.2104
         vertex 0.5000 0.0000 8.5000
         vertex 3.5000 0.0000 8.5000
      endloop
   endfacet
   facet normal 0.7098 0.1225 0.6937
      outer loop
         vertex 4.0000 0.0000 8.0000
         vertex 4.0000 2.0706 7.7274
         vertex 3.5000 2.2000 8.2104
      endloop
   endfacet
   facet normal 0.7098 0.0612 0.7017
      outer loop
         vertex 4.0000 0.0000 8.0000
         vertex 3.5000 2.2000 8.2104
         vertex 3.5000 0.0000 8.5000
      endloop
   endfacet
   facet normal 0.0000 -0.1739 -0.9848
      outer loop
         vertex 0.0000 0.0000 5.0000
         vertex 0.0000 1.2941 4.8296
         vertex 4.0000 1.2941 4.8296
      endloop
   endfacet
   facet normal 0.0000 -0.0869 -0.9962
      outer loop
         vertex 0.0000 0.0000 5.0000
         vertex 4.0000 1.2941 4.8296
         vertex 4.0000 0.0000 5.0000
      endloop
   endfacet
   facet normal -0.7098 -0.1225 0.6937
      outer loop
         vertex 0.0000 -2.0706 7.7274
         vertex 0.5000 -2.2000 8.2104
         vertex 0.5000 0.0000 8.5000
      endloop
   endfacet
   facet normal -0.7098 -0.0612 0.7017
      outer loop
         vertex 0.0000 -2.0706 7.7274
         vertex 0.5000 0.0000 8.5000
         vertex 0.0000 0.0000 8.0000
      endloop
   endfacet
   facet normal 0.0000 -0.0869 0.9962
      outer loop
         vertex 3.5000 0.0000 8.5000
         vertex 0.5000 0.0000 8.5000
         vertex 0.5000 -2.2000 8.2104
      endloop
   endfacet
   facet normal 0.0000 -0.1739 0.9848
      outer loop
         vertex 3.5000 0.0000 8.5000
         vertex 0.5000 -2.2000 8.2104
         vertex 3.5000 -2.2000 8.2104
      endloop
   endfacet
   facet normal 0.7098 -0.0612 0.7017
      outer loop
         vertex 4.0000 0.0000 8.0000
         vertex 3.5000 0.0000 8.5000
         vertex 3.5000 -2.2000 8.2104
      endloop
   endfacet
   facet normal 0.7098 -0.1225 0.6937
      outer loop
         vertex 4.0000 0.0000 8.0000
         vertex 3.5000 -2.2000 8.2104
         vertex 4.0000 -2.0706 7.7274
      endloop
   endfacet
   facet normal 0.0000 0.0869 -0.9962
      outer loop
         vertex 0.0000 -1.2941 4.8296
         vertex 0.0000 0.0000 5.0000
         vertex 4.0000 0.0000 5.0000
      endloop
   endfacet
   facet normal 0.0000 0.1739 -0.9848
      outer loop
         vertex 0.0000 -1.2941 4.8296
         vertex 4.0000 0.0000 5.0000
         vertex 4.0000 -1.2941 4.8296
      endloop
   endfacet
   facet normal -0.7098 -0.2978 0.6383
      outer loop
         vertex 0.0000 -2.0706 7.7274
         vertex 0.0000 -4.0000 6.9282
         vertex 0.5000 -4.2500 7.3612
      endloop
   endfacet
   facet normal -0.7098 -0.2408 0.6620
      outer loop
         vertex 0.0000 -2.0706 7.7274
         vertex 0.5000 -4.2500 7.3612
         vertex 0.5000 -2.2000 8.2104
      endloop
   endfacet
   facet normal 0.0000 -0.3418 0.9398
      outer loop
         vertex 3.5000 -2.2000 8.2104
         vertex 0.5000 -2.2000 8.2104
         vertex 0.5000 -4.2500 7.3612
      endloop
   endfacet
   facet normal 0.0000 -0.4228 0.9062
      outer loop
         vertex 3.5000 -2.2000 8.2104
         vertex 0.5000 -4.2500 7.3612
         vertex 3.5000 -4.2500 7.3612
      endloop
   endfacet
   facet normal 0.7098 -0.2408 0.6620
      outer loop
         vertex 4.0000 -4.0000 6.9282
         vertex 4.0000 -2.0706 7.7274
         vertex 3.5000 -2.2000 8.2104
      endloop
   endfacet
   facet normal 0.7098 -0.2978 0.6383
      outer loop
         vertex 4.0000 -4.0000 6.9282
         vertex 3.5000 -2.2000 8.2104
         vertex 3.5000 -4.2500 7.3612
      endloop
   endfacet
   facet normal 0.0000 0.3418 -0.9398
      outer loop
         vertex 0.0000 -2.5000 4.3301
         vertex 0.0000 -1.2941 4.8296
         vertex 4.0000 -1.2941 4.8296
      endloop
   endfacet
   facet normal 0.0000 0.4228 -0.9062
      outer loop
         vertex 0.0000 -2.5000 4.3301
         vertex 4.0000 -1.2941 4.8296
         vertex 4.0000 -2.5000 4.3301
      endloop
   endfacet
   facet normal -0.7098 -0.4529 0.5395
      outer loop
         vertex 0.0000 -4.0000 6.9282
         vertex 0.0000 -5.6569 5.6569
         vertex 0.5000 -6.0104 6.0104
      endloop
   endfacet
   facet normal -0.7098 -0.4039 0.5771
      outer loop
         vertex 0.0000 -4.0000 6.9282
         vertex 0.5000 -6.0104 6.0104
         vertex 0.5000 -4.2500 7.3612
      endloop
   endfacet
   facet normal 0.0000 -0.5734 0.8193
      outer loop
         vertex 3.5000 -4.2500 7.3612
         vertex 0.5000 -4.2500 7.3612
         vertex 0.5000 -6.0104 6.0104
      endloop
   endfacet
   facet normal 0.0000 -0.6430 0.7659
      outer loop
         vertex 3.5000 -4.2500 7.3612
         vertex 0.5000 -6.0104 6.0104
         vertex 3.5000 -6.0104 6.0104
      endloop
   endfacet
   facet normal 0.7098 -0.4039 0.5771
      outer loop
         vertex 4.0000 -4.0000 6.9282
         vertex 3.5000 -4.2500 7.3612
         vertex 3.5000 -6.0104 6.0104
      endloop
   endfacet
   facet normal 0.7098 -0.4529 0.5395
      outer loop
         vertex 4.0000 -4.0000 6.9282
         vertex 3.5000 -6.0104 6.0104
         vertex 4.0000 -5.6569 5.6569
      endloop
   endfacet
   facet normal 0.0000 0.5734 -0.8193
      outer loop
         vertex 0.0000 -3.5355 3.5355
         vertex 0.0000 -2.5000 4.3301
         vertex 4.0000 -2.5000 4.3301
      endloop
   endfacet
   facet normal 0.0000 0.6430 -0.7659
      outer loop
         vertex 0.0000 -3.5355 3.5355
         vertex 4.0000 -2.5000 4.3301
         vertex 4.0000 -3.5355 3.5355
      endloop
   endfacet
   facet normal -0.7098 -0.5771 0.4039
      outer loop
         vertex 0.0000 -5.6569 5.6569
         vertex 0.0000 -6.9282 4.0000
         vertex 0.5000 -7.3612 4.2500
      endloop
   endfacet
   facet normal -0.7098 -0.5395 0.4529
      outer loop
         vertex 0.0000 -5.6569 5.6569
         vertex 0.5000 -7.3612 4.2500
         vertex 0.5000 -6.0104 6.0104
      endloop
   endfacet
   facet normal 0.0000 -0.7659 0.6430
      outer loop
         vertex 3.5000 -6.0104 6.0104
         vertex 0.5000 -6.0104 6.0104
         vertex 0.5000 -7.3612 4.2500
      endloop
   endfacet
   facet normal 0.0000 -0.8193 0.5734
      outer loop
         vertex 3.5000 -6.0104 6.0104
         vertex 0.5000 -7.3612 4.2500
         vertex 3.5000 -7.3612 4.2500
      endloop
   endfacet
   facet normal 0.7098 -0.5395 0.4529
      outer loop
         vertex 4.0000 -5.6569 5.6569
         vertex 3.5000 -6.0104 6.0104
         vertex 3.5000 -7.3612 4.2500
      endloop
   endfacet
   facet normal 0.7098 -0.5771 0.4039
      outer loop
         vertex 4.0000 -5.6569 5.6569
         vertex 3.5000 -7.3612 4.2500
         vertex 4.0000 -6.9282 4.0000
      endloop
   endfacet
   facet normal 0.0000 0.7659 -0.6430
      outer loop
         vertex 0.0000 -3.5355 3.5355
         vertex 4.0000 -3.5355 3.5355
         vertex 4.0000 -4.3301 2.5000
      endloop
   endfacet
   facet normal 0.0000 0.8193 -0.5734
      outer loop
         vertex 0.0000 -3.5355 3.5355
         vertex 4.0000 -4.3301 2.5000
         vertex 0.0000 -4.3301 2.5000
      endloop
   endfacet
   facet normal -0.7098 -0.6620 0.2408
      outer loop
         vertex 0.0000 -6.9282 4.0000
         vertex 0.0000 -7.7274 2.0706
         vertex 0.5000 -8.2104 2.2000
      endloop
   endfacet
   facet normal -0.7098 -0.6383 0.2978
      outer loop
         vertex 0.0000 -6.9282 4.0000
         vertex 0.5000 -8.2104 2.2000
         vertex 0.5000 -7.3612 4.2500
      endloop
   endfacet
   facet normal 0.0000 -0.9062 0.4228
      outer loop
         vertex 3.5000 -7.3612 4.2500
         vertex 0.5000 -7.3612 4.2500
         vertex 0.5000 -8.2104 2.2000
      endloop
   endfacet
   facet normal 0.0000 -0.9398 0.3418
      outer loop
         vertex 3.5000 -7.3612 4.2500
         vertex 0.5000 -8.2104 2.2000
         vertex 3.5000 -8.2104 2.2000
      endloop
   endfacet
   facet normal 0.7098 -0.6383 0.2978
      outer loop
         vertex 4.0000 -6.9282 4.0000
         vertex 3.5000 -7.3612 4.2500
         vertex 3.5000 -8.2104 2.2000
      endloop
   endfacet
   facet normal 0.7098 -0.6620 0.2408
      outer loop
         vertex 4.0000 -6.9282 4.0000
         vertex 3.5000 -8.2104 2.2000
         vertex 4.0000 -7.7274 2.0706
      endloop
   endfacet
   facet normal 0.0000 0.9062 -0.4228
      outer loop
         vertex 0.0000 -4.8296 1.2941
         vertex 0.0000 -4.3301 2.5000
         vertex 4.0000 -4.3301 2.5000
      endloop
   endfacet
   facet normal 0.0000 0.9398 -0.3418
      outer loop
         vertex 0.0000 -4.8296 1.2941
         vertex 4.0000 -4.3301 2.5000
         vertex 4.0000 -4.8296 1.2941
      endloop
   endfacet
   facet normal -0.7098 -0.7017 0.0612
      outer loop
         vertex 0.0000 -8.0000 0.0000
         vertex 0.5000 -8.5000 0.0000
         vertex 0.5000 -8.2104 2.2000
      endloop
   endfacet
   facet normal -0.7098 -0.6937 0.1225
      outer loop
         vertex 0.0000 -8.0000 0.0000
         vertex 0.5000 -8.2104 2.2000
         vertex 0.0000 -7.7274 2.0706
      endloop
   endfacet
   facet normal 0.0000 -0.9848 0.1739
      outer loop
         vertex 3.5000 -8.2104 2.2000
         vertex 0.5000 -8.2104 2.2000
         vertex 0.5000 -8.5000 0.0000
      endloop
   endfacet
   facet normal 0.0000 -0.9962 0.0869
      outer loop
         vertex 3.5000 -8.2104 2.2000
         vertex 0.5000 -8.5000 0.0000
         vertex 3.5000 -8.5000 0.0000
      endloop
   endfacet
   facet normal 0.7098 -0.6937 0.1225
      outer loop
         vertex 4.0000 -7.7274 2.0706
         vertex 3.5000 -8.2104 2.2000
         vertex 3.5000 -8.5000 0.0000
      endloop
   endfacet
   facet normal 0.7098 -0.7017 0.0612
      outer loop
         vertex 4.0000 -7.7274 2.0706
         vertex 3.5000 -8.5000 0.0000
         vertex 4.0000 -8.0000 0.0000
      endloop
   endfacet
   facet normal 0.0000 0.9848 -0.1739
      outer loop
         vertex 0.0000 -5.0000 0.0000
         vertex 0.0000 -4.8296 1.2941
         vertex 4.0000 -4.8296 1.2941
      endloop
   endfacet
   facet normal 0.0000 0.9962 -0.0869
      outer loop
         vertex 0.0000 -5.0000 0.0000
         vertex 4.0000 -4.8296 1.2941
         vertex 4.0000 -5.0000 0.0000
      endloop
   endfacet
   facet normal -0.7098 -0.6937 -0.1225
      outer loop
         vertex 0.0000 -7.7274 -2.0706
         vertex 0.5000 -8.2104 -2.2000
         vertex 0.5000 -8.5000 0.0000
      endloop
   endfacet
   facet normal -0.7098 -0.7017 -0.0612
      outer loop
         vertex 0.0000 -7.7274 -2.0706
         vertex 0.5000 -8.5000 0.0000
         vertex 0.0000 -8.0000 0.0000
      endloop
   endfacet
   facet normal 0.0000 -0.9962 -0.0869
      outer loop
         vertex 3.5000 -8.5000 0.0000
         vertex 0.5000 -8.5000 0.0000
         vertex 0.5000 -8.2104 -2.2000
      endloop
   endfacet
   facet normal 0.0000 -0.9848 -0.1739
      outer loop
         vertex 3.5000 -8.5000 0.0000
         vertex 0.5000 -8.2104 -2.2000
         vertex 3.5000 -8.2104 -2.2000
      endloop
   endfacet
   facet normal 0.7098 -0.7017 -0.0612
      outer loop
         vertex 4.0000 -8.0000 0.0000
         vertex 3.5000 -8.5000 0.0000
         vertex 3.5000 -8.2104 -2.2000
      endloop
   endfacet
   facet normal 0.7098 -0.6937 -0.1225
      outer loop
         vertex 4.0000 -8.0000 0.0000
         vertex 3.5000 -8.2104 -2.2000
         vertex 4.0000 -7.7274 -2.0706
      endloop
   endfacet
   facet normal 0.0000 0.9848 0.1739
      outer loop
         vertex 4.0000 -4.8296 -1.2941
         vertex 0.0000 -4.8296 -1.2941
         vertex 0.0000 -5.0000 0.0000
      endloop
   endfacet
   facet normal 0.0000 0.9962 0.0869
      outer loop
         vertex 4.0000 -4.8296 -1.2941
         vertex 0.0000 -5.0000 0.0000
         vertex 4.0000 -5.0000 0.0000
      endloop
   endfacet
   facet normal -0.7098 -0.6620 -0.2408
      outer loop
         vertex 0.5000 -8.2104 -2.2000
         vertex 0.0000 -7.7274 -2.0706
         vertex 0.0000 -6.9282 -4.0000
      endloop
   endfacet
   facet normal -0.7098 -0.6383 -0.2978
      outer loop
         vertex 0.5000 -8.2104 -2.2000
         vertex 0.0000 -6.9282 -4.0000
         vertex 0.5000 -7.3612 -4.2500
      endloop
   endfacet
   facet normal 0.0000 -0.9398 -0.3418
      outer loop
         vertex 3.5000 -8.2104 -2.2000
         vertex 0.5000 -8.2104 -2.2000
         vertex 0.5000 -7.3612 -4.2500
      endloop
   endfacet
   facet normal 0.0000 -0.9062 -0.4228
      outer loop
         vertex 3.5000 -8.2104 -2.2000
         vertex 0.5000 -7.3612 -4.2500
         vertex 3.5000 -7.3612 -4.2500
      endloop
   endfacet
   facet normal 0.7098 -0.6620 -0.2408
      outer loop
         vertex 4.0000 -6.9282 -4.0000
         vertex 4.0000 -7.7274 -2.0706
         vertex 3.5000 -8.2104 -2.2000
      endloop
   endfacet
   facet normal 0.7098 -0.6383 -0.2978
      outer loop
         vertex 4.0000 -6.9282 -4.0000
         vertex 3.5000 -8.2104 -2.2000
         vertex 3.5000 -7.3612 -4.2500
      endloop
   endfacet
   facet normal 0.0000 0.9062 0.4228
      outer loop
         vertex 4.0000 -4.8296 -1.2941
         vertex 4.0000 -4.3301 -2.5000
         vertex 0.0000 -4.3301 -2.5000
      endloop
   endfacet
   facet normal 0.0000 0.9398 0.3418
      outer loop
         vertex 4.0000 -4.8296 -1.2941
         vertex 0.0000 -4.3301 -2.5000
         vertex 0.0000 -4.8296 -1.2941
      endloop
   endfacet
   facet normal -0.7098 -0.5771 -0.4039
      outer loop
         vertex 0.5000 -7.3612 -4.2500
         vertex 0.0000 -6.9282 -4.0000
         vertex 0.0000 -5.6569 -5.6569
      endloop
   endfacet
   facet normal -0.7098 -0.5395 -0.4529
      outer loop
         vertex 0.5000 -7.3612 -4.2500
         vertex 0.0000 -5.6569 -5.6569
         vertex 0.5000 -6.0104 -6.0104
      endloop
   endfacet
   facet normal 0.0000 -0.8193 -0.5734
      outer loop
         vertex 3.5000 -7.3612 -4.2500
         vertex 0.5000 -7.3612 -4.2500
         vertex 0.5000 -6.0104 -6.0104
      endloop
   endfacet
   facet normal 0.0000 -0.7659 -0.6430
      outer loop
         vertex 3.5000 -7.3612 -4.2500
         vertex 0.5000 -6.0104 -6.0104
         vertex 3.5000 -6.0104 -6.0104
      endloop
   endfacet
   facet normal 0.7098 -0.5771 -0.4039
      outer loop
         vertex 4.0000 -6.9282 -4.0000
         vertex 3.5000 -7.3612 -4.2500
         vertex 3.5000 -6.0104 -6.0104
      endloop
   endfacet
   facet normal 0.7098 -0.5395 -0.4529
      outer loop
         vertex 4.0000 -6.9282 -4.0000
         vertex 3.5000 -6.0104 -6.0104
         vertex 4.0000 -5.6569 -5.6569
      endloop
   endfacet
   facet normal 0.0000 0.8193 0.5734
      outer loop
         vertex 0.0000 -4.3301 -2.5000
         vertex 4.0000 -4.3301 -2.5000
         vertex 4.0000 -3.5355 -3.5355
      endloop
   endfacet
   facet normal 0.0000 0.7659 0.6430
      outer loop
         vertex 0.0000 -4.3301 -2.5000
         vertex 4.0000 -3.5355 -3.5355
         vertex 0.0000 -3.5355 -3.5355
      endloop
   endfacet
   facet normal -0.7098 -0.4529 -0.5395
      outer loop
         vertex 0.5000 -6.0104 -6.0104
         vertex 0.0000 -5.6569 -5.6569
         vertex 0.0000 -4.0000 -6.9282
      endloop
   endfacet
   facet normal -0.7098 -0.4039 -0.5771
      outer loop
         vertex 0.5000 -6.0104 -6.0104
         vertex 0.0000 -4.0000 -6.9282
         vertex 0.5000 -4.2500 -7.3612
      endloop
   endfacet
   facet normal 0.0000 -0.6430 -0.7659
      outer loop
         vertex 3.5000 -6.0104 -6.0104
         vertex 0.5000 -6.0104 -6.0104
         vertex 0.5000 -4.2500 -7.3612
      endloop
   endfacet
   facet normal 0.0000 -0.5734 -0.8193
      outer loop
         vertex 3.5000 -6.0104 -6.0104
         vertex 0.5000 -4.2500 -7.3612
         vertex 3.5000 -4.2500 -7.3612
      endloop
   endfacet
   facet normal 0.7098 -0.4529 -0.5395
      outer loop
         vertex 4.0000 -5.6569 -5.6569
         vertex 3.5000 -6.0104 -6.0104
         vertex 3.5000 -4.2500 -7.3612
      endloop
   endfacet
   facet normal 0.7098 -0.4039 -0.5771
      outer loop
         vertex 4.0000 -5.6569 -5.6569
         vertex 3.5000 -4.2500 -7.3612
         vertex 4.0000 -4.0000 -6.9282
      endloop
   endfacet
   facet normal 0.0000 0.6430 0.7659
      outer loop
         vertex 0.0000 -3.5355 -3.5355
         vertex 4.0000 -3.5355 -3.5355
         vertex 4.0000 -2.5000 -4.3301
      endloop
   endfacet
   facet normal 0.0000 0.5734 0.8193
      outer loop
         vertex 0.0000 -3.5355 -3.5355
         vertex 4.0000 -2.5000 -4.3301
         vertex 0.0000 -2.5000 -4.3301
      endloop
   endfacet
   facet normal -0.7098 -0.2408 -0.6620
      outer loop
         vertex 0.0000 -4.0000 -6.9282
         vertex 0.0000 -2.0706 -7.7274
         vertex 0.5000 -2.2000 -8.2104
      endloop
   endfacet
   facet normal -0.7098 -0.2978 -0.6383
      outer loop
         vertex 0.0000 -4.0000 -6.9282
         vertex 0.5000 -2.2000 -8.2104
         vertex 0.5000 -4.2500 -7.3612
      endloop
   endfacet
   facet normal 0.0000 -0.4228 -0.9062
      outer loop
         vertex 3.5000 -4.2500 -7.3612
         vertex 0.5000 -4.2500 -7.3612
         vertex 0.5000 -2.2000 -8.2104
      endloop
   endfacet
   facet normal 0.0000 -0.3418 -0.9398
      outer loop
         vertex 3.5000 -4.2500 -7.3612
         vertex 0.5000 -2.2000 -8.2104
         vertex 3.5000 -2.2000 -8.2104
      endloop
   endfacet
   facet normal 0.7098 -0.2978 -0.6383
      outer loop
         vertex 4.0000 -2.0706 -7.7274
         vertex 4.0000 -4.0000 -6.9282
         vertex 3.5000 -4.2500 -7.3612
      endloop
   endfacet
   facet normal 0.7098 -0.2408 -0.6620
      outer loop
         vertex 4.0000 -2.0706 -7.7274
         vertex 3.5000 -4.2500 -7.3612
         vertex 3.5000 -2.2000 -8.2104
      endloop
   endfacet
   facet normal 0.0000 0.4228 0.9062
      outer loop
         vertex 0.0000 -2.5000 -4.3301
         vertex 4.0000 -2.5000 -4.3301
         vertex 4.0000 -1.2941 -4.8296
      endloop
   endfacet
   facet normal 0.0000 0.3418 0.9398
      outer loop
         vertex 0.0000 -2.5000 -4.3301
         vertex 4.0000 -1.2941 -4.8296
         vertex 0.0000 -1.2941 -4.8296
      endloop
   endfacet
   facet normal -0.7098 -0.1225 -0.6937
      outer loop
         vertex 0.5000 -2.2000 -8.2104
         vertex 0.0000 -2.0706 -7.7274
         vertex 0.0000 -0.0000 -8.0000
      endloop
   endfacet
   facet normal -0.7098 -0.0612 -0.7017
      outer loop
         vertex 0.5000 -2.2000 -8.2104
         vertex 0.0000 -0.0000 -8.0000
         vertex 0.5000 -0.0000 -8.5000
      endloop
   endfacet
   facet normal 0.0000 -0.1739 -0.9848
      outer loop
         vertex 3.5000 -2.2000 -8.2104
         vertex 0.5000 -2.2000 -8.2104
         vertex 0.5000 -0.0000 -8.5000
      endloop
   endfacet
   facet normal 0.0000 -0.0869 -0.9962
      outer loop
         vertex 3.5000 -2.2000 -8.2104
         vertex 0.5000 -0.0000 -8.5000
         vertex 3.5000 -0.0000 -8.5000
      endloop
   endfacet
   facet normal 0.7098 -0.1225 -0.6937
      outer loop
         vertex 4.0000 -2.0706 -7.7274
         vertex 3.5000 -2.2000 -8.2104
         vertex 3.5000 -0.0000 -8.5000
      endloop
   endfacet
   facet normal 0.7098 -0.0612 -0.7017
      outer loop
         vertex 4.0000 -2.0706 -7.7274
         vertex 3.5000 -0.0000 -8.5000
         vertex 4.0000 -0.0000 -8.0000
      endloop
   endfacet
   facet normal 0.0000 0.1739 0.9848
      outer loop
         vertex 0.0000 -1.2941 -4.8296
         vertex 4.0000 -1.2941 -4.8296
         vertex 4.0000 -0.0000 -5.0000
      endloop
   endfacet
   facet normal 0.0000 0.0869 0.9962
      outer loop
         vertex 0.0000 -1.2941 -4.8296
         vertex 4.0000 -0.0000 -5.0000
         vertex 0.0000 -0.0000 -5.0000
      endloop
   endfacet
endsolid
