solid PARTassembly
   facet normal -1.0000 0.0000 0.0000
      outer loop
         vertex -3.0000 0.0000 2.4500
         vertex -3.0000 0.6341 2.3665
         vertex -3.0000 0.7217 1.2500
      endloop
   endfacet
   facet normal -1.0000 0.0000 0.0000
      outer loop
         vertex -3.0000 0.7217 1.2500
         vertex -3.0000 0.6341 2.3665
         vertex -3.0000 1.2250 2.1218
      endloop
   endfacet
   facet normal -1.0000 0.0000 0.0000
      outer loop
         vertex -3.0000 0.7217 1.2500
         vertex -3.0000 1.2250 2.1218
         vertex -3.0000 1.4434 0.0000
      endloop
   endfacet
   facet normal -1.0000 0.0000 0.0000
      outer loop
         vertex -3.0000 1.4434 0.0000
         vertex -3.0000 1.2250 2.1218
         vertex -3.0000 1.7324 1.7324
      endloop
   endfacet
   facet normal -1.0000 0.0000 0.0000
      outer loop
         vertex -3.0000 1.4434 0.0000
         vertex -3.0000 1.7324 1.7324
         vertex -3.0000 1.7324 -1.7324
      endloop
   endfacet
   facet normal -1.0000 0.0000 0.0000
      outer loop
         vertex -3.0000 1.7324 -1.7324
         vertex -3.0000 1.7324 1.7324
         vertex -3.0000 2.1218 1.2250
      endloop
   endfacet
   facet normal -1.0000 0.0000 0.0000
      outer loop
         vertex -3.0000 1.7324 -1.7324
         vertex -3.0000 2.1218 1.2250
         vertex -3.0000 2.1218 -1.2250
      endloop
   endfacet
   facet normal -1.0000 0.0000 0.0000
      outer loop
         vertex -3.0000 2.1218 -1.2250
         vertex -3.0000 2.1218 1.2250
         vertex -3.0000 2.3665 0.6341
      endloop
   endfacet
   facet normal -1.0000 0.0000 0.0000
      outer loop
         vertex -3.0000 2.1218 -1.2250
         vertex -3.0000 2.3665 0.6341
         vertex -3.0000 2.3665 -0.6341
      endloop
   endfacet
   facet normal -1.0000 0.0000 0.0000
      outer loop
         vertex -3.0000 2.3665 -0.6341
         vertex -3.0000 2.3665 0.6341
         vertex -3.0000 2.4500 0.0000
      endloop
   endfacet
   facet normal -1.0000 0.0000 0.0000
      outer loop
         vertex -3.0000 1.2250 -2.1218
         vertex -3.0000 0.6341 -2.3665
         vertex -3.0000 0.7217 -1.2500
      endloop
   endfacet
   facet normal -1.0000 0.0000 0.0000
      outer loop
         vertex -3.0000 1.2250 -2.1218
         vertex -3.0000 0.7217 -1.2500
         vertex -3.0000 1.4434 0.0000
      endloop
   endfacet
   facet normal -1.0000 0.0000 0.0000
      outer loop
         vertex -3.0000 1.2250 -2.1218
         vertex -3.0000 1.4434 0.0000
         vertex -3.0000 1.7324 -1.7324
      endloop
   endfacet
   facet normal -1.0000 0.0000 0.0000
      outer loop
         vertex -3.0000 -1.7324 1.7324
         vertex -3.0000 -1.2250 2.1218
         vertex -3.0000 -1.7324 -1.7324
      endloop
   endfacet
   facet normal -1.0000 0.0000 0.0000
      outer loop
         vertex -3.0000 -1.7324 -1.7324
         vertex -3.0000 -1.2250 2.1218
         vertex -3.0000 -1.4434 0.0000
      endloop
   endfacet
   facet normal -1.0000 0.0000 0.0000
      outer loop
         vertex -3.0000 -1.7324 -1.7324
         vertex -3.0000 -1.4434 0.0000
         vertex -3.0000 -1.2250 -2.1218
      endloop
   endfacet
   facet normal -1.0000 0.0000 0.0000
      outer loop
         vertex -3.0000 -1.2250 -2.1218
         vertex -3.0000 -1.4434 0.0000
         vertex -3.0000 -0.7217 -1.2500
      endloop
   endfacet
   facet normal -1.0000 0.0000 0.0000
      outer loop
         vertex -3.0000 -1.2250 -2.1218
         vertex -3.0000 -0.7217 -1.2500
         vertex -3.0000 -0.6341 -2.3665
      endloop
   endfacet
   facet normal -1.0000 0.0000 0.0000
      outer loop
         vertex -3.0000 -0.6341 -2.3665
         vertex -3.0000 -0.7217 -1.2500
         vertex -3.0000 0.7217 -1.2500
      endloop
   endfacet
   facet normal -1.0000 0.0000 0.0000
      outer loop
         vertex -3.0000 -0.6341 -2.3665
         vertex -3.0000 0.7217 -1.2500
         vertex -3.0000 -0.0000 -2.4500
      endloop
   endfacet
   facet normal -1.0000 0.0000 0.0000
      outer loop
         vertex -3.0000 -0.0000 -2.4500
         vertex -3.0000 0.7217 -1.2500
         vertex -3.0000 0.6341 -2.3665
      endloop
   endfacet
   facet normal -1.0000 0.0000 0.0000
      outer loop
         vertex -3.0000 -1.4434 0.0000
         vertex -3.0000 -1.2250 2.1218
         vertex -3.0000 -0.7217 1.2500
      endloop
   endfacet
   facet normal -1.0000 0.0000 0.0000
      outer loop
         vertex -3.0000 -0.7217 1.2500
         vertex -3.0000 -1.2250 2.1218
         vertex -3.0000 -0.6341 2.3665
      endloop
   endfacet
   facet normal -1.0000 0.0000 0.0000
      outer loop
         vertex -3.0000 -0.7217 1.2500
         vertex -3.0000 -0.6341 2.3665
         vertex -3.0000 0.7217 1.2500
      endloop
   endfacet
   facet normal -1.0000 0.0000 0.0000
      outer loop
         vertex -3.0000 0.7217 1.2500
         vertex -3.0000 -0.6341 2.3665
         vertex -3.0000 0.0000 2.4500
      endloop
   endfacet
   facet normal -1.0000 0.0000 0.0000
      outer loop
         vertex -3.0000 -2.4500 0.0000
         vertex -3.0000 -2.3665 0.6341
         vertex -3.0000 -2.3665 -0.6341
      endloop
   endfacet
   facet normal -1.0000 0.0000 0.0000
      outer loop
         vertex -3.0000 -2.3665 -0.6341
         vertex -3.0000 -2.3665 0.6341
         vertex -3.0000 -2.1218 1.2250
      endloop
   endfacet
   facet normal -1.0000 0.0000 0.0000
      outer loop
         vertex -3.0000 -2.3665 -0.6341
         vertex -3.0000 -2.1218 1.2250
         vertex -3.0000 -2.1218 -1.2250
      endloop
   endfacet
   facet normal -1.0000 0.0000 0.0000
      outer loop
         vertex -3.0000 -2.1218 -1.2250
         vertex -3.0000 -2.1218 1.2250
         vertex -3.0000 -1.7324 1.7324
      endloop
   endfacet
   facet normal -1.0000 0.0000 0.0000
      outer loop
         vertex -3.0000 -2.1218 -1.2250
         vertex -3.0000 -1.7324 1.7324
         vertex -3.0000 -1.7324 -1.7324
      endloop
   endfacet
   facet normal 1.0000 0.0000 0.0000
      outer loop
         vertex 10.0000 -0.0000 -1.1935
         vertex 10.0000 0.3089 -1.1528
         vertex 10.0000 0.5968 -1.0336
      endloop
   endfacet
   facet normal 1.0000 0.0000 0.0000
      outer loop
         vertex 10.0000 -0.0000 -1.1935
         vertex 10.0000 0.5968 -1.0336
         vertex 10.0000 0.8439 -0.8439
      endloop
   endfacet
   facet normal 1.0000 0.0000 0.0000
      outer loop
         vertex 10.0000 -0.0000 -1.1935
         vertex 10.0000 0.8439 -0.8439
         vertex 10.0000 1.0336 -0.5968
      endloop
   endfacet
   facet normal 1.0000 0.0000 0.0000
      outer loop
         vertex 10.0000 -0.0000 -1.1935
         vertex 10.0000 1.0336 -0.5968
         vertex 10.0000 1.1528 -0.3089
      endloop
   endfacet
   facet normal 1.0000 0.0000 0.0000
      outer loop
         vertex 10.0000 -0.0000 -1.1935
         vertex 10.0000 1.1528 -0.3089
         vertex 10.0000 1.1935 0.0000
      endloop
   endfacet
   facet normal 1.0000 0.0000 0.0000
      outer loop
         vertex 10.0000 -0.0000 -1.1935
         vertex 10.0000 1.1935 0.0000
         vertex 10.0000 1.1528 0.3089
      endloop
   endfacet
   facet normal 1.0000 0.0000 0.0000
      outer loop
         vertex 10.0000 -0.0000 -1.1935
         vertex 10.0000 1.1528 0.3089
         vertex 10.0000 1.0336 0.5968
      endloop
   endfacet
   facet normal 1.0000 0.0000 0.0000
      outer loop
         vertex 10.0000 -0.0000 -1.1935
         vertex 10.0000 1.0336 0.5968
         vertex 10.0000 0.8439 0.8439
      endloop
   endfacet
   facet normal 1.0000 0.0000 0.0000
      outer loop
         vertex 10.0000 -0.0000 -1.1935
         vertex 10.0000 0.8439 0.8439
         vertex 10.0000 0.5968 1.0336
      endloop
   endfacet
   facet normal 1.0000 0.0000 0.0000
      outer loop
         vertex 10.0000 -0.0000 -1.1935
         vertex 10.0000 0.5968 1.0336
         vertex 10.0000 0.3089 1.1528
      endloop
   endfacet
   facet normal 1.0000 0.0000 0.0000
      outer loop
         vertex 10.0000 -0.0000 -1.1935
         vertex 10.0000 0.3089 1.1528
         vertex 10.0000 0.0000 1.1935
      endloop
   endfacet
   facet normal 1.0000 0.0000 0.0000
      outer loop
         vertex 10.0000 -0.0000 -1.1935
         vertex 10.0000 0.0000 1.1935
         vertex 10.0000 -0.3089 1.1528
      endloop
   endfacet
   facet normal 1.0000 0.0000 0.0000
      outer loop
         vertex 10.0000 -0.0000 -1.1935
         vertex 10.0000 -0.3089 1.1528
         vertex 10.0000 -0.5968 1.0336
      endloop
   endfacet
   facet normal 1.0000 0.0000 0.0000
      outer loop
         vertex 10.0000 -0.0000 -1.1935
         vertex 10.0000 -0.5968 1.0336
         vertex 10.0000 -0.8439 0.8439
      endloop
   endfacet
   facet normal 1.0000 0.0000 0.0000
      outer loop
         vertex 10.0000 -0.0000 -1.1935
         vertex 10.0000 -0.8439 0.8439
         vertex 10.0000 -1.0336 0.5968
      endloop
   endfacet
   facet normal 1.0000 0.0000 0.0000
      outer loop
         vertex 10.0000 -0.0000 -1.1935
         vertex 10.0000 -1.0336 0.5968
         vertex 10.0000 -1.1528 0.3089
      endloop
   endfacet
   facet normal 1.0000 0.0000 0.0000
      outer loop
         vertex 10.0000 -0.0000 -1.1935
         vertex 10.0000 -1.1528 0.3089
         vertex 10.0000 -1.1935 0.0000
      endloop
   endfacet
   facet normal 1.0000 0.0000 0.0000
      outer loop
         vertex 10.0000 -0.0000 -1.1935
         vertex 10.0000 -1.1935 0.0000
         vertex 10.0000 -1.1528 -0.3089
      endloop
   endfacet
   facet normal 1.0000 0.0000 0.0000
      outer loop
         vertex 10.0000 -0.0000 -1.1935
         vertex 10.0000 -1.1528 -0.3089
         vertex 10.0000 -1.0336 -0.5968
      endloop
   endfacet
   facet normal 1.0000 0.0000 0.0000
      outer loop
         vertex 10.0000 -0.0000 -1.1935
         vertex 10.0000 -1.0336 -0.5968
         vertex 10.0000 -0.8439 -0.8439
      endloop
   endfacet
   facet normal 1.0000 0.0000 0.0000
      outer loop
         vertex 10.0000 -0.0000 -1.1935
         vertex 10.0000 -0.8439 -0.8439
         vertex 10.0000 -0.5968 -1.0336
      endloop
   endfacet
   facet normal 1.0000 0.0000 0.0000
      outer loop
         vertex 10.0000 -0.0000 -1.1935
         vertex 10.0000 -0.5968 -1.0336
         vertex 10.0000 -0.3089 -1.1528
      endloop
   endfacet
   facet normal 0.0000 0.0869 -0.9962
      outer loop
         vertex 9.6935 -0.0000 -1.5000
         vertex 0.0000 -0.0000 -1.5000
         vertex 0.0000 0.3882 -1.4489
      endloop
   endfacet
   facet normal 0.0000 0.1739 -0.9848
      outer loop
         vertex 9.6935 -0.0000 -1.5000
         vertex 0.0000 0.3882 -1.4489
         vertex 9.6935 0.3882 -1.4489
      endloop
   endfacet
   facet normal 0.7098 0.0612 -0.7017
      outer loop
         vertex 10.0000 -0.0000 -1.1935
         vertex 9.6935 -0.0000 -1.5000
         vertex 9.6935 0.3882 -1.4489
      endloop
   endfacet
   facet normal 0.7098 0.1225 -0.6937
      outer loop
         vertex 10.0000 -0.0000 -1.1935
         vertex 9.6935 0.3882 -1.4489
         vertex 10.0000 0.3089 -1.1528
      endloop
   endfacet
   facet normal -1.0000 0.0000 0.0000
      outer loop
         vertex -1.5000 0.7217 -1.2500
         vertex -1.5000 -0.0000 -1.2500
         vertex -1.5000 0.3235 -1.2074
      endloop
   endfacet
   facet normal -1.0000 0.0000 0.0000
      outer loop
         vertex -1.5000 0.7217 -1.2500
         vertex -1.5000 0.3235 -1.2074
         vertex -1.5000 0.6250 -1.0825
      endloop
   endfacet
   facet normal -1.0000 0.0000 0.0000
      outer loop
         vertex -1.5000 0.7217 -1.2500
         vertex -1.5000 0.6250 -1.0825
         vertex -1.5000 0.8839 -0.8839
      endloop
   endfacet
   facet normal -1.0000 0.0000 0.0000
      outer loop
         vertex -1.5000 0.7217 -1.2500
         vertex -1.5000 0.8839 -0.8839
         vertex -1.5000 1.0825 -0.6250
      endloop
   endfacet
   facet normal -0.9847 -0.0228 0.1729
      outer loop
         vertex -1.1651 0.0000 -0.0000
         vertex -1.5000 0.3235 -1.2074
         vertex -1.5000 -0.0000 -1.2500
      endloop
   endfacet
   facet normal 0.0000 0.0869 -0.9962
      outer loop
         vertex 0.0000 -0.0000 -2.7500
         vertex -2.7000 -0.0000 -2.7500
         vertex -2.7000 0.7118 -2.6563
      endloop
   endfacet
   facet normal 0.0000 0.1739 -0.9848
      outer loop
         vertex 0.0000 -0.0000 -2.7500
         vertex -2.7000 0.7118 -2.6563
         vertex 0.0000 0.7118 -2.6563
      endloop
   endfacet
   facet normal -0.7098 0.1225 -0.6937
      outer loop
         vertex -3.0000 -0.0000 -2.4500
         vertex -3.0000 0.6341 -2.3665
         vertex -2.7000 0.7118 -2.6563
      endloop
   endfacet
   facet normal -0.7098 0.0612 -0.7017
      outer loop
         vertex -3.0000 -0.0000 -2.4500
         vertex -2.7000 0.7118 -2.6563
         vertex -2.7000 -0.0000 -2.7500
      endloop
   endfacet
   facet normal 1.0000 0.0000 0.0000
      outer loop
         vertex 0.0000 2.7500 -0.0000
         vertex 0.0000 2.6563 0.7118
         vertex 0.0000 2.6563 -0.7118
      endloop
   endfacet
   facet normal 1.0000 0.0000 0.0000
      outer loop
         vertex 0.0000 2.6563 -0.7118
         vertex 0.0000 2.6563 0.7118
         vertex 0.0000 2.3816 1.3750
      endloop
   endfacet
   facet normal 1.0000 0.0000 0.0000
      outer loop
         vertex 0.0000 2.6563 -0.7118
         vertex 0.0000 2.3816 1.3750
         vertex 0.0000 2.3816 -1.3750
      endloop
   endfacet
   facet normal 1.0000 0.0000 0.0000
      outer loop
         vertex 0.0000 2.3816 -1.3750
         vertex 0.0000 2.3816 1.3750
         vertex 0.0000 1.9445 1.9445
      endloop
   endfacet
   facet normal 1.0000 0.0000 0.0000
      outer loop
         vertex 0.0000 2.3816 -1.3750
         vertex 0.0000 1.9445 1.9445
         vertex 0.0000 1.9445 -1.9445
      endloop
   endfacet
   facet normal 1.0000 0.0000 0.0000
      outer loop
         vertex 0.0000 1.9445 -1.9445
         vertex 0.0000 1.9445 1.9445
         vertex 0.0000 1.5000 -0.0000
      endloop
   endfacet
   facet normal 1.0000 0.0000 0.0000
      outer loop
         vertex 0.0000 1.9445 -1.9445
         vertex 0.0000 1.5000 -0.0000
         vertex 0.0000 1.4489 -0.3882
      endloop
   endfacet
   facet normal 1.0000 0.0000 0.0000
      outer loop
         vertex 0.0000 1.0607 1.0607
         vertex 0.0000 1.2990 0.7500
         vertex 0.0000 1.3750 2.3816
      endloop
   endfacet
   facet normal 1.0000 0.0000 0.0000
      outer loop
         vertex 0.0000 1.3750 2.3816
         vertex 0.0000 1.2990 0.7500
         vertex 0.0000 1.4489 0.3882
      endloop
   endfacet
   facet normal 1.0000 0.0000 0.0000
      outer loop
         vertex 0.0000 1.3750 2.3816
         vertex 0.0000 1.4489 0.3882
         vertex 0.0000 1.9445 1.9445
      endloop
   endfacet
   facet normal 1.0000 0.0000 0.0000
      outer loop
         vertex 0.0000 1.9445 1.9445
         vertex 0.0000 1.4489 0.3882
         vertex 0.0000 1.5000 -0.0000
      endloop
   endfacet
   facet normal 1.0000 0.0000 0.0000
      outer loop
         vertex 0.0000 -0.3882 1.4489
         vertex 0.0000 0.0000 1.5000
         vertex 0.0000 0.0000 2.7500
      endloop
   endfacet
   facet normal 1.0000 0.0000 0.0000
      outer loop
         vertex 0.0000 0.0000 2.7500
         vertex 0.0000 0.0000 1.5000
         vertex 0.0000 0.3882 1.4489
      endloop
   endfacet
   facet normal 1.0000 0.0000 0.0000
      outer loop
         vertex 0.0000 0.0000 2.7500
         vertex 0.0000 0.3882 1.4489
         vertex 0.0000 0.7118 2.6563
      endloop
   endfacet
   facet normal 1.0000 0.0000 0.0000
      outer loop
         vertex 0.0000 0.7118 2.6563
         vertex 0.0000 0.3882 1.4489
         vertex 0.0000 0.7500 1.2990
      endloop
   endfacet
   facet normal 1.0000 0.0000 0.0000
      outer loop
         vertex 0.0000 0.7118 2.6563
         vertex 0.0000 0.7500 1.2990
         vertex 0.0000 1.3750 2.3816
      endloop
   endfacet
   facet normal 1.0000 0.0000 0.0000
      outer loop
         vertex 0.0000 1.3750 2.3816
         vertex 0.0000 0.7500 1.2990
         vertex 0.0000 1.0607 1.0607
      endloop
   endfacet
   facet normal 1.0000 0.0000 0.0000
      outer loop
         vertex 0.0000 -0.7118 2.6563
         vertex 0.0000 -1.3750 2.3816
         vertex 0.0000 -1.2990 0.7500
      endloop
   endfacet
   facet normal 1.0000 0.0000 0.0000
      outer loop
         vertex 0.0000 -0.7118 2.6563
         vertex 0.0000 -1.2990 0.7500
         vertex 0.0000 -1.0607 1.0607
      endloop
   endfacet
   facet normal 1.0000 0.0000 0.0000
      outer loop
         vertex 0.0000 -0.7118 2.6563
         vertex 0.0000 -1.0607 1.0607
         vertex 0.0000 -0.7500 1.2990
      endloop
   endfacet
   facet normal 1.0000 0.0000 0.0000
      outer loop
         vertex 0.0000 -0.7118 2.6563
         vertex 0.0000 -0.7500 1.2990
         vertex 0.0000 -0.3882 1.4489
      endloop
   endfacet
   facet normal 1.0000 0.0000 0.0000
      outer loop
         vertex 0.0000 -0.7118 2.6563
         vertex 0.0000 -0.3882 1.4489
         vertex 0.0000 0.0000 2.7500
      endloop
   endfacet
   facet normal 1.0000 0.0000 0.0000
      outer loop
         vertex 0.0000 -1.9445 -1.9445
         vertex 0.0000 -1.3750 -2.3816
         vertex 0.0000 -1.9445 1.9445
      endloop
   endfacet
   facet normal 1.0000 0.0000 0.0000
      outer loop
         vertex 0.0000 -1.9445 1.9445
         vertex 0.0000 -1.3750 -2.3816
         vertex 0.0000 -1.5000 0.0000
      endloop
   endfacet
   facet normal 1.0000 0.0000 0.0000
      outer loop
         vertex 0.0000 -1.9445 1.9445
         vertex 0.0000 -1.5000 0.0000
         vertex 0.0000 -1.3750 2.3816
      endloop
   endfacet
   facet normal 1.0000 0.0000 0.0000
      outer loop
         vertex 0.0000 -1.3750 2.3816
         vertex 0.0000 -1.5000 0.0000
         vertex 0.0000 -1.4489 0.3882
      endloop
   endfacet
   facet normal 1.0000 0.0000 0.0000
      outer loop
         vertex 0.0000 -1.3750 2.3816
         vertex 0.0000 -1.4489 0.3882
         vertex 0.0000 -1.2990 0.7500
      endloop
   endfacet
   facet normal 1.0000 0.0000 0.0000
      outer loop
         vertex 0.0000 1.3750 -2.3816
         vertex 0.0000 1.9445 -1.9445
         vertex 0.0000 1.4489 -0.3882
      endloop
   endfacet
   facet normal 1.0000 0.0000 0.0000
      outer loop
         vertex 0.0000 1.3750 -2.3816
         vertex 0.0000 1.4489 -0.3882
         vertex 0.0000 1.2990 -0.7500
      endloop
   endfacet
   facet normal 1.0000 0.0000 0.0000
      outer loop
         vertex 0.0000 1.3750 -2.3816
         vertex 0.0000 1.2990 -0.7500
         vertex 0.0000 1.0607 -1.0607
      endloop
   endfacet
   facet normal 1.0000 0.0000 0.0000
      outer loop
         vertex 0.0000 1.3750 -2.3816
         vertex 0.0000 1.0607 -1.0607
         vertex 0.0000 0.7500 -1.2990
      endloop
   endfacet
   facet normal 1.0000 0.0000 0.0000
      outer loop
         vertex 0.0000 1.3750 -2.3816
         vertex 0.0000 0.7500 -1.2990
         vertex 0.0000 0.7118 -2.6563
      endloop
   endfacet
   facet normal 1.0000 0.0000 0.0000
      outer loop
         vertex 0.0000 0.7500 -1.2990
         vertex 0.0000 0.3882 -1.4489
         vertex 0.0000 0.7118 -2.6563
      endloop
   endfacet
   facet normal 1.0000 0.0000 0.0000
      outer loop
         vertex 0.0000 0.7118 -2.6563
         vertex 0.0000 0.3882 -1.4489
         vertex 0.0000 -0.0000 -1.5000
      endloop
   endfacet
   facet normal 1.0000 0.0000 0.0000
      outer loop
         vertex 0.0000 0.7118 -2.6563
         vertex 0.0000 -0.0000 -1.5000
         vertex 0.0000 -0.0000 -2.7500
      endloop
   endfacet
   facet normal 1.0000 0.0000 0.0000
      outer loop
         vertex 0.0000 -0.0000 -2.7500
         vertex 0.0000 -0.0000 -1.5000
         vertex 0.0000 -0.3882 -1.4489
      endloop
   endfacet
   facet normal 1.0000 0.0000 0.0000
      outer loop
         vertex 0.0000 -0.0000 -2.7500
         vertex 0.0000 -0.3882 -1.4489
         vertex 0.0000 -0.7118 -2.6563
      endloop
   endfacet
   facet normal 1.0000 0.0000 0.0000
      outer loop
         vertex 0.0000 -0.7118 -2.6563
         vertex 0.0000 -0.3882 -1.4489
         vertex 0.0000 -0.7500 -1.2990
      endloop
   endfacet
   facet normal 1.0000 0.0000 0.0000
      outer loop
         vertex 0.0000 -0.7118 -2.6563
         vertex 0.0000 -0.7500 -1.2990
         vertex 0.0000 -1.0607 -1.0607
      endloop
   endfacet
   facet normal 1.0000 0.0000 0.0000
      outer loop
         vertex 0.0000 -1.2990 -0.7500
         vertex 0.0000 -1.4489 -0.3882
         vertex 0.0000 -1.3750 -2.3816
      endloop
   endfacet
   facet normal 1.0000 0.0000 0.0000
      outer loop
         vertex 0.0000 -1.2990 -0.7500
         vertex 0.0000 -1.3750 -2.3816
         vertex 0.0000 -0.7118 -2.6563
      endloop
   endfacet
   facet normal 1.0000 0.0000 0.0000
      outer loop
         vertex 0.0000 -1.2990 -0.7500
         vertex 0.0000 -0.7118 -2.6563
         vertex 0.0000 -1.0607 -1.0607
      endloop
   endfacet
   facet normal 1.0000 0.0000 0.0000
      outer loop
         vertex 0.0000 -2.7500 0.0000
         vertex 0.0000 -2.6563 -0.7118
         vertex 0.0000 -2.6563 0.7118
      endloop
   endfacet
   facet normal 1.0000 0.0000 0.0000
      outer loop
         vertex 0.0000 -2.6563 0.7118
         vertex 0.0000 -2.6563 -0.7118
         vertex 0.0000 -2.3816 -1.3750
      endloop
   endfacet
   facet normal 1.0000 0.0000 0.0000
      outer loop
         vertex 0.0000 -2.6563 0.7118
         vertex 0.0000 -2.3816 -1.3750
         vertex 0.0000 -2.3816 1.3750
      endloop
   endfacet
   facet normal 1.0000 0.0000 0.0000
      outer loop
         vertex 0.0000 -2.3816 1.3750
         vertex 0.0000 -2.3816 -1.3750
         vertex 0.0000 -1.9445 -1.9445
      endloop
   endfacet
   facet normal 1.0000 0.0000 0.0000
      outer loop
         vertex 0.0000 -2.3816 1.3750
         vertex 0.0000 -1.9445 -1.9445
         vertex 0.0000 -1.9445 1.9445
      endloop
   endfacet
   facet normal 1.0000 0.0000 0.0000
      outer loop
         vertex 0.0000 -1.5000 0.0000
         vertex 0.0000 -1.3750 -2.3816
         vertex 0.0000 -1.4489 -0.3882
      endloop
   endfacet
   facet normal 0.0000 0.3418 -0.9398
      outer loop
         vertex 9.6935 0.3882 -1.4489
         vertex 0.0000 0.3882 -1.4489
         vertex 0.0000 0.7500 -1.2990
      endloop
   endfacet
   facet normal 0.0000 0.4228 -0.9062
      outer loop
         vertex 9.6935 0.3882 -1.4489
         vertex 0.0000 0.7500 -1.2990
         vertex 9.6935 0.7500 -1.2990
      endloop
   endfacet
   facet normal 0.7098 0.2978 -0.6383
      outer loop
         vertex 9.6935 0.7500 -1.2990
         vertex 10.0000 0.5968 -1.0336
         vertex 10.0000 0.3089 -1.1528
      endloop
   endfacet
   facet normal 0.7098 0.2408 -0.6620
      outer loop
         vertex 9.6935 0.7500 -1.2990
         vertex 10.0000 0.3089 -1.1528
         vertex 9.6935 0.3882 -1.4489
      endloop
   endfacet
   facet normal -0.9847 -0.0667 0.1611
      outer loop
         vertex -1.5000 0.6250 -1.0825
         vertex -1.5000 0.3235 -1.2074
         vertex -1.1651 0.0000 -0.0000
      endloop
   endfacet
   facet normal 0.0000 0.3418 -0.9398
      outer loop
         vertex 0.0000 0.7118 -2.6563
         vertex -2.7000 0.7118 -2.6563
         vertex -2.7000 1.3750 -2.3816
      endloop
   endfacet
   facet normal 0.0000 0.4228 -0.9062
      outer loop
         vertex 0.0000 0.7118 -2.6563
         vertex -2.7000 1.3750 -2.3816
         vertex 0.0000 1.3750 -2.3816
      endloop
   endfacet
   facet normal -0.7098 0.2408 -0.6620
      outer loop
         vertex -2.7000 0.7118 -2.6563
         vertex -3.0000 0.6341 -2.3665
         vertex -3.0000 1.2250 -2.1218
      endloop
   endfacet
   facet normal -0.7098 0.2978 -0.6383
      outer loop
         vertex -2.7000 0.7118 -2.6563
         vertex -3.0000 1.2250 -2.1218
         vertex -2.7000 1.3750 -2.3816
      endloop
   endfacet
   facet normal 0.0000 0.5734 -0.8193
      outer loop
         vertex 9.6935 0.7500 -1.2990
         vertex 0.0000 0.7500 -1.2990
         vertex 0.0000 1.0607 -1.0607
      endloop
   endfacet
   facet normal 0.0000 0.6430 -0.7659
      outer loop
         vertex 9.6935 0.7500 -1.2990
         vertex 0.0000 1.0607 -1.0607
         vertex 9.6935 1.0607 -1.0607
      endloop
   endfacet
   facet normal 0.7098 0.4039 -0.5771
      outer loop
         vertex 10.0000 0.8439 -0.8439
         vertex 10.0000 0.5968 -1.0336
         vertex 9.6935 0.7500 -1.2990
      endloop
   endfacet
   facet normal 0.7098 0.4529 -0.5395
      outer loop
         vertex 10.0000 0.8439 -0.8439
         vertex 9.6935 0.7500 -1.2990
         vertex 9.6935 1.0607 -1.0607
      endloop
   endfacet
   facet normal 0.0000 -0.8660 0.5000
      outer loop
         vertex -1.5000 1.0825 -0.6250
         vertex -1.5000 1.4434 0.0000
         vertex -3.0000 1.4434 0.0000
      endloop
   endfacet
   facet normal 0.0000 -0.8660 0.5000
      outer loop
         vertex -1.5000 1.0825 -0.6250
         vertex -3.0000 1.4434 0.0000
         vertex -3.0000 0.7217 -1.2500
      endloop
   endfacet
   facet normal 0.0000 -0.8660 0.5000
      outer loop
         vertex -1.5000 1.0825 -0.6250
         vertex -3.0000 0.7217 -1.2500
         vertex -1.5000 0.7217 -1.2500
      endloop
   endfacet
   facet normal -0.9847 -0.1062 0.1384
      outer loop
         vertex -1.5000 0.8839 -0.8839
         vertex -1.5000 0.6250 -1.0825
         vertex -1.1651 0.0000 -0.0000
      endloop
   endfacet
   facet normal 0.0000 0.5734 -0.8193
      outer loop
         vertex 0.0000 1.3750 -2.3816
         vertex -2.7000 1.3750 -2.3816
         vertex -2.7000 1.9445 -1.9445
      endloop
   endfacet
   facet normal 0.0000 0.6430 -0.7659
      outer loop
         vertex 0.0000 1.3750 -2.3816
         vertex -2.7000 1.9445 -1.9445
         vertex 0.0000 1.9445 -1.9445
      endloop
   endfacet
   facet normal -0.7098 0.4529 -0.5395
      outer loop
         vertex -3.0000 1.2250 -2.1218
         vertex -3.0000 1.7324 -1.7324
         vertex -2.7000 1.9445 -1.9445
      endloop
   endfacet
   facet normal -0.7098 0.4039 -0.5771
      outer loop
         vertex -3.0000 1.2250 -2.1218
         vertex -2.7000 1.9445 -1.9445
         vertex -2.7000 1.3750 -2.3816
      endloop
   endfacet
   facet normal 0.0000 0.7659 -0.6430
      outer loop
         vertex 9.6935 1.0607 -1.0607
         vertex 0.0000 1.0607 -1.0607
         vertex 0.0000 1.2990 -0.7500
      endloop
   endfacet
   facet normal 0.0000 0.8193 -0.5734
      outer loop
         vertex 9.6935 1.0607 -1.0607
         vertex 0.0000 1.2990 -0.7500
         vertex 9.6935 1.2990 -0.7500
      endloop
   endfacet
   facet normal 0.7098 0.5395 -0.4529
      outer loop
         vertex 10.0000 1.0336 -0.5968
         vertex 10.0000 0.8439 -0.8439
         vertex 9.6935 1.0607 -1.0607
      endloop
   endfacet
   facet normal 0.7098 0.5771 -0.4039
      outer loop
         vertex 10.0000 1.0336 -0.5968
         vertex 9.6935 1.0607 -1.0607
         vertex 9.6935 1.2990 -0.7500
      endloop
   endfacet
   facet normal -0.9847 -0.1384 0.1062
      outer loop
         vertex -1.1651 0.0000 -0.0000
         vertex -1.5000 1.0825 -0.6250
         vertex -1.5000 0.8839 -0.8839
      endloop
   endfacet
   facet normal 0.0000 0.7659 -0.6430
      outer loop
         vertex 0.0000 1.9445 -1.9445
         vertex -2.7000 1.9445 -1.9445
         vertex -2.7000 2.3816 -1.3750
      endloop
   endfacet
   facet normal 0.0000 0.8193 -0.5734
      outer loop
         vertex 0.0000 1.9445 -1.9445
         vertex -2.7000 2.3816 -1.3750
         vertex 0.0000 2.3816 -1.3750
      endloop
   endfacet
   facet normal -0.7098 0.5395 -0.4529
      outer loop
         vertex -2.7000 2.3816 -1.3750
         vertex -2.7000 1.9445 -1.9445
         vertex -3.0000 1.7324 -1.7324
      endloop
   endfacet
   facet normal -0.7098 0.5771 -0.4039
      outer loop
         vertex -2.7000 2.3816 -1.3750
         vertex -3.0000 1.7324 -1.7324
         vertex -3.0000 2.1218 -1.2250
      endloop
   endfacet
   facet normal 0.0000 0.9062 -0.4228
      outer loop
         vertex 9.6935 1.2990 -0.7500
         vertex 0.0000 1.2990 -0.7500
         vertex 0.0000 1.4489 -0.3882
      endloop
   endfacet
   facet normal 0.0000 0.9398 -0.3418
      outer loop
         vertex 9.6935 1.2990 -0.7500
         vertex 0.0000 1.4489 -0.3882
         vertex 9.6935 1.4489 -0.3882
      endloop
   endfacet
   facet normal 0.7098 0.6383 -0.2978
      outer loop
         vertex 10.0000 1.1528 -0.3089
         vertex 10.0000 1.0336 -0.5968
         vertex 9.6935 1.2990 -0.7500
      endloop
   endfacet
   facet normal 0.7098 0.6620 -0.2408
      outer loop
         vertex 10.0000 1.1528 -0.3089
         vertex 9.6935 1.2990 -0.7500
         vertex 9.6935 1.4489 -0.3882
      endloop
   endfacet
   facet normal -1.0000 0.0000 0.0000
      outer loop
         vertex -1.5000 1.4434 0.0000
         vertex -1.5000 1.0825 -0.6250
         vertex -1.5000 1.2074 -0.3235
      endloop
   endfacet
   facet normal -1.0000 0.0000 0.0000
      outer loop
         vertex -1.5000 1.4434 0.0000
         vertex -1.5000 1.2074 -0.3235
         vertex -1.5000 1.2500 0.0000
      endloop
   endfacet
   facet normal -1.0000 0.0000 0.0000
      outer loop
         vertex -1.5000 1.4434 0.0000
         vertex -1.5000 1.2500 0.0000
         vertex -1.5000 1.2074 0.3235
      endloop
   endfacet
   facet normal -1.0000 0.0000 0.0000
      outer loop
         vertex -1.5000 1.4434 0.0000
         vertex -1.5000 1.2074 0.3235
         vertex -1.5000 1.0825 0.6250
      endloop
   endfacet
   facet normal -0.9847 -0.1611 0.0667
      outer loop
         vertex -1.5000 1.2074 -0.3235
         vertex -1.5000 1.0825 -0.6250
         vertex -1.1651 0.0000 -0.0000
      endloop
   endfacet
   facet normal 0.0000 0.9062 -0.4228
      outer loop
         vertex 0.0000 2.3816 -1.3750
         vertex -2.7000 2.3816 -1.3750
         vertex -2.7000 2.6563 -0.7118
      endloop
   endfacet
   facet normal 0.0000 0.9398 -0.3418
      outer loop
         vertex 0.0000 2.3816 -1.3750
         vertex -2.7000 2.6563 -0.7118
         vertex 0.0000 2.6563 -0.7118
      endloop
   endfacet
   facet normal -0.7098 0.6383 -0.2978
      outer loop
         vertex -2.7000 2.6563 -0.7118
         vertex -2.7000 2.3816 -1.3750
         vertex -3.0000 2.1218 -1.2250
      endloop
   endfacet
   facet normal -0.7098 0.6620 -0.2408
      outer loop
         vertex -2.7000 2.6563 -0.7118
         vertex -3.0000 2.1218 -1.2250
         vertex -3.0000 2.3665 -0.6341
      endloop
   endfacet
   facet normal 0.0000 0.9848 -0.1739
      outer loop
         vertex 9.6935 1.4489 -0.3882
         vertex 0.0000 1.4489 -0.3882
         vertex 0.0000 1.5000 -0.0000
      endloop
   endfacet
   facet normal 0.0000 0.9962 -0.0869
      outer loop
         vertex 9.6935 1.4489 -0.3882
         vertex 0.0000 1.5000 -0.0000
         vertex 9.6935 1.5000 -0.0000
      endloop
   endfacet
   facet normal 0.7098 0.6937 -0.1225
      outer loop
         vertex 10.0000 1.1935 0.0000
         vertex 10.0000 1.1528 -0.3089
         vertex 9.6935 1.4489 -0.3882
      endloop
   endfacet
   facet normal 0.7098 0.7017 -0.0612
      outer loop
         vertex 10.0000 1.1935 0.0000
         vertex 9.6935 1.4489 -0.3882
         vertex 9.6935 1.5000 -0.0000
      endloop
   endfacet
   facet normal -0.9847 -0.1729 0.0228
      outer loop
         vertex -1.1651 0.0000 -0.0000
         vertex -1.5000 1.2500 0.0000
         vertex -1.5000 1.2074 -0.3235
      endloop
   endfacet
   facet normal 0.0000 0.9848 -0.1739
      outer loop
         vertex 0.0000 2.7500 -0.0000
         vertex 0.0000 2.6563 -0.7118
         vertex -2.7000 2.6563 -0.7118
      endloop
   endfacet
   facet normal 0.0000 0.9962 -0.0869
      outer loop
         vertex 0.0000 2.7500 -0.0000
         vertex -2.7000 2.6563 -0.7118
         vertex -2.7000 2.7500 -0.0000
      endloop
   endfacet
   facet normal -0.7098 0.6937 -0.1225
      outer loop
         vertex -2.7000 2.7500 -0.0000
         vertex -2.7000 2.6563 -0.7118
         vertex -3.0000 2.3665 -0.6341
      endloop
   endfacet
   facet normal -0.7098 0.7017 -0.0612
      outer loop
         vertex -2.7000 2.7500 -0.0000
         vertex -3.0000 2.3665 -0.6341
         vertex -3.0000 2.4500 0.0000
      endloop
   endfacet
   facet normal 0.0000 0.9962 0.0869
      outer loop
         vertex 9.6935 1.4489 0.3882
         vertex 9.6935 1.5000 -0.0000
         vertex 0.0000 1.5000 -0.0000
      endloop
   endfacet
   facet normal 0.0000 0.9848 0.1739
      outer loop
         vertex 9.6935 1.4489 0.3882
         vertex 0.0000 1.5000 -0.0000
         vertex 0.0000 1.4489 0.3882
      endloop
   endfacet
   facet normal 0.7098 0.7017 0.0612
      outer loop
         vertex 10.0000 1.1528 0.3089
         vertex 10.0000 1.1935 0.0000
         vertex 9.6935 1.5000 -0.0000
      endloop
   endfacet
   facet normal 0.7098 0.6937 0.1225
      outer loop
         vertex 10.0000 1.1528 0.3089
         vertex 9.6935 1.5000 -0.0000
         vertex 9.6935 1.4489 0.3882
      endloop
   endfacet
   facet normal 0.0000 -0.8660 -0.5000
      outer loop
         vertex -1.5000 1.0825 0.6250
         vertex -1.5000 0.7217 1.2500
         vertex -3.0000 0.7217 1.2500
      endloop
   endfacet
   facet normal 0.0000 -0.8660 -0.5000
      outer loop
         vertex -1.5000 1.0825 0.6250
         vertex -3.0000 0.7217 1.2500
         vertex -3.0000 1.4434 0.0000
      endloop
   endfacet
   facet normal 0.0000 -0.8660 -0.5000
      outer loop
         vertex -1.5000 1.0825 0.6250
         vertex -3.0000 1.4434 0.0000
         vertex -1.5000 1.4434 0.0000
      endloop
   endfacet
   facet normal -0.9847 -0.1729 -0.0228
      outer loop
         vertex -1.1651 0.0000 -0.0000
         vertex -1.5000 1.2074 0.3235
         vertex -1.5000 1.2500 0.0000
      endloop
   endfacet
   facet normal 0.0000 0.9962 0.0869
      outer loop
         vertex 0.0000 2.7500 -0.0000
         vertex -2.7000 2.7500 -0.0000
         vertex -2.7000 2.6563 0.7118
      endloop
   endfacet
   facet normal 0.0000 0.9848 0.1739
      outer loop
         vertex 0.0000 2.7500 -0.0000
         vertex -2.7000 2.6563 0.7118
         vertex 0.0000 2.6563 0.7118
      endloop
   endfacet
   facet normal -0.7098 0.7017 0.0612
      outer loop
         vertex -2.7000 2.6563 0.7118
         vertex -2.7000 2.7500 -0.0000
         vertex -3.0000 2.4500 0.0000
      endloop
   endfacet
   facet normal -0.7098 0.6937 0.1225
      outer loop
         vertex -2.7000 2.6563 0.7118
         vertex -3.0000 2.4500 0.0000
         vertex -3.0000 2.3665 0.6341
      endloop
   endfacet
   facet normal 0.0000 0.9398 0.3418
      outer loop
         vertex 9.6935 1.4489 0.3882
         vertex 0.0000 1.4489 0.3882
         vertex 0.0000 1.2990 0.7500
      endloop
   endfacet
   facet normal 0.0000 0.9062 0.4228
      outer loop
         vertex 9.6935 1.4489 0.3882
         vertex 0.0000 1.2990 0.7500
         vertex 9.6935 1.2990 0.7500
      endloop
   endfacet
   facet normal 0.7098 0.6620 0.2408
      outer loop
         vertex 10.0000 1.0336 0.5968
         vertex 10.0000 1.1528 0.3089
         vertex 9.6935 1.4489 0.3882
      endloop
   endfacet
   facet normal 0.7098 0.6383 0.2978
      outer loop
         vertex 10.0000 1.0336 0.5968
         vertex 9.6935 1.4489 0.3882
         vertex 9.6935 1.2990 0.7500
      endloop
   endfacet
   facet normal -0.9847 -0.1611 -0.0667
      outer loop
         vertex -1.1651 0.0000 -0.0000
         vertex -1.5000 1.0825 0.6250
         vertex -1.5000 1.2074 0.3235
      endloop
   endfacet
   facet normal 0.0000 0.9398 0.3418
      outer loop
         vertex 0.0000 2.6563 0.7118
         vertex -2.7000 2.6563 0.7118
         vertex -2.7000 2.3816 1.3750
      endloop
   endfacet
   facet normal 0.0000 0.9062 0.4228
      outer loop
         vertex 0.0000 2.6563 0.7118
         vertex -2.7000 2.3816 1.3750
         vertex 0.0000 2.3816 1.3750
      endloop
   endfacet
   facet normal -0.7098 0.6620 0.2408
      outer loop
         vertex -2.7000 2.3816 1.3750
         vertex -2.7000 2.6563 0.7118
         vertex -3.0000 2.3665 0.6341
      endloop
   endfacet
   facet normal -0.7098 0.6383 0.2978
      outer loop
         vertex -2.7000 2.3816 1.3750
         vertex -3.0000 2.3665 0.6341
         vertex -3.0000 2.1218 1.2250
      endloop
   endfacet
   facet normal 0.0000 0.8193 0.5734
      outer loop
         vertex 9.6935 1.0607 1.0607
         vertex 9.6935 1.2990 0.7500
         vertex 0.0000 1.2990 0.7500
      endloop
   endfacet
   facet normal 0.0000 0.7659 0.6430
      outer loop
         vertex 9.6935 1.0607 1.0607
         vertex 0.0000 1.2990 0.7500
         vertex 0.0000 1.0607 1.0607
      endloop
   endfacet
   facet normal 0.7098 0.5771 0.4039
      outer loop
         vertex 10.0000 1.0336 0.5968
         vertex 9.6935 1.2990 0.7500
         vertex 9.6935 1.0607 1.0607
      endloop
   endfacet
   facet normal 0.7098 0.5395 0.4529
      outer loop
         vertex 10.0000 1.0336 0.5968
         vertex 9.6935 1.0607 1.0607
         vertex 10.0000 0.8439 0.8439
      endloop
   endfacet
   facet normal -1.0000 0.0000 0.0000
      outer loop
         vertex -1.5000 0.7217 1.2500
         vertex -1.5000 1.0825 0.6250
         vertex -1.5000 0.8839 0.8839
      endloop
   endfacet
   facet normal -1.0000 0.0000 0.0000
      outer loop
         vertex -1.5000 0.7217 1.2500
         vertex -1.5000 0.8839 0.8839
         vertex -1.5000 0.6250 1.0825
      endloop
   endfacet
   facet normal -1.0000 0.0000 0.0000
      outer loop
         vertex -1.5000 0.7217 1.2500
         vertex -1.5000 0.6250 1.0825
         vertex -1.5000 0.3235 1.2074
      endloop
   endfacet
   facet normal -1.0000 0.0000 0.0000
      outer loop
         vertex -1.5000 0.7217 1.2500
         vertex -1.5000 0.3235 1.2074
         vertex -1.5000 0.0000 1.2500
      endloop
   endfacet
   facet normal -0.9847 -0.1384 -0.1062
      outer loop
         vertex -1.1651 0.0000 -0.0000
         vertex -1.5000 0.8839 0.8839
         vertex -1.5000 1.0825 0.6250
      endloop
   endfacet
   facet normal 0.0000 0.8193 0.5734
      outer loop
         vertex 0.0000 2.3816 1.3750
         vertex -2.7000 2.3816 1.3750
         vertex -2.7000 1.9445 1.9445
      endloop
   endfacet
   facet normal 0.0000 0.7659 0.6430
      outer loop
         vertex 0.0000 2.3816 1.3750
         vertex -2.7000 1.9445 1.9445
         vertex 0.0000 1.9445 1.9445
      endloop
   endfacet
   facet normal -0.7098 0.5395 0.4529
      outer loop
         vertex -3.0000 2.1218 1.2250
         vertex -3.0000 1.7324 1.7324
         vertex -2.7000 1.9445 1.9445
      endloop
   endfacet
   facet normal -0.7098 0.5771 0.4039
      outer loop
         vertex -3.0000 2.1218 1.2250
         vertex -2.7000 1.9445 1.9445
         vertex -2.7000 2.3816 1.3750
      endloop
   endfacet
   facet normal 0.0000 0.6430 0.7659
      outer loop
         vertex 9.6935 0.7500 1.2990
         vertex 9.6935 1.0607 1.0607
         vertex 0.0000 1.0607 1.0607
      endloop
   endfacet
   facet normal 0.0000 0.5734 0.8193
      outer loop
         vertex 9.6935 0.7500 1.2990
         vertex 0.0000 1.0607 1.0607
         vertex 0.0000 0.7500 1.2990
      endloop
   endfacet
   facet normal 0.7098 0.4529 0.5395
      outer loop
         vertex 10.0000 0.5968 1.0336
         vertex 10.0000 0.8439 0.8439
         vertex 9.6935 1.0607 1.0607
      endloop
   endfacet
   facet normal 0.7098 0.4039 0.5771
      outer loop
         vertex 10.0000 0.5968 1.0336
         vertex 9.6935 1.0607 1.0607
         vertex 9.6935 0.7500 1.2990
      endloop
   endfacet
   facet normal -0.9847 -0.1062 -0.1384
      outer loop
         vertex -1.1651 0.0000 -0.0000
         vertex -1.5000 0.6250 1.0825
         vertex -1.5000 0.8839 0.8839
      endloop
   endfacet
   facet normal 0.0000 0.6430 0.7659
      outer loop
         vertex 0.0000 1.3750 2.3816
         vertex 0.0000 1.9445 1.9445
         vertex -2.7000 1.9445 1.9445
      endloop
   endfacet
   facet normal 0.0000 0.5734 0.8193
      outer loop
         vertex 0.0000 1.3750 2.3816
         vertex -2.7000 1.9445 1.9445
         vertex -2.7000 1.3750 2.3816
      endloop
   endfacet
   facet normal -0.7098 0.4529 0.5395
      outer loop
         vertex -2.7000 1.3750 2.3816
         vertex -2.7000 1.9445 1.9445
         vertex -3.0000 1.7324 1.7324
      endloop
   endfacet
   facet normal -0.7098 0.4039 0.5771
      outer loop
         vertex -2.7000 1.3750 2.3816
         vertex -3.0000 1.7324 1.7324
         vertex -3.0000 1.2250 2.1218
      endloop
   endfacet
   facet normal 0.0000 0.4228 0.9062
      outer loop
         vertex 9.6935 0.3882 1.4489
         vertex 9.6935 0.7500 1.2990
         vertex 0.0000 0.7500 1.2990
      endloop
   endfacet
   facet normal 0.0000 0.3418 0.9398
      outer loop
         vertex 9.6935 0.3882 1.4489
         vertex 0.0000 0.7500 1.2990
         vertex 0.0000 0.3882 1.4489
      endloop
   endfacet
   facet normal 0.7098 0.2978 0.6383
      outer loop
         vertex 10.0000 0.3089 1.1528
         vertex 10.0000 0.5968 1.0336
         vertex 9.6935 0.7500 1.2990
      endloop
   endfacet
   facet normal 0.7098 0.2408 0.6620
      outer loop
         vertex 10.0000 0.3089 1.1528
         vertex 9.6935 0.7500 1.2990
         vertex 9.6935 0.3882 1.4489
      endloop
   endfacet
   facet normal 0.0000 0.0000 -1.0000
      outer loop
         vertex -3.0000 -0.7217 1.2500
         vertex -3.0000 0.7217 1.2500
         vertex -1.5000 0.7217 1.2500
      endloop
   endfacet
   facet normal 0.0000 0.0000 -1.0000
      outer loop
         vertex -3.0000 -0.7217 1.2500
         vertex -1.5000 0.7217 1.2500
         vertex -1.5000 0.0000 1.2500
      endloop
   endfacet
   facet normal 0.0000 0.0000 -1.0000
      outer loop
         vertex -3.0000 -0.7217 1.2500
         vertex -1.5000 0.0000 1.2500
         vertex -1.5000 -0.7217 1.2500
      endloop
   endfacet
   facet normal -0.9847 -0.0667 -0.1611
      outer loop
         vertex -1.1651 0.0000 -0.0000
         vertex -1.5000 0.3235 1.2074
         vertex -1.5000 0.6250 1.0825
      endloop
   endfacet
   facet normal 0.0000 0.4228 0.9062
      outer loop
         vertex 0.0000 1.3750 2.3816
         vertex -2.7000 1.3750 2.3816
         vertex -2.7000 0.7118 2.6563
      endloop
   endfacet
   facet normal 0.0000 0.3418 0.9398
      outer loop
         vertex 0.0000 1.3750 2.3816
         vertex -2.7000 0.7118 2.6563
         vertex 0.0000 0.7118 2.6563
      endloop
   endfacet
   facet normal -0.7098 0.2978 0.6383
      outer loop
         vertex -2.7000 0.7118 2.6563
         vertex -2.7000 1.3750 2.3816
         vertex -3.0000 1.2250 2.1218
      endloop
   endfacet
   facet normal -0.7098 0.2408 0.6620
      outer loop
         vertex -2.7000 0.7118 2.6563
         vertex -3.0000 1.2250 2.1218
         vertex -3.0000 0.6341 2.3665
      endloop
   endfacet
   facet normal 0.0000 0.1739 0.9848
      outer loop
         vertex 9.6935 0.0000 1.5000
         vertex 9.6935 0.3882 1.4489
         vertex 0.0000 0.3882 1.4489
      endloop
   endfacet
   facet normal 0.0000 0.0869 0.9962
      outer loop
         vertex 9.6935 0.0000 1.5000
         vertex 0.0000 0.3882 1.4489
         vertex 0.0000 0.0000 1.5000
      endloop
   endfacet
   facet normal 0.7098 0.1225 0.6937
      outer loop
         vertex 10.0000 0.0000 1.1935
         vertex 10.0000 0.3089 1.1528
         vertex 9.6935 0.3882 1.4489
      endloop
   endfacet
   facet normal 0.7098 0.0612 0.7017
      outer loop
         vertex 10.0000 0.0000 1.1935
         vertex 9.6935 0.3882 1.4489
         vertex 9.6935 0.0000 1.5000
      endloop
   endfacet
   facet normal -0.9847 -0.0228 -0.1729
      outer loop
         vertex -1.1651 0.0000 -0.0000
         vertex -1.5000 0.0000 1.2500
         vertex -1.5000 0.3235 1.2074
      endloop
   endfacet
   facet normal 0.0000 0.1739 0.9848
      outer loop
         vertex 0.0000 0.7118 2.6563
         vertex -2.7000 0.7118 2.6563
         vertex -2.7000 0.0000 2.7500
      endloop
   endfacet
   facet normal 0.0000 0.0869 0.9962
      outer loop
         vertex 0.0000 0.7118 2.6563
         vertex -2.7000 0.0000 2.7500
         vertex 0.0000 0.0000 2.7500
      endloop
   endfacet
   facet normal -0.7098 0.1225 0.6937
      outer loop
         vertex -2.7000 0.0000 2.7500
         vertex -2.7000 0.7118 2.6563
         vertex -3.0000 0.6341 2.3665
      endloop
   endfacet
   facet normal -0.7098 0.0612 0.7017
      outer loop
         vertex -2.7000 0.0000 2.7500
         vertex -3.0000 0.6341 2.3665
         vertex -3.0000 0.0000 2.4500
      endloop
   endfacet
   facet normal 0.0000 -0.0869 0.9962
      outer loop
         vertex 9.6935 -0.3882 1.4489
         vertex 9.6935 0.0000 1.5000
         vertex 0.0000 0.0000 1.5000
      endloop
   endfacet
   facet normal 0.0000 -0.1739 0.9848
      outer loop
         vertex 9.6935 -0.3882 1.4489
         vertex 0.0000 0.0000 1.5000
         vertex 0.0000 -0.3882 1.4489
      endloop
   endfacet
   facet normal 0.7098 -0.0612 0.7017
      outer loop
         vertex 10.0000 -0.3089 1.1528
         vertex 10.0000 0.0000 1.1935
         vertex 9.6935 0.0000 1.5000
      endloop
   endfacet
   facet normal 0.7098 -0.1225 0.6937
      outer loop
         vertex 10.0000 -0.3089 1.1528
         vertex 9.6935 0.0000 1.5000
         vertex 9.6935 -0.3882 1.4489
      endloop
   endfacet
   facet normal -1.0000 0.0000 0.0000
      outer loop
         vertex -1.5000 -0.7217 1.2500
         vertex -1.5000 0.0000 1.2500
         vertex -1.5000 -0.3235 1.2074
      endloop
   endfacet
   facet normal -1.0000 0.0000 0.0000
      outer loop
         vertex -1.5000 -0.7217 1.2500
         vertex -1.5000 -0.3235 1.2074
         vertex -1.5000 -0.6250 1.0825
      endloop
   endfacet
   facet normal -1.0000 0.0000 0.0000
      outer loop
         vertex -1.5000 -0.7217 1.2500
         vertex -1.5000 -0.6250 1.0825
         vertex -1.5000 -0.8839 0.8839
      endloop
   endfacet
   facet normal -1.0000 0.0000 0.0000
      outer loop
         vertex -1.5000 -0.7217 1.2500
         vertex -1.5000 -0.8839 0.8839
         vertex -1.5000 -1.0825 0.6250
      endloop
   endfacet
   facet normal -0.9847 0.0228 -0.1729
      outer loop
         vertex -1.1651 0.0000 -0.0000
         vertex -1.5000 -0.3235 1.2074
         vertex -1.5000 0.0000 1.2500
      endloop
   endfacet
   facet normal 0.0000 -0.0869 0.9962
      outer loop
         vertex 0.0000 0.0000 2.7500
         vertex -2.7000 0.0000 2.7500
         vertex -2.7000 -0.7118 2.6563
      endloop
   endfacet
   facet normal 0.0000 -0.1739 0.9848
      outer loop
         vertex 0.0000 0.0000 2.7500
         vertex -2.7000 -0.7118 2.6563
         vertex 0.0000 -0.7118 2.6563
      endloop
   endfacet
   facet normal -0.7098 -0.0612 0.7017
      outer loop
         vertex -2.7000 -0.7118 2.6563
         vertex -2.7000 0.0000 2.7500
         vertex -3.0000 0.0000 2.4500
      endloop
   endfacet
   facet normal -0.7098 -0.1225 0.6937
      outer loop
         vertex -2.7000 -0.7118 2.6563
         vertex -3.0000 0.0000 2.4500
         vertex -3.0000 -0.6341 2.3665
      endloop
   endfacet
   facet normal 0.0000 -0.3418 0.9398
      outer loop
         vertex 9.6935 -0.7500 1.2990
         vertex 9.6935 -0.3882 1.4489
         vertex 0.0000 -0.3882 1.4489
      endloop
   endfacet
   facet normal 0.0000 -0.4228 0.9062
      outer loop
         vertex 9.6935 -0.7500 1.2990
         vertex 0.0000 -0.3882 1.4489
         vertex 0.0000 -0.7500 1.2990
      endloop
   endfacet
   facet normal 0.7098 -0.2408 0.6620
      outer loop
         vertex 10.0000 -0.5968 1.0336
         vertex 10.0000 -0.3089 1.1528
         vertex 9.6935 -0.3882 1.4489
      endloop
   endfacet
   facet normal 0.7098 -0.2978 0.6383
      outer loop
         vertex 10.0000 -0.5968 1.0336
         vertex 9.6935 -0.3882 1.4489
         vertex 9.6935 -0.7500 1.2990
      endloop
   endfacet
   facet normal -0.9847 0.0667 -0.1611
      outer loop
         vertex -1.1651 0.0000 -0.0000
         vertex -1.5000 -0.6250 1.0825
         vertex -1.5000 -0.3235 1.2074
      endloop
   endfacet
   facet normal 0.0000 -0.3418 0.9398
      outer loop
         vertex 0.0000 -0.7118 2.6563
         vertex -2.7000 -0.7118 2.6563
         vertex -2.7000 -1.3750 2.3816
      endloop
   endfacet
   facet normal 0.0000 -0.4228 0.9062
      outer loop
         vertex 0.0000 -0.7118 2.6563
         vertex -2.7000 -1.3750 2.3816
         vertex 0.0000 -1.3750 2.3816
      endloop
   endfacet
   facet normal -0.7098 -0.2408 0.6620
      outer loop
         vertex -2.7000 -1.3750 2.3816
         vertex -2.7000 -0.7118 2.6563
         vertex -3.0000 -0.6341 2.3665
      endloop
   endfacet
   facet normal -0.7098 -0.2978 0.6383
      outer loop
         vertex -2.7000 -1.3750 2.3816
         vertex -3.0000 -0.6341 2.3665
         vertex -3.0000 -1.2250 2.1218
      endloop
   endfacet
   facet normal 0.0000 -0.5734 0.8193
      outer loop
         vertex 9.6935 -1.0607 1.0607
         vertex 9.6935 -0.7500 1.2990
         vertex 0.0000 -0.7500 1.2990
      endloop
   endfacet
   facet normal 0.0000 -0.6430 0.7659
      outer loop
         vertex 9.6935 -1.0607 1.0607
         vertex 0.0000 -0.7500 1.2990
         vertex 0.0000 -1.0607 1.0607
      endloop
   endfacet
   facet normal 0.7098 -0.4039 0.5771
      outer loop
         vertex 10.0000 -0.8439 0.8439
         vertex 10.0000 -0.5968 1.0336
         vertex 9.6935 -0.7500 1.2990
      endloop
   endfacet
   facet normal 0.7098 -0.4529 0.5395
      outer loop
         vertex 10.0000 -0.8439 0.8439
         vertex 9.6935 -0.7500 1.2990
         vertex 9.6935 -1.0607 1.0607
      endloop
   endfacet
   facet normal 0.0000 0.8660 -0.5000
      outer loop
         vertex -3.0000 -0.7217 1.2500
         vertex -1.5000 -0.7217 1.2500
         vertex -1.5000 -1.0825 0.6250
      endloop
   endfacet
   facet normal 0.0000 0.8660 -0.5000
      outer loop
         vertex -3.0000 -0.7217 1.2500
         vertex -1.5000 -1.0825 0.6250
         vertex -1.5000 -1.4434 0.0000
      endloop
   endfacet
   facet normal 0.0000 0.8660 -0.5000
      outer loop
         vertex -3.0000 -0.7217 1.2500
         vertex -1.5000 -1.4434 0.0000
         vertex -3.0000 -1.4434 0.0000
      endloop
   endfacet
   facet normal -0.9847 0.1062 -0.1384
      outer loop
         vertex -1.1651 0.0000 -0.0000
         vertex -1.5000 -0.8839 0.8839
         vertex -1.5000 -0.6250 1.0825
      endloop
   endfacet
   facet normal 0.0000 -0.5734 0.8193
      outer loop
         vertex 0.0000 -1.3750 2.3816
         vertex -2.7000 -1.3750 2.3816
         vertex -2.7000 -1.9445 1.9445
      endloop
   endfacet
   facet normal 0.0000 -0.6430 0.7659
      outer loop
         vertex 0.0000 -1.3750 2.3816
         vertex -2.7000 -1.9445 1.9445
         vertex 0.0000 -1.9445 1.9445
      endloop
   endfacet
   facet normal -0.7098 -0.4039 0.5771
      outer loop
         vertex -2.7000 -1.9445 1.9445
         vertex -2.7000 -1.3750 2.3816
         vertex -3.0000 -1.2250 2.1218
      endloop
   endfacet
   facet normal -0.7098 -0.4529 0.5395
      outer loop
         vertex -2.7000 -1.9445 1.9445
         vertex -3.0000 -1.2250 2.1218
         vertex -3.0000 -1.7324 1.7324
      endloop
   endfacet
   facet normal 0.0000 -0.7659 0.6430
      outer loop
         vertex 9.6935 -1.2990 0.7500
         vertex 9.6935 -1.0607 1.0607
         vertex 0.0000 -1.0607 1.0607
      endloop
   endfacet
   facet normal 0.0000 -0.8193 0.5734
      outer loop
         vertex 9.6935 -1.2990 0.7500
         vertex 0.0000 -1.0607 1.0607
         vertex 0.0000 -1.2990 0.7500
      endloop
   endfacet
   facet normal 0.7098 -0.5395 0.4529
      outer loop
         vertex 10.0000 -1.0336 0.5968
         vertex 10.0000 -0.8439 0.8439
         vertex 9.6935 -1.0607 1.0607
      endloop
   endfacet
   facet normal 0.7098 -0.5771 0.4039
      outer loop
         vertex 10.0000 -1.0336 0.5968
         vertex 9.6935 -1.0607 1.0607
         vertex 9.6935 -1.2990 0.7500
      endloop
   endfacet
   facet normal -0.9847 0.1384 -0.1062
      outer loop
         vertex -1.1651 0.0000 -0.0000
         vertex -1.5000 -1.0825 0.6250
         vertex -1.5000 -0.8839 0.8839
      endloop
   endfacet
   facet normal 0.0000 -0.7659 0.6430
      outer loop
         vertex 0.0000 -1.9445 1.9445
         vertex -2.7000 -1.9445 1.9445
         vertex -2.7000 -2.3816 1.3750
      endloop
   endfacet
   facet normal 0.0000 -0.8193 0.5734
      outer loop
         vertex 0.0000 -1.9445 1.9445
         vertex -2.7000 -2.3816 1.3750
         vertex 0.0000 -2.3816 1.3750
      endloop
   endfacet
   facet normal -0.7098 -0.5771 0.4039
      outer loop
         vertex -3.0000 -1.7324 1.7324
         vertex -3.0000 -2.1218 1.2250
         vertex -2.7000 -2.3816 1.3750
      endloop
   endfacet
   facet normal -0.7098 -0.5395 0.4529
      outer loop
         vertex -3.0000 -1.7324 1.7324
         vertex -2.7000 -2.3816 1.3750
         vertex -2.7000 -1.9445 1.9445
      endloop
   endfacet
   facet normal 0.0000 -0.9062 0.4228
      outer loop
         vertex 9.6935 -1.4489 0.3882
         vertex 9.6935 -1.2990 0.7500
         vertex 0.0000 -1.2990 0.7500
      endloop
   endfacet
   facet normal 0.0000 -0.9398 0.3418
      outer loop
         vertex 9.6935 -1.4489 0.3882
         vertex 0.0000 -1.2990 0.7500
         vertex 0.0000 -1.4489 0.3882
      endloop
   endfacet
   facet normal 0.7098 -0.6383 0.2978
      outer loop
         vertex 10.0000 -1.1528 0.3089
         vertex 10.0000 -1.0336 0.5968
         vertex 9.6935 -1.2990 0.7500
      endloop
   endfacet
   facet normal 0.7098 -0.6620 0.2408
      outer loop
         vertex 10.0000 -1.1528 0.3089
         vertex 9.6935 -1.2990 0.7500
         vertex 9.6935 -1.4489 0.3882
      endloop
   endfacet
   facet normal -1.0000 0.0000 0.0000
      outer loop
         vertex -1.5000 -1.4434 0.0000
         vertex -1.5000 -1.0825 0.6250
         vertex -1.5000 -1.2074 0.3235
      endloop
   endfacet
   facet normal -1.0000 0.0000 0.0000
      outer loop
         vertex -1.5000 -1.4434 0.0000
         vertex -1.5000 -1.2074 0.3235
         vertex -1.5000 -1.2500 0.0000
      endloop
   endfacet
   facet normal -1.0000 0.0000 0.0000
      outer loop
         vertex -1.5000 -1.4434 0.0000
         vertex -1.5000 -1.2500 0.0000
         vertex -1.5000 -1.2074 -0.3235
      endloop
   endfacet
   facet normal -1.0000 0.0000 0.0000
      outer loop
         vertex -1.5000 -1.4434 0.0000
         vertex -1.5000 -1.2074 -0.3235
         vertex -1.5000 -1.0825 -0.6250
      endloop
   endfacet
   facet normal -0.9847 0.1611 -0.0667
      outer loop
         vertex -1.1651 0.0000 -0.0000
         vertex -1.5000 -1.2074 0.3235
         vertex -1.5000 -1.0825 0.6250
      endloop
   endfacet
   facet normal 0.0000 -0.9062 0.4228
      outer loop
         vertex 0.0000 -2.3816 1.3750
         vertex -2.7000 -2.3816 1.3750
         vertex -2.7000 -2.6563 0.7118
      endloop
   endfacet
   facet normal 0.0000 -0.9398 0.3418
      outer loop
         vertex 0.0000 -2.3816 1.3750
         vertex -2.7000 -2.6563 0.7118
         vertex 0.0000 -2.6563 0.7118
      endloop
   endfacet
   facet normal -0.7098 -0.6383 0.2978
      outer loop
         vertex -2.7000 -2.6563 0.7118
         vertex -2.7000 -2.3816 1.3750
         vertex -3.0000 -2.1218 1.2250
      endloop
   endfacet
   facet normal -0.7098 -0.6620 0.2408
      outer loop
         vertex -2.7000 -2.6563 0.7118
         vertex -3.0000 -2.1218 1.2250
         vertex -3.0000 -2.3665 0.6341
      endloop
   endfacet
   facet normal 0.0000 -0.9848 0.1739
      outer loop
         vertex 9.6935 -1.5000 0.0000
         vertex 9.6935 -1.4489 0.3882
         vertex 0.0000 -1.4489 0.3882
      endloop
   endfacet
   facet normal 0.0000 -0.9962 0.0869
      outer loop
         vertex 9.6935 -1.5000 0.0000
         vertex 0.0000 -1.4489 0.3882
         vertex 0.0000 -1.5000 0.0000
      endloop
   endfacet
   facet normal 0.7098 -0.6937 0.1225
      outer loop
         vertex 10.0000 -1.1935 0.0000
         vertex 10.0000 -1.1528 0.3089
         vertex 9.6935 -1.4489 0.3882
      endloop
   endfacet
   facet normal 0.7098 -0.7017 0.0612
      outer loop
         vertex 10.0000 -1.1935 0.0000
         vertex 9.6935 -1.4489 0.3882
         vertex 9.6935 -1.5000 0.0000
      endloop
   endfacet
   facet normal -0.9847 0.1729 -0.0228
      outer loop
         vertex -1.1651 0.0000 -0.0000
         vertex -1.5000 -1.2500 0.0000
         vertex -1.5000 -1.2074 0.3235
      endloop
   endfacet
   facet normal 0.0000 -0.9848 0.1739
      outer loop
         vertex 0.0000 -2.7500 0.0000
         vertex 0.0000 -2.6563 0.7118
         vertex -2.7000 -2.6563 0.7118
      endloop
   endfacet
   facet normal 0.0000 -0.9962 0.0869
      outer loop
         vertex 0.0000 -2.7500 0.0000
         vertex -2.7000 -2.6563 0.7118
         vertex -2.7000 -2.7500 0.0000
      endloop
   endfacet
   facet normal -0.7098 -0.6937 0.1225
      outer loop
         vertex -2.7000 -2.7500 0.0000
         vertex -2.7000 -2.6563 0.7118
         vertex -3.0000 -2.3665 0.6341
      endloop
   endfacet
   facet normal -0.7098 -0.7017 0.0612
      outer loop
         vertex -2.7000 -2.7500 0.0000
         vertex -3.0000 -2.3665 0.6341
         vertex -3.0000 -2.4500 0.0000
      endloop
   endfacet
   facet normal 0.0000 -0.9848 -0.1739
      outer loop
         vertex 0.0000 -1.5000 0.0000
         vertex 0.0000 -1.4489 -0.3882
         vertex 9.6935 -1.4489 -0.3882
      endloop
   endfacet
   facet normal 0.0000 -0.9962 -0.0869
      outer loop
         vertex 0.0000 -1.5000 0.0000
         vertex 9.6935 -1.4489 -0.3882
         vertex 9.6935 -1.5000 0.0000
      endloop
   endfacet
   facet normal 0.7098 -0.7017 -0.0612
      outer loop
         vertex 10.0000 -1.1528 -0.3089
         vertex 10.0000 -1.1935 0.0000
         vertex 9.6935 -1.5000 0.0000
      endloop
   endfacet
   facet normal 0.7098 -0.6937 -0.1225
      outer loop
         vertex 10.0000 -1.1528 -0.3089
         vertex 9.6935 -1.5000 0.0000
         vertex 9.6935 -1.4489 -0.3882
      endloop
   endfacet
   facet normal 0.0000 0.8660 0.5000
      outer loop
         vertex -3.0000 -1.4434 0.0000
         vertex -1.5000 -1.4434 0.0000
         vertex -1.5000 -1.0825 -0.6250
      endloop
   endfacet
   facet normal 0.0000 0.8660 0.5000
      outer loop
         vertex -3.0000 -1.4434 0.0000
         vertex -1.5000 -1.0825 -0.6250
         vertex -1.5000 -0.7217 -1.2500
      endloop
   endfacet
   facet normal 0.0000 0.8660 0.5000
      outer loop
         vertex -3.0000 -1.4434 0.0000
         vertex -1.5000 -0.7217 -1.2500
         vertex -3.0000 -0.7217 -1.2500
      endloop
   endfacet
   facet normal -0.9847 0.1729 0.0228
      outer loop
         vertex -1.1651 0.0000 -0.0000
         vertex -1.5000 -1.2074 -0.3235
         vertex -1.5000 -1.2500 0.0000
      endloop
   endfacet
   facet normal 0.0000 -0.9962 -0.0869
      outer loop
         vertex 0.0000 -2.7500 0.0000
         vertex -2.7000 -2.7500 0.0000
         vertex -2.7000 -2.6563 -0.7118
      endloop
   endfacet
   facet normal 0.0000 -0.9848 -0.1739
      outer loop
         vertex 0.0000 -2.7500 0.0000
         vertex -2.7000 -2.6563 -0.7118
         vertex 0.0000 -2.6563 -0.7118
      endloop
   endfacet
   facet normal -0.7098 -0.7017 -0.0612
      outer loop
         vertex -2.7000 -2.6563 -0.7118
         vertex -2.7000 -2.7500 0.0000
         vertex -3.0000 -2.4500 0.0000
      endloop
   endfacet
   facet normal -0.7098 -0.6937 -0.1225
      outer loop
         vertex -2.7000 -2.6563 -0.7118
         vertex -3.0000 -2.4500 0.0000
         vertex -3.0000 -2.3665 -0.6341
      endloop
   endfacet
   facet normal 0.0000 -0.9062 -0.4228
      outer loop
         vertex 0.0000 -1.4489 -0.3882
         vertex 0.0000 -1.2990 -0.7500
         vertex 9.6935 -1.2990 -0.7500
      endloop
   endfacet
   facet normal 0.0000 -0.9398 -0.3418
      outer loop
         vertex 0.0000 -1.4489 -0.3882
         vertex 9.6935 -1.2990 -0.7500
         vertex 9.6935 -1.4489 -0.3882
      endloop
   endfacet
   facet normal 0.7098 -0.6620 -0.2408
      outer loop
         vertex 10.0000 -1.0336 -0.5968
         vertex 10.0000 -1.1528 -0.3089
         vertex 9.6935 -1.4489 -0.3882
      endloop
   endfacet
   facet normal 0.7098 -0.6383 -0.2978
      outer loop
         vertex 10.0000 -1.0336 -0.5968
         vertex 9.6935 -1.4489 -0.3882
         vertex 9.6935 -1.2990 -0.7500
      endloop
   endfacet
   facet normal -0.9847 0.1611 0.0667
      outer loop
         vertex -1.1651 0.0000 -0.0000
         vertex -1.5000 -1.0825 -0.6250
         vertex -1.5000 -1.2074 -0.3235
      endloop
   endfacet
   facet normal 0.0000 -0.9398 -0.3418
      outer loop
         vertex 0.0000 -2.3816 -1.3750
         vertex 0.0000 -2.6563 -0.7118
         vertex -2.7000 -2.6563 -0.7118
      endloop
   endfacet
   facet normal 0.0000 -0.9062 -0.4228
      outer loop
         vertex 0.0000 -2.3816 -1.3750
         vertex -2.7000 -2.6563 -0.7118
         vertex -2.7000 -2.3816 -1.3750
      endloop
   endfacet
   facet normal -0.7098 -0.6620 -0.2408
      outer loop
         vertex -2.7000 -2.3816 -1.3750
         vertex -2.7000 -2.6563 -0.7118
         vertex -3.0000 -2.3665 -0.6341
      endloop
   endfacet
   facet normal -0.7098 -0.6383 -0.2978
      outer loop
         vertex -2.7000 -2.3816 -1.3750
         vertex -3.0000 -2.3665 -0.6341
         vertex -3.0000 -2.1218 -1.2250
      endloop
   endfacet
   facet normal 0.0000 -0.8193 -0.5734
      outer loop
         vertex 9.6935 -1.2990 -0.7500
         vertex 0.0000 -1.2990 -0.7500
         vertex 0.0000 -1.0607 -1.0607
      endloop
   endfacet
   facet normal 0.0000 -0.7659 -0.6430
      outer loop
         vertex 9.6935 -1.2990 -0.7500
         vertex 0.0000 -1.0607 -1.0607
         vertex 9.6935 -1.0607 -1.0607
      endloop
   endfacet
   facet normal 0.7098 -0.5771 -0.4039
      outer loop
         vertex 10.0000 -0.8439 -0.8439
         vertex 10.0000 -1.0336 -0.5968
         vertex 9.6935 -1.2990 -0.7500
      endloop
   endfacet
   facet normal 0.7098 -0.5395 -0.4529
      outer loop
         vertex 10.0000 -0.8439 -0.8439
         vertex 9.6935 -1.2990 -0.7500
         vertex 9.6935 -1.0607 -1.0607
      endloop
   endfacet
   facet normal -1.0000 0.0000 0.0000
      outer loop
         vertex -1.5000 -0.7217 -1.2500
         vertex -1.5000 -1.0825 -0.6250
         vertex -1.5000 -0.8839 -0.8839
      endloop
   endfacet
   facet normal -1.0000 0.0000 0.0000
      outer loop
         vertex -1.5000 -0.7217 -1.2500
         vertex -1.5000 -0.8839 -0.8839
         vertex -1.5000 -0.6250 -1.0825
      endloop
   endfacet
   facet normal -1.0000 0.0000 0.0000
      outer loop
         vertex -1.5000 -0.7217 -1.2500
         vertex -1.5000 -0.6250 -1.0825
         vertex -1.5000 -0.3235 -1.2074
      endloop
   endfacet
   facet normal -1.0000 0.0000 0.0000
      outer loop
         vertex -1.5000 -0.7217 -1.2500
         vertex -1.5000 -0.3235 -1.2074
         vertex -1.5000 -0.0000 -1.2500
      endloop
   endfacet
   facet normal -0.9847 0.1384 0.1062
      outer loop
         vertex -1.1651 0.0000 -0.0000
         vertex -1.5000 -0.8839 -0.8839
         vertex -1.5000 -1.0825 -0.6250
      endloop
   endfacet
   facet normal 0.0000 -0.8193 -0.5734
      outer loop
         vertex 0.0000 -2.3816 -1.3750
         vertex -2.7000 -2.3816 -1.3750
         vertex -2.7000 -1.9445 -1.9445
      endloop
   endfacet
   facet normal 0.0000 -0.7659 -0.6430
      outer loop
         vertex 0.0000 -2.3816 -1.3750
         vertex -2.7000 -1.9445 -1.9445
         vertex 0.0000 -1.9445 -1.9445
      endloop
   endfacet
   facet normal -0.7098 -0.5395 -0.4529
      outer loop
         vertex -3.0000 -2.1218 -1.2250
         vertex -3.0000 -1.7324 -1.7324
         vertex -2.7000 -1.9445 -1.9445
      endloop
   endfacet
   facet normal -0.7098 -0.5771 -0.4039
      outer loop
         vertex -3.0000 -2.1218 -1.2250
         vertex -2.7000 -1.9445 -1.9445
         vertex -2.7000 -2.3816 -1.3750
      endloop
   endfacet
   facet normal 0.0000 -0.6430 -0.7659
      outer loop
         vertex 9.6935 -1.0607 -1.0607
         vertex 0.0000 -1.0607 -1.0607
         vertex 0.0000 -0.7500 -1.2990
      endloop
   endfacet
   facet normal 0.0000 -0.5734 -0.8193
      outer loop
         vertex 9.6935 -1.0607 -1.0607
         vertex 0.0000 -0.7500 -1.2990
         vertex 9.6935 -0.7500 -1.2990
      endloop
   endfacet
   facet normal 0.7098 -0.4529 -0.5395
      outer loop
         vertex 10.0000 -0.5968 -1.0336
         vertex 10.0000 -0.8439 -0.8439
         vertex 9.6935 -1.0607 -1.0607
      endloop
   endfacet
   facet normal 0.7098 -0.4039 -0.5771
      outer loop
         vertex 10.0000 -0.5968 -1.0336
         vertex 9.6935 -1.0607 -1.0607
         vertex 9.6935 -0.7500 -1.2990
      endloop
   endfacet
   facet normal -0.9847 0.1062 0.1384
      outer loop
         vertex -1.1651 0.0000 -0.0000
         vertex -1.5000 -0.6250 -1.0825
         vertex -1.5000 -0.8839 -0.8839
      endloop
   endfacet
   facet normal 0.0000 -0.6430 -0.7659
      outer loop
         vertex 0.0000 -1.3750 -2.3816
         vertex 0.0000 -1.9445 -1.9445
         vertex -2.7000 -1.9445 -1.9445
      endloop
   endfacet
   facet normal 0.0000 -0.5734 -0.8193
      outer loop
         vertex 0.0000 -1.3750 -2.3816
         vertex -2.7000 -1.9445 -1.9445
         vertex -2.7000 -1.3750 -2.3816
      endloop
   endfacet
   facet normal -0.7098 -0.4529 -0.5395
      outer loop
         vertex -2.7000 -1.3750 -2.3816
         vertex -2.7000 -1.9445 -1.9445
         vertex -3.0000 -1.7324 -1.7324
      endloop
   endfacet
   facet normal -0.7098 -0.4039 -0.5771
      outer loop
         vertex -2.7000 -1.3750 -2.3816
         vertex -3.0000 -1.7324 -1.7324
         vertex -3.0000 -1.2250 -2.1218
      endloop
   endfacet
   facet normal 0.0000 -0.4228 -0.9062
      outer loop
         vertex 9.6935 -0.7500 -1.2990
         vertex 0.0000 -0.7500 -1.2990
         vertex 0.0000 -0.3882 -1.4489
      endloop
   endfacet
   facet normal 0.0000 -0.3418 -0.9398
      outer loop
         vertex 9.6935 -0.7500 -1.2990
         vertex 0.0000 -0.3882 -1.4489
         vertex 9.6935 -0.3882 -1.4489
      endloop
   endfacet
   facet normal 0.7098 -0.2978 -0.6383
      outer loop
         vertex 10.0000 -0.3089 -1.1528
         vertex 10.0000 -0.5968 -1.0336
         vertex 9.6935 -0.7500 -1.2990
      endloop
   endfacet
   facet normal 0.7098 -0.2408 -0.6620
      outer loop
         vertex 10.0000 -0.3089 -1.1528
         vertex 9.6935 -0.7500 -1.2990
         vertex 9.6935 -0.3882 -1.4489
      endloop
   endfacet
   facet normal 0.0000 0.0000 1.0000
      outer loop
         vertex -3.0000 0.7217 -1.2500
         vertex -3.0000 -0.7217 -1.2500
         vertex -1.5000 -0.7217 -1.2500
      endloop
   endfacet
   facet normal 0.0000 0.0000 1.0000
      outer loop
         vertex -3.0000 0.7217 -1.2500
         vertex -1.5000 -0.7217 -1.2500
         vertex -1.5000 -0.0000 -1.2500
      endloop
   endfacet
   facet normal 0.0000 0.0000 1.0000
      outer loop
         vertex -3.0000 0.7217 -1.2500
         vertex -1.5000 -0.0000 -1.2500
         vertex -1.5000 0.7217 -1.2500
      endloop
   endfacet
   facet normal -0.9847 0.0667 0.1611
      outer loop
         vertex -1.5000 -0.3235 -1.2074
         vertex -1.5000 -0.6250 -1.0825
         vertex -1.1651 0.0000 -0.0000
      endloop
   endfacet
   facet normal 0.0000 -0.4228 -0.9062
      outer loop
         vertex 0.0000 -1.3750 -2.3816
         vertex -2.7000 -1.3750 -2.3816
         vertex -2.7000 -0.7118 -2.6563
      endloop
   endfacet
   facet normal 0.0000 -0.3418 -0.9398
      outer loop
         vertex 0.0000 -1.3750 -2.3816
         vertex -2.7000 -0.7118 -2.6563
         vertex 0.0000 -0.7118 -2.6563
      endloop
   endfacet
   facet normal -0.7098 -0.2978 -0.6383
      outer loop
         vertex -2.7000 -0.7118 -2.6563
         vertex -2.7000 -1.3750 -2.3816
         vertex -3.0000 -1.2250 -2.1218
      endloop
   endfacet
   facet normal -0.7098 -0.2408 -0.6620
      outer loop
         vertex -2.7000 -0.7118 -2.6563
         vertex -3.0000 -1.2250 -2.1218
         vertex -3.0000 -0.6341 -2.3665
      endloop
   endfacet
   facet normal 0.0000 -0.1739 -0.9848
      outer loop
         vertex 9.6935 -0.3882 -1.4489
         vertex 0.0000 -0.3882 -1.4489
         vertex 0.0000 -0.0000 -1.5000
      endloop
   endfacet
   facet normal 0.0000 -0.0869 -0.9962
      outer loop
         vertex 9.6935 -0.3882 -1.4489
         vertex 0.0000 -0.0000 -1.5000
         vertex 9.6935 -0.0000 -1.5000
      endloop
   endfacet
   facet normal 0.7098 -0.1225 -0.6937
      outer loop
         vertex 10.0000 -0.0000 -1.1935
         vertex 10.0000 -0.3089 -1.1528
         vertex 9.6935 -0.3882 -1.4489
      endloop
   endfacet
   facet normal 0.7098 -0.0612 -0.7017
      outer loop
         vertex 10.0000 -0.0000 -1.1935
         vertex 9.6935 -0.3882 -1.4489
         vertex 9.6935 -0.0000 -1.5000
      endloop
   endfacet
   facet normal -0.9847 0.0228 0.1729
      outer loop
         vertex -1.5000 -0.0000 -1.2500
         vertex -1.5000 -0.3235 -1.2074
         vertex -1.1651 0.0000 -0.0000
      endloop
   endfacet
   facet normal 0.0000 -0.1739 -0.9848
      outer loop
         vertex 0.0000 -0.7118 -2.6563
         vertex -2.7000 -0.7118 -2.6563
         vertex -2.7000 -0.0000 -2.7500
      endloop
   endfacet
   facet normal 0.0000 -0.0869 -0.9962
      outer loop
         vertex 0.0000 -0.7118 -2.6563
         vertex -2.7000 -0.0000 -2.7500
         vertex 0.0000 -0.0000 -2.7500
      endloop
   endfacet
   facet normal -0.7098 -0.1225 -0.6937
      outer loop
         vertex -2.7000 -0.0000 -2.7500
         vertex -2.7000 -0.7118 -2.6563
         vertex -3.0000 -0.6341 -2.3665
      endloop
   endfacet
   facet normal -0.7098 -0.0612 -0.7017
      outer loop
         vertex -2.7000 -0.0000 -2.7500
         vertex -3.0000 -0.6341 -2.3665
         vertex -3.0000 -0.0000 -2.4500
      endloop
   endfacet
endsolid
