solid
   facet normal 0.3333 -0.6667 -0.6667
      outer loop
         vertex 0.0000 0.0000 0.0000
         vertex 2.0000 0.0000 1.0000
         vertex 0.0000 -1.0000 1.0000
      endloop
   endfacet
   facet normal -1.0000 0.0000 0.0000
      outer loop
         vertex 0.0000 0.0000 0.0000
         vertex 0.0000 -1.0000 1.0000
         vertex 0.0000 1.0000 1.0000
      endloop
   endfacet
   facet normal 0.3333 0.6667 -0.6667
      outer loop
         vertex 0.0000 0.0000 0.0000
         vertex 0.0000 1.0000 1.0000
         vertex 2.0000 0.0000 1.0000
      endloop
   endfacet
   facet normal 0.0000 0.0000 1.0000
      outer loop
         vertex 0.0000 1.0000 1.0000
         vertex 0.0000 -1.0000 1.0000
         vertex 2.0000 0.0000 1.0000
      endloop
   endfacet
endsolid
