solid PARTassembly
   facet normal -1.0000 0.0000 0.0000
      outer loop
         vertex 0.0000 4.0000 0.0000
         vertex 0.0000 3.8637 -1.0353
         vertex 0.0000 3.8637 1.0353
      endloop
   endfacet
   facet normal -1.0000 0.0000 0.0000
      outer loop
         vertex 0.0000 3.8637 1.0353
         vertex 0.0000 3.8637 -1.0353
         vertex 0.0000 3.4641 -2.0000
      endloop
   endfacet
   facet normal -1.0000 0.0000 0.0000
      outer loop
         vertex 0.0000 3.8637 1.0353
         vertex 0.0000 3.4641 -2.0000
         vertex 0.0000 3.4641 2.0000
      endloop
   endfacet
   facet normal -1.0000 0.0000 0.0000
      outer loop
         vertex 0.0000 3.4641 2.0000
         vertex 0.0000 3.4641 -2.0000
         vertex 0.0000 3.0000 0.0000
      endloop
   endfacet
   facet normal -1.0000 0.0000 0.0000
      outer loop
         vertex 0.0000 3.4641 2.0000
         vertex 0.0000 3.0000 0.0000
         vertex 0.0000 2.8978 0.7765
      endloop
   endfacet
   facet normal -1.0000 0.0000 0.0000
      outer loop
         vertex 0.0000 2.1213 -2.1213
         vertex 0.0000 2.5981 -1.5000
         vertex 0.0000 2.8284 -2.8284
      endloop
   endfacet
   facet normal -1.0000 0.0000 0.0000
      outer loop
         vertex 0.0000 2.8284 -2.8284
         vertex 0.0000 2.5981 -1.5000
         vertex 0.0000 2.8978 -0.7765
      endloop
   endfacet
   facet normal -1.0000 0.0000 0.0000
      outer loop
         vertex 0.0000 2.8284 -2.8284
         vertex 0.0000 2.8978 -0.7765
         vertex 0.0000 3.4641 -2.0000
      endloop
   endfacet
   facet normal -1.0000 0.0000 0.0000
      outer loop
         vertex 0.0000 3.4641 -2.0000
         vertex 0.0000 2.8978 -0.7765
         vertex 0.0000 3.0000 0.0000
      endloop
   endfacet
   facet normal -1.0000 0.0000 0.0000
      outer loop
         vertex 0.0000 -0.0000 -3.0000
         vertex 0.0000 0.7765 -2.8978
         vertex 0.0000 1.0353 -3.8637
      endloop
   endfacet
   facet normal -1.0000 0.0000 0.0000
      outer loop
         vertex 0.0000 1.0353 -3.8637
         vertex 0.0000 0.7765 -2.8978
         vertex 0.0000 1.5000 -2.5981
      endloop
   endfacet
   facet normal -1.0000 0.0000 0.0000
      outer loop
         vertex 0.0000 1.0353 -3.8637
         vertex 0.0000 1.5000 -2.5981
         vertex 0.0000 2.0000 -3.4641
      endloop
   endfacet
   facet normal -1.0000 0.0000 0.0000
      outer loop
         vertex 0.0000 2.0000 -3.4641
         vertex 0.0000 1.5000 -2.5981
         vertex 0.0000 2.1213 -2.1213
      endloop
   endfacet
   facet normal -1.0000 0.0000 0.0000
      outer loop
         vertex 0.0000 2.0000 -3.4641
         vertex 0.0000 2.1213 -2.1213
         vertex 0.0000 2.8284 -2.8284
      endloop
   endfacet
   facet normal -1.0000 0.0000 0.0000
      outer loop
         vertex 0.0000 -2.5981 -1.5000
         vertex 0.0000 -2.1213 -2.1213
         vertex 0.0000 -2.0000 -3.4641
      endloop
   endfacet
   facet normal -1.0000 0.0000 0.0000
      outer loop
         vertex 0.0000 -2.0000 -3.4641
         vertex 0.0000 -2.1213 -2.1213
         vertex 0.0000 -1.5000 -2.5981
      endloop
   endfacet
   facet normal -1.0000 0.0000 0.0000
      outer loop
         vertex 0.0000 -2.0000 -3.4641
         vertex 0.0000 -1.5000 -2.5981
         vertex 0.0000 -1.0353 -3.8637
      endloop
   endfacet
   facet normal -1.0000 0.0000 0.0000
      outer loop
         vertex 0.0000 -1.0353 -3.8637
         vertex 0.0000 -1.5000 -2.5981
         vertex 0.0000 -0.7765 -2.8978
      endloop
   endfacet
   facet normal -1.0000 0.0000 0.0000
      outer loop
         vertex 0.0000 -1.0353 -3.8637
         vertex 0.0000 -0.7765 -2.8978
         vertex 0.0000 -0.0000 -4.0000
      endloop
   endfacet
   facet normal -1.0000 0.0000 0.0000
      outer loop
         vertex 0.0000 -0.0000 -4.0000
         vertex 0.0000 -0.7765 -2.8978
         vertex 0.0000 -0.0000 -3.0000
      endloop
   endfacet
   facet normal -1.0000 0.0000 0.0000
      outer loop
         vertex 0.0000 -0.0000 -4.0000
         vertex 0.0000 -0.0000 -3.0000
         vertex 0.0000 1.0353 -3.8637
      endloop
   endfacet
   facet normal -1.0000 0.0000 0.0000
      outer loop
         vertex 0.0000 -2.8284 -2.8284
         vertex 0.0000 -3.4641 -2.0000
         vertex 0.0000 -3.0000 0.0000
      endloop
   endfacet
   facet normal -1.0000 0.0000 0.0000
      outer loop
         vertex 0.0000 -2.8284 -2.8284
         vertex 0.0000 -3.0000 0.0000
         vertex 0.0000 -2.8978 -0.7765
      endloop
   endfacet
   facet normal -1.0000 0.0000 0.0000
      outer loop
         vertex 0.0000 -2.8284 -2.8284
         vertex 0.0000 -2.8978 -0.7765
         vertex 0.0000 -2.5981 -1.5000
      endloop
   endfacet
   facet normal -1.0000 0.0000 0.0000
      outer loop
         vertex 0.0000 -2.8284 -2.8284
         vertex 0.0000 -2.5981 -1.5000
         vertex 0.0000 -2.0000 -3.4641
      endloop
   endfacet
   facet normal -1.0000 0.0000 0.0000
      outer loop
         vertex 0.0000 2.8284 2.8284
         vertex 0.0000 3.4641 2.0000
         vertex 0.0000 2.8978 0.7765
      endloop
   endfacet
   facet normal -1.0000 0.0000 0.0000
      outer loop
         vertex 0.0000 2.8284 2.8284
         vertex 0.0000 2.8978 0.7765
         vertex 0.0000 2.5981 1.5000
      endloop
   endfacet
   facet normal -1.0000 0.0000 0.0000
      outer loop
         vertex 0.0000 2.8284 2.8284
         vertex 0.0000 2.5981 1.5000
         vertex 0.0000 2.1213 2.1213
      endloop
   endfacet
   facet normal -1.0000 0.0000 0.0000
      outer loop
         vertex 0.0000 2.8284 2.8284
         vertex 0.0000 2.1213 2.1213
         vertex 0.0000 2.0000 3.4641
      endloop
   endfacet
   facet normal -1.0000 0.0000 0.0000
      outer loop
         vertex 0.0000 0.0000 3.0000
         vertex 0.0000 0.0000 4.0000
         vertex 0.0000 0.7765 2.8978
      endloop
   endfacet
   facet normal -1.0000 0.0000 0.0000
      outer loop
         vertex 0.0000 0.7765 2.8978
         vertex 0.0000 0.0000 4.0000
         vertex 0.0000 1.0353 3.8637
      endloop
   endfacet
   facet normal -1.0000 0.0000 0.0000
      outer loop
         vertex 0.0000 0.7765 2.8978
         vertex 0.0000 1.0353 3.8637
         vertex 0.0000 1.5000 2.5981
      endloop
   endfacet
   facet normal -1.0000 0.0000 0.0000
      outer loop
         vertex 0.0000 1.5000 2.5981
         vertex 0.0000 1.0353 3.8637
         vertex 0.0000 2.0000 3.4641
      endloop
   endfacet
   facet normal -1.0000 0.0000 0.0000
      outer loop
         vertex 0.0000 1.5000 2.5981
         vertex 0.0000 2.0000 3.4641
         vertex 0.0000 2.1213 2.1213
      endloop
   endfacet
   facet normal -1.0000 0.0000 0.0000
      outer loop
         vertex 0.0000 -2.1213 2.1213
         vertex 0.0000 -2.0000 3.4641
         vertex 0.0000 -1.5000 2.5981
      endloop
   endfacet
   facet normal -1.0000 0.0000 0.0000
      outer loop
         vertex 0.0000 -1.5000 2.5981
         vertex 0.0000 -2.0000 3.4641
         vertex 0.0000 -1.0353 3.8637
      endloop
   endfacet
   facet normal -1.0000 0.0000 0.0000
      outer loop
         vertex 0.0000 -1.5000 2.5981
         vertex 0.0000 -1.0353 3.8637
         vertex 0.0000 -0.7765 2.8978
      endloop
   endfacet
   facet normal -1.0000 0.0000 0.0000
      outer loop
         vertex 0.0000 -0.7765 2.8978
         vertex 0.0000 -1.0353 3.8637
         vertex 0.0000 0.0000 4.0000
      endloop
   endfacet
   facet normal -1.0000 0.0000 0.0000
      outer loop
         vertex 0.0000 -0.7765 2.8978
         vertex 0.0000 0.0000 4.0000
         vertex 0.0000 0.0000 3.0000
      endloop
   endfacet
   facet normal -1.0000 0.0000 0.0000
      outer loop
         vertex 0.0000 -2.5981 1.5000
         vertex 0.0000 -2.8978 0.7765
         vertex 0.0000 -2.8284 2.8284
      endloop
   endfacet
   facet normal -1.0000 0.0000 0.0000
      outer loop
         vertex 0.0000 -2.5981 1.5000
         vertex 0.0000 -2.8284 2.8284
         vertex 0.0000 -2.0000 3.4641
      endloop
   endfacet
   facet normal -1.0000 0.0000 0.0000
      outer loop
         vertex 0.0000 -2.5981 1.5000
         vertex 0.0000 -2.0000 3.4641
         vertex 0.0000 -2.1213 2.1213
      endloop
   endfacet
   facet normal -1.0000 0.0000 0.0000
      outer loop
         vertex 0.0000 -4.0000 0.0000
         vertex 0.0000 -3.8637 1.0353
         vertex 0.0000 -3.8637 -1.0353
      endloop
   endfacet
   facet normal -1.0000 0.0000 0.0000
      outer loop
         vertex 0.0000 -3.8637 -1.0353
         vertex 0.0000 -3.8637 1.0353
         vertex 0.0000 -3.4641 2.0000
      endloop
   endfacet
   facet normal -1.0000 0.0000 0.0000
      outer loop
         vertex 0.0000 -3.8637 -1.0353
         vertex 0.0000 -3.4641 2.0000
         vertex 0.0000 -3.4641 -2.0000
      endloop
   endfacet
   facet normal -1.0000 0.0000 0.0000
      outer loop
         vertex 0.0000 -3.4641 -2.0000
         vertex 0.0000 -3.4641 2.0000
         vertex 0.0000 -2.8284 2.8284
      endloop
   endfacet
   facet normal -1.0000 0.0000 0.0000
      outer loop
         vertex 0.0000 -3.4641 -2.0000
         vertex 0.0000 -2.8284 2.8284
         vertex 0.0000 -3.0000 0.0000
      endloop
   endfacet
   facet normal -1.0000 0.0000 0.0000
      outer loop
         vertex 0.0000 -3.0000 0.0000
         vertex 0.0000 -2.8284 2.8284
         vertex 0.0000 -2.8978 0.7765
      endloop
   endfacet
   facet normal 1.0000 0.0000 0.0000
      outer loop
         vertex 9.5000 4.0000 0.0000
         vertex 9.5000 3.8637 1.0353
         vertex 9.5000 3.8637 -1.0353
      endloop
   endfacet
   facet normal 1.0000 0.0000 0.0000
      outer loop
         vertex 9.5000 3.8637 -1.0353
         vertex 9.5000 3.8637 1.0353
         vertex 9.5000 3.4641 2.0000
      endloop
   endfacet
   facet normal 1.0000 0.0000 0.0000
      outer loop
         vertex 9.5000 3.8637 -1.0353
         vertex 9.5000 3.4641 2.0000
         vertex 9.5000 3.4641 -2.0000
      endloop
   endfacet
   facet normal 1.0000 0.0000 0.0000
      outer loop
         vertex 9.5000 3.4641 -2.0000
         vertex 9.5000 3.4641 2.0000
         vertex 9.5000 3.0000 0.0000
      endloop
   endfacet
   facet normal 1.0000 0.0000 0.0000
      outer loop
         vertex 9.5000 3.4641 -2.0000
         vertex 9.5000 3.0000 0.0000
         vertex 9.5000 2.8978 -0.7765
      endloop
   endfacet
   facet normal 1.0000 0.0000 0.0000
      outer loop
         vertex 9.5000 2.1213 2.1213
         vertex 9.5000 2.5981 1.5000
         vertex 9.5000 2.8284 2.8284
      endloop
   endfacet
   facet normal 1.0000 0.0000 0.0000
      outer loop
         vertex 9.5000 2.8284 2.8284
         vertex 9.5000 2.5981 1.5000
         vertex 9.5000 2.8978 0.7765
      endloop
   endfacet
   facet normal 1.0000 0.0000 0.0000
      outer loop
         vertex 9.5000 2.8284 2.8284
         vertex 9.5000 2.8978 0.7765
         vertex 9.5000 3.4641 2.0000
      endloop
   endfacet
   facet normal 1.0000 0.0000 0.0000
      outer loop
         vertex 9.5000 3.4641 2.0000
         vertex 9.5000 2.8978 0.7765
         vertex 9.5000 3.0000 0.0000
      endloop
   endfacet
   facet normal 1.0000 0.0000 0.0000
      outer loop
         vertex 9.5000 -0.7765 2.8978
         vertex 9.5000 0.0000 3.0000
         vertex 9.5000 0.0000 4.0000
      endloop
   endfacet
   facet normal 1.0000 0.0000 0.0000
      outer loop
         vertex 9.5000 0.0000 4.0000
         vertex 9.5000 0.0000 3.0000
         vertex 9.5000 0.7765 2.8978
      endloop
   endfacet
   facet normal 1.0000 0.0000 0.0000
      outer loop
         vertex 9.5000 0.0000 4.0000
         vertex 9.5000 0.7765 2.8978
         vertex 9.5000 1.0353 3.8637
      endloop
   endfacet
   facet normal 1.0000 0.0000 0.0000
      outer loop
         vertex 9.5000 1.0353 3.8637
         vertex 9.5000 0.7765 2.8978
         vertex 9.5000 1.5000 2.5981
      endloop
   endfacet
   facet normal 1.0000 0.0000 0.0000
      outer loop
         vertex 9.5000 1.0353 3.8637
         vertex 9.5000 1.5000 2.5981
         vertex 9.5000 2.0000 3.4641
      endloop
   endfacet
   facet normal 1.0000 0.0000 0.0000
      outer loop
         vertex 9.5000 2.0000 3.4641
         vertex 9.5000 1.5000 2.5981
         vertex 9.5000 2.1213 2.1213
      endloop
   endfacet
   facet normal 1.0000 0.0000 0.0000
      outer loop
         vertex 9.5000 2.0000 3.4641
         vertex 9.5000 2.1213 2.1213
         vertex 9.5000 2.8284 2.8284
      endloop
   endfacet
   facet normal 1.0000 0.0000 0.0000
      outer loop
         vertex 9.5000 -2.5981 1.5000
         vertex 9.5000 -2.1213 2.1213
         vertex 9.5000 -2.0000 3.4641
      endloop
   endfacet
   facet normal 1.0000 0.0000 0.0000
      outer loop
         vertex 9.5000 -2.0000 3.4641
         vertex 9.5000 -2.1213 2.1213
         vertex 9.5000 -1.5000 2.5981
      endloop
   endfacet
   facet normal 1.0000 0.0000 0.0000
      outer loop
         vertex 9.5000 -2.0000 3.4641
         vertex 9.5000 -1.5000 2.5981
         vertex 9.5000 -1.0353 3.8637
      endloop
   endfacet
   facet normal 1.0000 0.0000 0.0000
      outer loop
         vertex 9.5000 -1.0353 3.8637
         vertex 9.5000 -1.5000 2.5981
         vertex 9.5000 -0.7765 2.8978
      endloop
   endfacet
   facet normal 1.0000 0.0000 0.0000
      outer loop
         vertex 9.5000 -1.0353 3.8637
         vertex 9.5000 -0.7765 2.8978
         vertex 9.5000 0.0000 4.0000
      endloop
   endfacet
   facet normal 1.0000 0.0000 0.0000
      outer loop
         vertex 9.5000 -2.8284 2.8284
         vertex 9.5000 -3.4641 2.0000
         vertex 9.5000 -3.0000 0.0000
      endloop
   endfacet
   facet normal 1.0000 0.0000 0.0000
      outer loop
         vertex 9.5000 -2.8284 2.8284
         vertex 9.5000 -3.0000 0.0000
         vertex 9.5000 -2.8978 0.7765
      endloop
   endfacet
   facet normal 1.0000 0.0000 0.0000
      outer loop
         vertex 9.5000 -2.8284 2.8284
         vertex 9.5000 -2.8978 0.7765
         vertex 9.5000 -2.5981 1.5000
      endloop
   endfacet
   facet normal 1.0000 0.0000 0.0000
      outer loop
         vertex 9.5000 -2.8284 2.8284
         vertex 9.5000 -2.5981 1.5000
         vertex 9.5000 -2.0000 3.4641
      endloop
   endfacet
   facet normal 1.0000 0.0000 0.0000
      outer loop
         vertex 9.5000 2.8284 -2.8284
         vertex 9.5000 3.4641 -2.0000
         vertex 9.5000 2.8978 -0.7765
      endloop
   endfacet
   facet normal 1.0000 0.0000 0.0000
      outer loop
         vertex 9.5000 2.8284 -2.8284
         vertex 9.5000 2.8978 -0.7765
         vertex 9.5000 2.5981 -1.5000
      endloop
   endfacet
   facet normal 1.0000 0.0000 0.0000
      outer loop
         vertex 9.5000 2.8284 -2.8284
         vertex 9.5000 2.5981 -1.5000
         vertex 9.5000 2.1213 -2.1213
      endloop
   endfacet
   facet normal 1.0000 0.0000 0.0000
      outer loop
         vertex 9.5000 2.8284 -2.8284
         vertex 9.5000 2.1213 -2.1213
         vertex 9.5000 2.0000 -3.4641
      endloop
   endfacet
   facet normal 1.0000 0.0000 0.0000
      outer loop
         vertex 9.5000 1.5000 -2.5981
         vertex 9.5000 0.7765 -2.8978
         vertex 9.5000 1.0353 -3.8637
      endloop
   endfacet
   facet normal 1.0000 0.0000 0.0000
      outer loop
         vertex 9.5000 1.5000 -2.5981
         vertex 9.5000 1.0353 -3.8637
         vertex 9.5000 2.0000 -3.4641
      endloop
   endfacet
   facet normal 1.0000 0.0000 0.0000
      outer loop
         vertex 9.5000 1.5000 -2.5981
         vertex 9.5000 2.0000 -3.4641
         vertex 9.5000 2.1213 -2.1213
      endloop
   endfacet
   facet normal 1.0000 0.0000 0.0000
      outer loop
         vertex 9.5000 -2.1213 -2.1213
         vertex 9.5000 -2.0000 -3.4641
         vertex 9.5000 -1.5000 -2.5981
      endloop
   endfacet
   facet normal 1.0000 0.0000 0.0000
      outer loop
         vertex 9.5000 -1.5000 -2.5981
         vertex 9.5000 -2.0000 -3.4641
         vertex 9.5000 -1.0353 -3.8637
      endloop
   endfacet
   facet normal 1.0000 0.0000 0.0000
      outer loop
         vertex 9.5000 -1.5000 -2.5981
         vertex 9.5000 -1.0353 -3.8637
         vertex 9.5000 -0.7765 -2.8978
      endloop
   endfacet
   facet normal 1.0000 0.0000 0.0000
      outer loop
         vertex 9.5000 -0.7765 -2.8978
         vertex 9.5000 -1.0353 -3.8637
         vertex 9.5000 -0.0000 -4.0000
      endloop
   endfacet
   facet normal 1.0000 0.0000 0.0000
      outer loop
         vertex 9.5000 -0.7765 -2.8978
         vertex 9.5000 -0.0000 -4.0000
         vertex 9.5000 -0.0000 -3.0000
      endloop
   endfacet
   facet normal 1.0000 0.0000 0.0000
      outer loop
         vertex 9.5000 -0.0000 -3.0000
         vertex 9.5000 -0.0000 -4.0000
         vertex 9.5000 1.0353 -3.8637
      endloop
   endfacet
   facet normal 1.0000 0.0000 0.0000
      outer loop
         vertex 9.5000 -0.0000 -3.0000
         vertex 9.5000 1.0353 -3.8637
         vertex 9.5000 0.7765 -2.8978
      endloop
   endfacet
   facet normal 1.0000 0.0000 0.0000
      outer loop
         vertex 9.5000 -2.5981 -1.5000
         vertex 9.5000 -2.8978 -0.7765
         vertex 9.5000 -2.8284 -2.8284
      endloop
   endfacet
   facet normal 1.0000 0.0000 0.0000
      outer loop
         vertex 9.5000 -2.5981 -1.5000
         vertex 9.5000 -2.8284 -2.8284
         vertex 9.5000 -2.0000 -3.4641
      endloop
   endfacet
   facet normal 1.0000 0.0000 0.0000
      outer loop
         vertex 9.5000 -2.5981 -1.5000
         vertex 9.5000 -2.0000 -3.4641
         vertex 9.5000 -2.1213 -2.1213
      endloop
   endfacet
   facet normal 1.0000 0.0000 0.0000
      outer loop
         vertex 9.5000 -4.0000 0.0000
         vertex 9.5000 -3.8637 -1.0353
         vertex 9.5000 -3.8637 1.0353
      endloop
   endfacet
   facet normal 1.0000 0.0000 0.0000
      outer loop
         vertex 9.5000 -3.8637 1.0353
         vertex 9.5000 -3.8637 -1.0353
         vertex 9.5000 -3.4641 -2.0000
      endloop
   endfacet
   facet normal 1.0000 0.0000 0.0000
      outer loop
         vertex 9.5000 -3.8637 1.0353
         vertex 9.5000 -3.4641 -2.0000
         vertex 9.5000 -3.4641 2.0000
      endloop
   endfacet
   facet normal 1.0000 0.0000 0.0000
      outer loop
         vertex 9.5000 -3.4641 2.0000
         vertex 9.5000 -3.4641 -2.0000
         vertex 9.5000 -2.8284 -2.8284
      endloop
   endfacet
   facet normal 1.0000 0.0000 0.0000
      outer loop
         vertex 9.5000 -3.4641 2.0000
         vertex 9.5000 -2.8284 -2.8284
         vertex 9.5000 -3.0000 0.0000
      endloop
   endfacet
   facet normal 1.0000 0.0000 0.0000
      outer loop
         vertex 9.5000 -3.0000 0.0000
         vertex 9.5000 -2.8284 -2.8284
         vertex 9.5000 -2.8978 -0.7765
      endloop
   endfacet
   facet normal -0.7098 0.1225 -0.6937
      outer loop
         vertex 0.0000 -0.0000 -4.0000
         vertex 0.0000 1.0353 -3.8637
         vertex 0.5000 1.1647 -4.3467
      endloop
   endfacet
   facet normal -0.7098 0.0612 -0.7017
      outer loop
         vertex 0.0000 -0.0000 -4.0000
         vertex 0.5000 1.1647 -4.3467
         vertex 0.5000 -0.0000 -4.5000
      endloop
   endfacet
   facet normal 0.0000 0.0869 -0.9962
      outer loop
         vertex 9.0000 -0.0000 -4.5000
         vertex 0.5000 -0.0000 -4.5000
         vertex 0.5000 1.1647 -4.3467
      endloop
   endfacet
   facet normal 0.0000 0.1739 -0.9848
      outer loop
         vertex 9.0000 -0.0000 -4.5000
         vertex 0.5000 1.1647 -4.3467
         vertex 9.0000 1.1647 -4.3467
      endloop
   endfacet
   facet normal 0.7098 0.0612 -0.7017
      outer loop
         vertex 9.5000 -0.0000 -4.0000
         vertex 9.0000 -0.0000 -4.5000
         vertex 9.0000 1.1647 -4.3467
      endloop
   endfacet
   facet normal 0.7098 0.1225 -0.6937
      outer loop
         vertex 9.5000 -0.0000 -4.0000
         vertex 9.0000 1.1647 -4.3467
         vertex 9.5000 1.0353 -3.8637
      endloop
   endfacet
   facet normal 0.0000 -0.0869 0.9962
      outer loop
         vertex 0.0000 -0.0000 -3.0000
         vertex 9.5000 -0.0000 -3.0000
         vertex 9.5000 0.7765 -2.8978
      endloop
   endfacet
   facet normal 0.0000 -0.1739 0.9848
      outer loop
         vertex 0.0000 -0.0000 -3.0000
         vertex 9.5000 0.7765 -2.8978
         vertex 0.0000 0.7765 -2.8978
      endloop
   endfacet
   facet normal -0.7098 0.2408 -0.6620
      outer loop
         vertex 0.5000 1.1647 -4.3467
         vertex 0.0000 1.0353 -3.8637
         vertex 0.0000 2.0000 -3.4641
      endloop
   endfacet
   facet normal -0.7098 0.2978 -0.6383
      outer loop
         vertex 0.5000 1.1647 -4.3467
         vertex 0.0000 2.0000 -3.4641
         vertex 0.5000 2.2500 -3.8971
      endloop
   endfacet
   facet normal 0.0000 0.3418 -0.9398
      outer loop
         vertex 9.0000 1.1647 -4.3467
         vertex 0.5000 1.1647 -4.3467
         vertex 0.5000 2.2500 -3.8971
      endloop
   endfacet
   facet normal 0.0000 0.4228 -0.9062
      outer loop
         vertex 9.0000 1.1647 -4.3467
         vertex 0.5000 2.2500 -3.8971
         vertex 9.0000 2.2500 -3.8971
      endloop
   endfacet
   facet normal 0.7098 0.2408 -0.6620
      outer loop
         vertex 9.5000 1.0353 -3.8637
         vertex 9.0000 1.1647 -4.3467
         vertex 9.0000 2.2500 -3.8971
      endloop
   endfacet
   facet normal 0.7098 0.2978 -0.6383
      outer loop
         vertex 9.5000 1.0353 -3.8637
         vertex 9.0000 2.2500 -3.8971
         vertex 9.5000 2.0000 -3.4641
      endloop
   endfacet
   facet normal 0.0000 -0.3418 0.9398
      outer loop
         vertex 0.0000 0.7765 -2.8978
         vertex 9.5000 0.7765 -2.8978
         vertex 9.5000 1.5000 -2.5981
      endloop
   endfacet
   facet normal 0.0000 -0.4228 0.9062
      outer loop
         vertex 0.0000 0.7765 -2.8978
         vertex 9.5000 1.5000 -2.5981
         vertex 0.0000 1.5000 -2.5981
      endloop
   endfacet
   facet normal -0.7098 0.4039 -0.5771
      outer loop
         vertex 0.5000 2.2500 -3.8971
         vertex 0.0000 2.0000 -3.4641
         vertex 0.0000 2.8284 -2.8284
      endloop
   endfacet
   facet normal -0.7098 0.4529 -0.5395
      outer loop
         vertex 0.5000 2.2500 -3.8971
         vertex 0.0000 2.8284 -2.8284
         vertex 0.5000 3.1820 -3.1820
      endloop
   endfacet
   facet normal 0.0000 0.5734 -0.8193
      outer loop
         vertex 9.0000 2.2500 -3.8971
         vertex 0.5000 2.2500 -3.8971
         vertex 0.5000 3.1820 -3.1820
      endloop
   endfacet
   facet normal 0.0000 0.6430 -0.7659
      outer loop
         vertex 9.0000 2.2500 -3.8971
         vertex 0.5000 3.1820 -3.1820
         vertex 9.0000 3.1820 -3.1820
      endloop
   endfacet
   facet normal 0.7098 0.4039 -0.5771
      outer loop
         vertex 9.5000 2.0000 -3.4641
         vertex 9.0000 2.2500 -3.8971
         vertex 9.0000 3.1820 -3.1820
      endloop
   endfacet
   facet normal 0.7098 0.4529 -0.5395
      outer loop
         vertex 9.5000 2.0000 -3.4641
         vertex 9.0000 3.1820 -3.1820
         vertex 9.5000 2.8284 -2.8284
      endloop
   endfacet
   facet normal 0.0000 -0.5734 0.8193
      outer loop
         vertex 0.0000 1.5000 -2.5981
         vertex 9.5000 1.5000 -2.5981
         vertex 9.5000 2.1213 -2.1213
      endloop
   endfacet
   facet normal 0.0000 -0.6430 0.7659
      outer loop
         vertex 0.0000 1.5000 -2.5981
         vertex 9.5000 2.1213 -2.1213
         vertex 0.0000 2.1213 -2.1213
      endloop
   endfacet
   facet normal -0.7098 0.5395 -0.4529
      outer loop
         vertex 0.5000 3.1820 -3.1820
         vertex 0.0000 2.8284 -2.8284
         vertex 0.0000 3.4641 -2.0000
      endloop
   endfacet
   facet normal -0.7098 0.5771 -0.4039
      outer loop
         vertex 0.5000 3.1820 -3.1820
         vertex 0.0000 3.4641 -2.0000
         vertex 0.5000 3.8971 -2.2500
      endloop
   endfacet
   facet normal 0.0000 0.7659 -0.6430
      outer loop
         vertex 9.0000 3.1820 -3.1820
         vertex 0.5000 3.1820 -3.1820
         vertex 0.5000 3.8971 -2.2500
      endloop
   endfacet
   facet normal 0.0000 0.8193 -0.5734
      outer loop
         vertex 9.0000 3.1820 -3.1820
         vertex 0.5000 3.8971 -2.2500
         vertex 9.0000 3.8971 -2.2500
      endloop
   endfacet
   facet normal 0.7098 0.5395 -0.4529
      outer loop
         vertex 9.5000 2.8284 -2.8284
         vertex 9.0000 3.1820 -3.1820
         vertex 9.0000 3.8971 -2.2500
      endloop
   endfacet
   facet normal 0.7098 0.5771 -0.4039
      outer loop
         vertex 9.5000 2.8284 -2.8284
         vertex 9.0000 3.8971 -2.2500
         vertex 9.5000 3.4641 -2.0000
      endloop
   endfacet
   facet normal 0.0000 -0.7659 0.6430
      outer loop
         vertex 0.0000 2.1213 -2.1213
         vertex 9.5000 2.1213 -2.1213
         vertex 9.5000 2.5981 -1.5000
      endloop
   endfacet
   facet normal 0.0000 -0.8193 0.5734
      outer loop
         vertex 0.0000 2.1213 -2.1213
         vertex 9.5000 2.5981 -1.5000
         vertex 0.0000 2.5981 -1.5000
      endloop
   endfacet
   facet normal -0.7098 0.6620 -0.2408
      outer loop
         vertex 0.0000 3.4641 -2.0000
         vertex 0.0000 3.8637 -1.0353
         vertex 0.5000 4.3467 -1.1647
      endloop
   endfacet
   facet normal -0.7098 0.6383 -0.2978
      outer loop
         vertex 0.0000 3.4641 -2.0000
         vertex 0.5000 4.3467 -1.1647
         vertex 0.5000 3.8971 -2.2500
      endloop
   endfacet
   facet normal 0.0000 0.9062 -0.4228
      outer loop
         vertex 9.0000 3.8971 -2.2500
         vertex 0.5000 3.8971 -2.2500
         vertex 0.5000 4.3467 -1.1647
      endloop
   endfacet
   facet normal 0.0000 0.9398 -0.3418
      outer loop
         vertex 9.0000 3.8971 -2.2500
         vertex 0.5000 4.3467 -1.1647
         vertex 9.0000 4.3467 -1.1647
      endloop
   endfacet
   facet normal 0.7098 0.6383 -0.2978
      outer loop
         vertex 9.5000 3.8637 -1.0353
         vertex 9.5000 3.4641 -2.0000
         vertex 9.0000 3.8971 -2.2500
      endloop
   endfacet
   facet normal 0.7098 0.6620 -0.2408
      outer loop
         vertex 9.5000 3.8637 -1.0353
         vertex 9.0000 3.8971 -2.2500
         vertex 9.0000 4.3467 -1.1647
      endloop
   endfacet
   facet normal 0.0000 -0.9062 0.4228
      outer loop
         vertex 0.0000 2.5981 -1.5000
         vertex 9.5000 2.5981 -1.5000
         vertex 9.5000 2.8978 -0.7765
      endloop
   endfacet
   facet normal 0.0000 -0.9398 0.3418
      outer loop
         vertex 0.0000 2.5981 -1.5000
         vertex 9.5000 2.8978 -0.7765
         vertex 0.0000 2.8978 -0.7765
      endloop
   endfacet
   facet normal -0.7098 0.6937 -0.1225
      outer loop
         vertex 0.5000 4.3467 -1.1647
         vertex 0.0000 3.8637 -1.0353
         vertex 0.0000 4.0000 0.0000
      endloop
   endfacet
   facet normal -0.7098 0.7017 -0.0612
      outer loop
         vertex 0.5000 4.3467 -1.1647
         vertex 0.0000 4.0000 0.0000
         vertex 0.5000 4.5000 -0.0000
      endloop
   endfacet
   facet normal 0.0000 0.9848 -0.1739
      outer loop
         vertex 9.0000 4.3467 -1.1647
         vertex 0.5000 4.3467 -1.1647
         vertex 0.5000 4.5000 -0.0000
      endloop
   endfacet
   facet normal 0.0000 0.9962 -0.0869
      outer loop
         vertex 9.0000 4.3467 -1.1647
         vertex 0.5000 4.5000 -0.0000
         vertex 9.0000 4.5000 0.0000
      endloop
   endfacet
   facet normal 0.7098 0.6937 -0.1225
      outer loop
         vertex 9.5000 3.8637 -1.0353
         vertex 9.0000 4.3467 -1.1647
         vertex 9.0000 4.5000 0.0000
      endloop
   endfacet
   facet normal 0.7098 0.7017 -0.0612
      outer loop
         vertex 9.5000 3.8637 -1.0353
         vertex 9.0000 4.5000 0.0000
         vertex 9.5000 4.0000 0.0000
      endloop
   endfacet
   facet normal 0.0000 -0.9848 0.1739
      outer loop
         vertex 0.0000 2.8978 -0.7765
         vertex 9.5000 2.8978 -0.7765
         vertex 9.5000 3.0000 0.0000
      endloop
   endfacet
   facet normal 0.0000 -0.9962 0.0869
      outer loop
         vertex 0.0000 2.8978 -0.7765
         vertex 9.5000 3.0000 0.0000
         vertex 0.0000 3.0000 0.0000
      endloop
   endfacet
   facet normal -0.7098 0.6937 0.1225
      outer loop
         vertex 0.0000 3.8637 1.0353
         vertex 0.5000 4.3467 1.1647
         vertex 0.5000 4.5000 -0.0000
      endloop
   endfacet
   facet normal -0.7098 0.7017 0.0612
      outer loop
         vertex 0.0000 3.8637 1.0353
         vertex 0.5000 4.5000 -0.0000
         vertex 0.0000 4.0000 0.0000
      endloop
   endfacet
   facet normal 0.0000 0.9962 0.0869
      outer loop
         vertex 9.0000 4.5000 0.0000
         vertex 0.5000 4.5000 -0.0000
         vertex 0.5000 4.3467 1.1647
      endloop
   endfacet
   facet normal 0.0000 0.9848 0.1739
      outer loop
         vertex 9.0000 4.5000 0.0000
         vertex 0.5000 4.3467 1.1647
         vertex 9.0000 4.3467 1.1647
      endloop
   endfacet
   facet normal 0.7098 0.7017 0.0612
      outer loop
         vertex 9.5000 4.0000 0.0000
         vertex 9.0000 4.5000 0.0000
         vertex 9.0000 4.3467 1.1647
      endloop
   endfacet
   facet normal 0.7098 0.6937 0.1225
      outer loop
         vertex 9.5000 4.0000 0.0000
         vertex 9.0000 4.3467 1.1647
         vertex 9.5000 3.8637 1.0353
      endloop
   endfacet
   facet normal 0.0000 -0.9962 -0.0869
      outer loop
         vertex 0.0000 2.8978 0.7765
         vertex 0.0000 3.0000 0.0000
         vertex 9.5000 3.0000 0.0000
      endloop
   endfacet
   facet normal 0.0000 -0.9848 -0.1739
      outer loop
         vertex 0.0000 2.8978 0.7765
         vertex 9.5000 3.0000 0.0000
         vertex 9.5000 2.8978 0.7765
      endloop
   endfacet
   facet normal -0.7098 0.6383 0.2978
      outer loop
         vertex 0.0000 3.4641 2.0000
         vertex 0.5000 3.8971 2.2500
         vertex 0.5000 4.3467 1.1647
      endloop
   endfacet
   facet normal -0.7098 0.6620 0.2408
      outer loop
         vertex 0.0000 3.4641 2.0000
         vertex 0.5000 4.3467 1.1647
         vertex 0.0000 3.8637 1.0353
      endloop
   endfacet
   facet normal 0.0000 0.9398 0.3418
      outer loop
         vertex 9.0000 4.3467 1.1647
         vertex 0.5000 4.3467 1.1647
         vertex 0.5000 3.8971 2.2500
      endloop
   endfacet
   facet normal 0.0000 0.9062 0.4228
      outer loop
         vertex 9.0000 4.3467 1.1647
         vertex 0.5000 3.8971 2.2500
         vertex 9.0000 3.8971 2.2500
      endloop
   endfacet
   facet normal 0.7098 0.6620 0.2408
      outer loop
         vertex 9.5000 3.4641 2.0000
         vertex 9.5000 3.8637 1.0353
         vertex 9.0000 4.3467 1.1647
      endloop
   endfacet
   facet normal 0.7098 0.6383 0.2978
      outer loop
         vertex 9.5000 3.4641 2.0000
         vertex 9.0000 4.3467 1.1647
         vertex 9.0000 3.8971 2.2500
      endloop
   endfacet
   facet normal 0.0000 -0.9398 -0.3418
      outer loop
         vertex 0.0000 2.5981 1.5000
         vertex 0.0000 2.8978 0.7765
         vertex 9.5000 2.8978 0.7765
      endloop
   endfacet
   facet normal 0.0000 -0.9062 -0.4228
      outer loop
         vertex 0.0000 2.5981 1.5000
         vertex 9.5000 2.8978 0.7765
         vertex 9.5000 2.5981 1.5000
      endloop
   endfacet
   facet normal -0.7098 0.5771 0.4039
      outer loop
         vertex 0.5000 3.8971 2.2500
         vertex 0.0000 3.4641 2.0000
         vertex 0.0000 2.8284 2.8284
      endloop
   endfacet
   facet normal -0.7098 0.5395 0.4529
      outer loop
         vertex 0.5000 3.8971 2.2500
         vertex 0.0000 2.8284 2.8284
         vertex 0.5000 3.1820 3.1820
      endloop
   endfacet
   facet normal 0.0000 0.8193 0.5734
      outer loop
         vertex 9.0000 3.8971 2.2500
         vertex 0.5000 3.8971 2.2500
         vertex 0.5000 3.1820 3.1820
      endloop
   endfacet
   facet normal 0.0000 0.7659 0.6430
      outer loop
         vertex 9.0000 3.8971 2.2500
         vertex 0.5000 3.1820 3.1820
         vertex 9.0000 3.1820 3.1820
      endloop
   endfacet
   facet normal 0.7098 0.5771 0.4039
      outer loop
         vertex 9.5000 3.4641 2.0000
         vertex 9.0000 3.8971 2.2500
         vertex 9.0000 3.1820 3.1820
      endloop
   endfacet
   facet normal 0.7098 0.5395 0.4529
      outer loop
         vertex 9.5000 3.4641 2.0000
         vertex 9.0000 3.1820 3.1820
         vertex 9.5000 2.8284 2.8284
      endloop
   endfacet
   facet normal 0.0000 -0.8193 -0.5734
      outer loop
         vertex 0.0000 2.1213 2.1213
         vertex 0.0000 2.5981 1.5000
         vertex 9.5000 2.5981 1.5000
      endloop
   endfacet
   facet normal 0.0000 -0.7659 -0.6430
      outer loop
         vertex 0.0000 2.1213 2.1213
         vertex 9.5000 2.5981 1.5000
         vertex 9.5000 2.1213 2.1213
      endloop
   endfacet
   facet normal -0.7098 0.4529 0.5395
      outer loop
         vertex 0.5000 2.2500 3.8971
         vertex 0.5000 3.1820 3.1820
         vertex 0.0000 2.8284 2.8284
      endloop
   endfacet
   facet normal -0.7098 0.4039 0.5771
      outer loop
         vertex 0.5000 2.2500 3.8971
         vertex 0.0000 2.8284 2.8284
         vertex 0.0000 2.0000 3.4641
      endloop
   endfacet
   facet normal 0.0000 0.6430 0.7659
      outer loop
         vertex 9.0000 3.1820 3.1820
         vertex 0.5000 3.1820 3.1820
         vertex 0.5000 2.2500 3.8971
      endloop
   endfacet
   facet normal 0.0000 0.5734 0.8193
      outer loop
         vertex 9.0000 3.1820 3.1820
         vertex 0.5000 2.2500 3.8971
         vertex 9.0000 2.2500 3.8971
      endloop
   endfacet
   facet normal 0.7098 0.4529 0.5395
      outer loop
         vertex 9.5000 2.8284 2.8284
         vertex 9.0000 3.1820 3.1820
         vertex 9.0000 2.2500 3.8971
      endloop
   endfacet
   facet normal 0.7098 0.4039 0.5771
      outer loop
         vertex 9.5000 2.8284 2.8284
         vertex 9.0000 2.2500 3.8971
         vertex 9.5000 2.0000 3.4641
      endloop
   endfacet
   facet normal 0.0000 -0.6430 -0.7659
      outer loop
         vertex 0.0000 1.5000 2.5981
         vertex 0.0000 2.1213 2.1213
         vertex 9.5000 2.1213 2.1213
      endloop
   endfacet
   facet normal 0.0000 -0.5734 -0.8193
      outer loop
         vertex 0.0000 1.5000 2.5981
         vertex 9.5000 2.1213 2.1213
         vertex 9.5000 1.5000 2.5981
      endloop
   endfacet
   facet normal -0.7098 0.2408 0.6620
      outer loop
         vertex 0.0000 2.0000 3.4641
         vertex 0.0000 1.0353 3.8637
         vertex 0.5000 1.1647 4.3467
      endloop
   endfacet
   facet normal -0.7098 0.2978 0.6383
      outer loop
         vertex 0.0000 2.0000 3.4641
         vertex 0.5000 1.1647 4.3467
         vertex 0.5000 2.2500 3.8971
      endloop
   endfacet
   facet normal 0.0000 0.4228 0.9062
      outer loop
         vertex 9.0000 2.2500 3.8971
         vertex 0.5000 2.2500 3.8971
         vertex 0.5000 1.1647 4.3467
      endloop
   endfacet
   facet normal 0.0000 0.3418 0.9398
      outer loop
         vertex 9.0000 2.2500 3.8971
         vertex 0.5000 1.1647 4.3467
         vertex 9.0000 1.1647 4.3467
      endloop
   endfacet
   facet normal 0.7098 0.2978 0.6383
      outer loop
         vertex 9.5000 1.0353 3.8637
         vertex 9.5000 2.0000 3.4641
         vertex 9.0000 2.2500 3.8971
      endloop
   endfacet
   facet normal 0.7098 0.2408 0.6620
      outer loop
         vertex 9.5000 1.0353 3.8637
         vertex 9.0000 2.2500 3.8971
         vertex 9.0000 1.1647 4.3467
      endloop
   endfacet
   facet normal 0.0000 -0.4228 -0.9062
      outer loop
         vertex 0.0000 0.7765 2.8978
         vertex 0.0000 1.5000 2.5981
         vertex 9.5000 1.5000 2.5981
      endloop
   endfacet
   facet normal 0.0000 -0.3418 -0.9398
      outer loop
         vertex 0.0000 0.7765 2.8978
         vertex 9.5000 1.5000 2.5981
         vertex 9.5000 0.7765 2.8978
      endloop
   endfacet
   facet normal -0.7098 0.1225 0.6937
      outer loop
         vertex 0.5000 0.0000 4.5000
         vertex 0.5000 1.1647 4.3467
         vertex 0.0000 1.0353 3.8637
      endloop
   endfacet
   facet normal -0.7098 0.0612 0.7017
      outer loop
         vertex 0.5000 0.0000 4.5000
         vertex 0.0000 1.0353 3.8637
         vertex 0.0000 0.0000 4.0000
      endloop
   endfacet
   facet normal 0.0000 0.1739 0.9848
      outer loop
         vertex 9.0000 1.1647 4.3467
         vertex 0.5000 1.1647 4.3467
         vertex 0.5000 0.0000 4.5000
      endloop
   endfacet
   facet normal 0.0000 0.0869 0.9962
      outer loop
         vertex 9.0000 1.1647 4.3467
         vertex 0.5000 0.0000 4.5000
         vertex 9.0000 0.0000 4.5000
      endloop
   endfacet
   facet normal 0.7098 0.1225 0.6937
      outer loop
         vertex 9.5000 1.0353 3.8637
         vertex 9.0000 1.1647 4.3467
         vertex 9.0000 0.0000 4.5000
      endloop
   endfacet
   facet normal 0.7098 0.0612 0.7017
      outer loop
         vertex 9.5000 1.0353 3.8637
         vertex 9.0000 0.0000 4.5000
         vertex 9.5000 0.0000 4.0000
      endloop
   endfacet
   facet normal 0.0000 -0.1739 -0.9848
      outer loop
         vertex 0.0000 0.0000 3.0000
         vertex 0.0000 0.7765 2.8978
         vertex 9.5000 0.7765 2.8978
      endloop
   endfacet
   facet normal 0.0000 -0.0869 -0.9962
      outer loop
         vertex 0.0000 0.0000 3.0000
         vertex 9.5000 0.7765 2.8978
         vertex 9.5000 0.0000 3.0000
      endloop
   endfacet
   facet normal -0.7098 -0.1225 0.6937
      outer loop
         vertex 0.0000 -1.0353 3.8637
         vertex 0.5000 -1.1647 4.3467
         vertex 0.5000 0.0000 4.5000
      endloop
   endfacet
   facet normal -0.7098 -0.0612 0.7017
      outer loop
         vertex 0.0000 -1.0353 3.8637
         vertex 0.5000 0.0000 4.5000
         vertex 0.0000 0.0000 4.0000
      endloop
   endfacet
   facet normal 0.0000 -0.0869 0.9962
      outer loop
         vertex 9.0000 0.0000 4.5000
         vertex 0.5000 0.0000 4.5000
         vertex 0.5000 -1.1647 4.3467
      endloop
   endfacet
   facet normal 0.0000 -0.1739 0.9848
      outer loop
         vertex 9.0000 0.0000 4.5000
         vertex 0.5000 -1.1647 4.3467
         vertex 9.0000 -1.1647 4.3467
      endloop
   endfacet
   facet normal 0.7098 -0.0612 0.7017
      outer loop
         vertex 9.5000 0.0000 4.0000
         vertex 9.0000 0.0000 4.5000
         vertex 9.0000 -1.1647 4.3467
      endloop
   endfacet
   facet normal 0.7098 -0.1225 0.6937
      outer loop
         vertex 9.5000 0.0000 4.0000
         vertex 9.0000 -1.1647 4.3467
         vertex 9.5000 -1.0353 3.8637
      endloop
   endfacet
   facet normal 0.0000 0.0869 -0.9962
      outer loop
         vertex 0.0000 -0.7765 2.8978
         vertex 0.0000 0.0000 3.0000
         vertex 9.5000 0.0000 3.0000
      endloop
   endfacet
   facet normal 0.0000 0.1739 -0.9848
      outer loop
         vertex 0.0000 -0.7765 2.8978
         vertex 9.5000 0.0000 3.0000
         vertex 9.5000 -0.7765 2.8978
      endloop
   endfacet
   facet normal -0.7098 -0.2978 0.6383
      outer loop
         vertex 0.0000 -1.0353 3.8637
         vertex 0.0000 -2.0000 3.4641
         vertex 0.5000 -2.2500 3.8971
      endloop
   endfacet
   facet normal -0.7098 -0.2408 0.6620
      outer loop
         vertex 0.0000 -1.0353 3.8637
         vertex 0.5000 -2.2500 3.8971
         vertex 0.5000 -1.1647 4.3467
      endloop
   endfacet
   facet normal 0.0000 -0.3418 0.9398
      outer loop
         vertex 9.0000 -1.1647 4.3467
         vertex 0.5000 -1.1647 4.3467
         vertex 0.5000 -2.2500 3.8971
      endloop
   endfacet
   facet normal 0.0000 -0.4228 0.9062
      outer loop
         vertex 9.0000 -1.1647 4.3467
         vertex 0.5000 -2.2500 3.8971
         vertex 9.0000 -2.2500 3.8971
      endloop
   endfacet
   facet normal 0.7098 -0.2408 0.6620
      outer loop
         vertex 9.5000 -1.0353 3.8637
         vertex 9.0000 -1.1647 4.3467
         vertex 9.0000 -2.2500 3.8971
      endloop
   endfacet
   facet normal 0.7098 -0.2978 0.6383
      outer loop
         vertex 9.5000 -1.0353 3.8637
         vertex 9.0000 -2.2500 3.8971
         vertex 9.5000 -2.0000 3.4641
      endloop
   endfacet
   facet normal 0.0000 0.3418 -0.9398
      outer loop
         vertex 0.0000 -1.5000 2.5981
         vertex 0.0000 -0.7765 2.8978
         vertex 9.5000 -0.7765 2.8978
      endloop
   endfacet
   facet normal 0.0000 0.4228 -0.9062
      outer loop
         vertex 0.0000 -1.5000 2.5981
         vertex 9.5000 -0.7765 2.8978
         vertex 9.5000 -1.5000 2.5981
      endloop
   endfacet
   facet normal -0.7098 -0.4039 0.5771
      outer loop
         vertex 0.5000 -2.2500 3.8971
         vertex 0.0000 -2.0000 3.4641
         vertex 0.0000 -2.8284 2.8284
      endloop
   endfacet
   facet normal -0.7098 -0.4529 0.5395
      outer loop
         vertex 0.5000 -2.2500 3.8971
         vertex 0.0000 -2.8284 2.8284
         vertex 0.5000 -3.1820 3.1820
      endloop
   endfacet
   facet normal 0.0000 -0.5734 0.8193
      outer loop
         vertex 9.0000 -2.2500 3.8971
         vertex 0.5000 -2.2500 3.8971
         vertex 0.5000 -3.1820 3.1820
      endloop
   endfacet
   facet normal 0.0000 -0.6430 0.7659
      outer loop
         vertex 9.0000 -2.2500 3.8971
         vertex 0.5000 -3.1820 3.1820
         vertex 9.0000 -3.1820 3.1820
      endloop
   endfacet
   facet normal 0.7098 -0.4039 0.5771
      outer loop
         vertex 9.5000 -2.0000 3.4641
         vertex 9.0000 -2.2500 3.8971
         vertex 9.0000 -3.1820 3.1820
      endloop
   endfacet
   facet normal 0.7098 -0.4529 0.5395
      outer loop
         vertex 9.5000 -2.0000 3.4641
         vertex 9.0000 -3.1820 3.1820
         vertex 9.5000 -2.8284 2.8284
      endloop
   endfacet
   facet normal 0.0000 0.5734 -0.8193
      outer loop
         vertex 0.0000 -2.1213 2.1213
         vertex 0.0000 -1.5000 2.5981
         vertex 9.5000 -1.5000 2.5981
      endloop
   endfacet
   facet normal 0.0000 0.6430 -0.7659
      outer loop
         vertex 0.0000 -2.1213 2.1213
         vertex 9.5000 -1.5000 2.5981
         vertex 9.5000 -2.1213 2.1213
      endloop
   endfacet
   facet normal -0.7098 -0.5395 0.4529
      outer loop
         vertex 0.5000 -3.1820 3.1820
         vertex 0.0000 -2.8284 2.8284
         vertex 0.0000 -3.4641 2.0000
      endloop
   endfacet
   facet normal -0.7098 -0.5771 0.4039
      outer loop
         vertex 0.5000 -3.1820 3.1820
         vertex 0.0000 -3.4641 2.0000
         vertex 0.5000 -3.8971 2.2500
      endloop
   endfacet
   facet normal 0.0000 -0.7659 0.6430
      outer loop
         vertex 9.0000 -3.1820 3.1820
         vertex 0.5000 -3.1820 3.1820
         vertex 0.5000 -3.8971 2.2500
      endloop
   endfacet
   facet normal 0.0000 -0.8193 0.5734
      outer loop
         vertex 9.0000 -3.1820 3.1820
         vertex 0.5000 -3.8971 2.2500
         vertex 9.0000 -3.8971 2.2500
      endloop
   endfacet
   facet normal 0.7098 -0.5395 0.4529
      outer loop
         vertex 9.5000 -2.8284 2.8284
         vertex 9.0000 -3.1820 3.1820
         vertex 9.0000 -3.8971 2.2500
      endloop
   endfacet
   facet normal 0.7098 -0.5771 0.4039
      outer loop
         vertex 9.5000 -2.8284 2.8284
         vertex 9.0000 -3.8971 2.2500
         vertex 9.5000 -3.4641 2.0000
      endloop
   endfacet
   facet normal 0.0000 0.7659 -0.6430
      outer loop
         vertex 0.0000 -2.5981 1.5000
         vertex 0.0000 -2.1213 2.1213
         vertex 9.5000 -2.1213 2.1213
      endloop
   endfacet
   facet normal 0.0000 0.8193 -0.5734
      outer loop
         vertex 0.0000 -2.5981 1.5000
         vertex 9.5000 -2.1213 2.1213
         vertex 9.5000 -2.5981 1.5000
      endloop
   endfacet
   facet normal -0.7098 -0.6620 0.2408
      outer loop
         vertex 0.0000 -3.4641 2.0000
         vertex 0.0000 -3.8637 1.0353
         vertex 0.5000 -4.3467 1.1647
      endloop
   endfacet
   facet normal -0.7098 -0.6383 0.2978
      outer loop
         vertex 0.0000 -3.4641 2.0000
         vertex 0.5000 -4.3467 1.1647
         vertex 0.5000 -3.8971 2.2500
      endloop
   endfacet
   facet normal 0.0000 -0.9062 0.4228
      outer loop
         vertex 9.0000 -3.8971 2.2500
         vertex 0.5000 -3.8971 2.2500
         vertex 0.5000 -4.3467 1.1647
      endloop
   endfacet
   facet normal 0.0000 -0.9398 0.3418
      outer loop
         vertex 9.0000 -3.8971 2.2500
         vertex 0.5000 -4.3467 1.1647
         vertex 9.0000 -4.3467 1.1647
      endloop
   endfacet
   facet normal 0.7098 -0.6383 0.2978
      outer loop
         vertex 9.5000 -3.8637 1.0353
         vertex 9.5000 -3.4641 2.0000
         vertex 9.0000 -3.8971 2.2500
      endloop
   endfacet
   facet normal 0.7098 -0.6620 0.2408
      outer loop
         vertex 9.5000 -3.8637 1.0353
         vertex 9.0000 -3.8971 2.2500
         vertex 9.0000 -4.3467 1.1647
      endloop
   endfacet
   facet normal 0.0000 0.9062 -0.4228
      outer loop
         vertex 0.0000 -2.8978 0.7765
         vertex 0.0000 -2.5981 1.5000
         vertex 9.5000 -2.5981 1.5000
      endloop
   endfacet
   facet normal 0.0000 0.9398 -0.3418
      outer loop
         vertex 0.0000 -2.8978 0.7765
         vertex 9.5000 -2.5981 1.5000
         vertex 9.5000 -2.8978 0.7765
      endloop
   endfacet
   facet normal -0.7098 -0.7017 0.0612
      outer loop
         vertex 0.0000 -3.8637 1.0353
         vertex 0.0000 -4.0000 0.0000
         vertex 0.5000 -4.5000 0.0000
      endloop
   endfacet
   facet normal -0.7098 -0.6937 0.1225
      outer loop
         vertex 0.0000 -3.8637 1.0353
         vertex 0.5000 -4.5000 0.0000
         vertex 0.5000 -4.3467 1.1647
      endloop
   endfacet
   facet normal 0.0000 -0.9848 0.1739
      outer loop
         vertex 9.0000 -4.3467 1.1647
         vertex 0.5000 -4.3467 1.1647
         vertex 0.5000 -4.5000 0.0000
      endloop
   endfacet
   facet normal 0.0000 -0.9962 0.0869
      outer loop
         vertex 9.0000 -4.3467 1.1647
         vertex 0.5000 -4.5000 0.0000
         vertex 9.0000 -4.5000 0.0000
      endloop
   endfacet
   facet normal 0.7098 -0.6937 0.1225
      outer loop
         vertex 9.5000 -3.8637 1.0353
         vertex 9.0000 -4.3467 1.1647
         vertex 9.0000 -4.5000 0.0000
      endloop
   endfacet
   facet normal 0.7098 -0.7017 0.0612
      outer loop
         vertex 9.5000 -3.8637 1.0353
         vertex 9.0000 -4.5000 0.0000
         vertex 9.5000 -4.0000 0.0000
      endloop
   endfacet
   facet normal 0.0000 0.9848 -0.1739
      outer loop
         vertex 0.0000 -3.0000 0.0000
         vertex 0.0000 -2.8978 0.7765
         vertex 9.5000 -2.8978 0.7765
      endloop
   endfacet
   facet normal 0.0000 0.9962 -0.0869
      outer loop
         vertex 0.0000 -3.0000 0.0000
         vertex 9.5000 -2.8978 0.7765
         vertex 9.5000 -3.0000 0.0000
      endloop
   endfacet
   facet normal -0.7098 -0.7017 -0.0612
      outer loop
         vertex 0.5000 -4.5000 0.0000
         vertex 0.0000 -4.0000 0.0000
         vertex 0.0000 -3.8637 -1.0353
      endloop
   endfacet
   facet normal -0.7098 -0.6937 -0.1225
      outer loop
         vertex 0.5000 -4.5000 0.0000
         vertex 0.0000 -3.8637 -1.0353
         vertex 0.5000 -4.3467 -1.1647
      endloop
   endfacet
   facet normal 0.0000 -0.9962 -0.0869
      outer loop
         vertex 9.0000 -4.5000 0.0000
         vertex 0.5000 -4.5000 0.0000
         vertex 0.5000 -4.3467 -1.1647
      endloop
   endfacet
   facet normal 0.0000 -0.9848 -0.1739
      outer loop
         vertex 9.0000 -4.5000 0.0000
         vertex 0.5000 -4.3467 -1.1647
         vertex 9.0000 -4.3467 -1.1647
      endloop
   endfacet
   facet normal 0.7098 -0.7017 -0.0612
      outer loop
         vertex 9.5000 -3.8637 -1.0353
         vertex 9.5000 -4.0000 0.0000
         vertex 9.0000 -4.5000 0.0000
      endloop
   endfacet
   facet normal 0.7098 -0.6937 -0.1225
      outer loop
         vertex 9.5000 -3.8637 -1.0353
         vertex 9.0000 -4.5000 0.0000
         vertex 9.0000 -4.3467 -1.1647
      endloop
   endfacet
   facet normal 0.0000 0.9848 0.1739
      outer loop
         vertex 9.5000 -2.8978 -0.7765
         vertex 0.0000 -2.8978 -0.7765
         vertex 0.0000 -3.0000 0.0000
      endloop
   endfacet
   facet normal 0.0000 0.9962 0.0869
      outer loop
         vertex 9.5000 -2.8978 -0.7765
         vertex 0.0000 -3.0000 0.0000
         vertex 9.5000 -3.0000 0.0000
      endloop
   endfacet
   facet normal -0.7098 -0.6383 -0.2978
      outer loop
         vertex 0.0000 -3.4641 -2.0000
         vertex 0.5000 -3.8971 -2.2500
         vertex 0.5000 -4.3467 -1.1647
      endloop
   endfacet
   facet normal -0.7098 -0.6620 -0.2408
      outer loop
         vertex 0.0000 -3.4641 -2.0000
         vertex 0.5000 -4.3467 -1.1647
         vertex 0.0000 -3.8637 -1.0353
      endloop
   endfacet
   facet normal 0.0000 -0.9398 -0.3418
      outer loop
         vertex 9.0000 -4.3467 -1.1647
         vertex 0.5000 -4.3467 -1.1647
         vertex 0.5000 -3.8971 -2.2500
      endloop
   endfacet
   facet normal 0.0000 -0.9062 -0.4228
      outer loop
         vertex 9.0000 -4.3467 -1.1647
         vertex 0.5000 -3.8971 -2.2500
         vertex 9.0000 -3.8971 -2.2500
      endloop
   endfacet
   facet normal 0.7098 -0.6620 -0.2408
      outer loop
         vertex 9.5000 -3.8637 -1.0353
         vertex 9.0000 -4.3467 -1.1647
         vertex 9.0000 -3.8971 -2.2500
      endloop
   endfacet
   facet normal 0.7098 -0.6383 -0.2978
      outer loop
         vertex 9.5000 -3.8637 -1.0353
         vertex 9.0000 -3.8971 -2.2500
         vertex 9.5000 -3.4641 -2.0000
      endloop
   endfacet
   facet normal 0.0000 0.9062 0.4228
      outer loop
         vertex 9.5000 -2.8978 -0.7765
         vertex 9.5000 -2.5981 -1.5000
         vertex 0.0000 -2.5981 -1.5000
      endloop
   endfacet
   facet normal 0.0000 0.9398 0.3418
      outer loop
         vertex 9.5000 -2.8978 -0.7765
         vertex 0.0000 -2.5981 -1.5000
         vertex 0.0000 -2.8978 -0.7765
      endloop
   endfacet
   facet normal -0.7098 -0.5771 -0.4039
      outer loop
         vertex 0.5000 -3.1820 -3.1820
         vertex 0.5000 -3.8971 -2.2500
         vertex 0.0000 -3.4641 -2.0000
      endloop
   endfacet
   facet normal -0.7098 -0.5395 -0.4529
      outer loop
         vertex 0.5000 -3.1820 -3.1820
         vertex 0.0000 -3.4641 -2.0000
         vertex 0.0000 -2.8284 -2.8284
      endloop
   endfacet
   facet normal 0.0000 -0.8193 -0.5734
      outer loop
         vertex 9.0000 -3.8971 -2.2500
         vertex 0.5000 -3.8971 -2.2500
         vertex 0.5000 -3.1820 -3.1820
      endloop
   endfacet
   facet normal 0.0000 -0.7659 -0.6430
      outer loop
         vertex 9.0000 -3.8971 -2.2500
         vertex 0.5000 -3.1820 -3.1820
         vertex 9.0000 -3.1820 -3.1820
      endloop
   endfacet
   facet normal 0.7098 -0.5771 -0.4039
      outer loop
         vertex 9.5000 -3.4641 -2.0000
         vertex 9.0000 -3.8971 -2.2500
         vertex 9.0000 -3.1820 -3.1820
      endloop
   endfacet
   facet normal 0.7098 -0.5395 -0.4529
      outer loop
         vertex 9.5000 -3.4641 -2.0000
         vertex 9.0000 -3.1820 -3.1820
         vertex 9.5000 -2.8284 -2.8284
      endloop
   endfacet
   facet normal 0.0000 0.8193 0.5734
      outer loop
         vertex 0.0000 -2.5981 -1.5000
         vertex 9.5000 -2.5981 -1.5000
         vertex 9.5000 -2.1213 -2.1213
      endloop
   endfacet
   facet normal 0.0000 0.7659 0.6430
      outer loop
         vertex 0.0000 -2.5981 -1.5000
         vertex 9.5000 -2.1213 -2.1213
         vertex 0.0000 -2.1213 -2.1213
      endloop
   endfacet
   facet normal -0.7098 -0.4039 -0.5771
      outer loop
         vertex 0.0000 -2.8284 -2.8284
         vertex 0.0000 -2.0000 -3.4641
         vertex 0.5000 -2.2500 -3.8971
      endloop
   endfacet
   facet normal -0.7098 -0.4529 -0.5395
      outer loop
         vertex 0.0000 -2.8284 -2.8284
         vertex 0.5000 -2.2500 -3.8971
         vertex 0.5000 -3.1820 -3.1820
      endloop
   endfacet
   facet normal 0.0000 -0.6430 -0.7659
      outer loop
         vertex 9.0000 -3.1820 -3.1820
         vertex 0.5000 -3.1820 -3.1820
         vertex 0.5000 -2.2500 -3.8971
      endloop
   endfacet
   facet normal 0.0000 -0.5734 -0.8193
      outer loop
         vertex 9.0000 -3.1820 -3.1820
         vertex 0.5000 -2.2500 -3.8971
         vertex 9.0000 -2.2500 -3.8971
      endloop
   endfacet
   facet normal 0.7098 -0.4529 -0.5395
      outer loop
         vertex 9.5000 -2.8284 -2.8284
         vertex 9.0000 -3.1820 -3.1820
         vertex 9.0000 -2.2500 -3.8971
      endloop
   endfacet
   facet normal 0.7098 -0.4039 -0.5771
      outer loop
         vertex 9.5000 -2.8284 -2.8284
         vertex 9.0000 -2.2500 -3.8971
         vertex 9.5000 -2.0000 -3.4641
      endloop
   endfacet
   facet normal 0.0000 0.6430 0.7659
      outer loop
         vertex 0.0000 -2.1213 -2.1213
         vertex 9.5000 -2.1213 -2.1213
         vertex 9.5000 -1.5000 -2.5981
      endloop
   endfacet
   facet normal 0.0000 0.5734 0.8193
      outer loop
         vertex 0.0000 -2.1213 -2.1213
         vertex 9.5000 -1.5000 -2.5981
         vertex 0.0000 -1.5000 -2.5981
      endloop
   endfacet
   facet normal -0.7098 -0.2408 -0.6620
      outer loop
         vertex 0.0000 -2.0000 -3.4641
         vertex 0.0000 -1.0353 -3.8637
         vertex 0.5000 -1.1647 -4.3467
      endloop
   endfacet
   facet normal -0.7098 -0.2978 -0.6383
      outer loop
         vertex 0.0000 -2.0000 -3.4641
         vertex 0.5000 -1.1647 -4.3467
         vertex 0.5000 -2.2500 -3.8971
      endloop
   endfacet
   facet normal 0.0000 -0.4228 -0.9062
      outer loop
         vertex 9.0000 -2.2500 -3.8971
         vertex 0.5000 -2.2500 -3.8971
         vertex 0.5000 -1.1647 -4.3467
      endloop
   endfacet
   facet normal 0.0000 -0.3418 -0.9398
      outer loop
         vertex 9.0000 -2.2500 -3.8971
         vertex 0.5000 -1.1647 -4.3467
         vertex 9.0000 -1.1647 -4.3467
      endloop
   endfacet
   facet normal 0.7098 -0.2978 -0.6383
      outer loop
         vertex 9.5000 -1.0353 -3.8637
         vertex 9.5000 -2.0000 -3.4641
         vertex 9.0000 -2.2500 -3.8971
      endloop
   endfacet
   facet normal 0.7098 -0.2408 -0.6620
      outer loop
         vertex 9.5000 -1.0353 -3.8637
         vertex 9.0000 -2.2500 -3.8971
         vertex 9.0000 -1.1647 -4.3467
      endloop
   endfacet
   facet normal 0.0000 0.4228 0.9062
      outer loop
         vertex 0.0000 -1.5000 -2.5981
         vertex 9.5000 -1.5000 -2.5981
         vertex 9.5000 -0.7765 -2.8978
      endloop
   endfacet
   facet normal 0.0000 0.3418 0.9398
      outer loop
         vertex 0.0000 -1.5000 -2.5981
         vertex 9.5000 -0.7765 -2.8978
         vertex 0.0000 -0.7765 -2.8978
      endloop
   endfacet
   facet normal -0.7098 -0.1225 -0.6937
      outer loop
         vertex 0.5000 -1.1647 -4.3467
         vertex 0.0000 -1.0353 -3.8637
         vertex 0.0000 -0.0000 -4.0000
      endloop
   endfacet
   facet normal -0.7098 -0.0612 -0.7017
      outer loop
         vertex 0.5000 -1.1647 -4.3467
         vertex 0.0000 -0.0000 -4.0000
         vertex 0.5000 -0.0000 -4.5000
      endloop
   endfacet
   facet normal 0.0000 -0.1739 -0.9848
      outer loop
         vertex 9.0000 -1.1647 -4.3467
         vertex 0.5000 -1.1647 -4.3467
         vertex 0.5000 -0.0000 -4.5000
      endloop
   endfacet
   facet normal 0.0000 -0.0869 -0.9962
      outer loop
         vertex 9.0000 -1.1647 -4.3467
         vertex 0.5000 -0.0000 -4.5000
         vertex 9.0000 -0.0000 -4.5000
      endloop
   endfacet
   facet normal 0.7098 -0.1225 -0.6937
      outer loop
         vertex 9.5000 -1.0353 -3.8637
         vertex 9.0000 -1.1647 -4.3467
         vertex 9.0000 -0.0000 -4.5000
      endloop
   endfacet
   facet normal 0.7098 -0.0612 -0.7017
      outer loop
         vertex 9.5000 -1.0353 -3.8637
         vertex 9.0000 -0.0000 -4.5000
         vertex 9.5000 -0.0000 -4.0000
      endloop
   endfacet
   facet normal 0.0000 0.1739 0.9848
      outer loop
         vertex 0.0000 -0.7765 -2.8978
         vertex 9.5000 -0.7765 -2.8978
         vertex 9.5000 -0.0000 -3.0000
      endloop
   endfacet
   facet normal 0.0000 0.0869 0.9962
      outer loop
         vertex 0.0000 -0.7765 -2.8978
         vertex 9.5000 -0.0000 -3.0000
         vertex 0.0000 -0.0000 -3.0000
      endloop
   endfacet
endsolid
