ply
format ascii 1.0
comment VCGLIB generated
element vertex 16
property float x
property float y
property float z
element face 16
property list uchar int vertex_indices
end_header
0.000 0.000 0.000
0.486 0.000 0.000
0.486 0.017 0.000
0.503 0.000 0.000
0.503 0.318 0.000
0.486 0.318 0.000
0.503 0.335 0.000
0.017 0.335 0.000
0.017 0.318 0.000
0.000 0.335 0.000
0.000 0.017 0.000
0.017 0.017 0.000
0.017 0.017 -0.050
0.486 0.017 -0.050
0.486 0.318 -0.050
0.017 0.318 -0.050
3 0 1 2
3 10 0 2
3 3 4 5
3 1 3 5
3 6 7 8
3 4 6 8
3 9 10 11
3 7 9 11
3 11 2 13
3 12 11 13
3 2 5 14
3 13 2 14
3 5 8 15
3 14 5 15
3 8 11 12
3 15 8 12